<?xml version="1.0" encoding="iso-8859-1"?>
<!-- Generator: Adobe Illustrator 16.0.0, SVG Export Plug-In . SVG Version: 6.00 Build 0)  -->
<!DOCTYPE svg PUBLIC "-//W3C//DTD SVG 1.1//EN" "http://www.w3.org/Graphics/SVG/1.1/DTD/svg11.dtd" [
	<!ENTITY ns_flows "http://ns.adobe.com/Flows/1.0/">
	<!ENTITY ns_extend "http://ns.adobe.com/Extensibility/1.0/">
	<!ENTITY ns_ai "http://ns.adobe.com/AdobeIllustrator/10.0/">
	<!ENTITY ns_graphs "http://ns.adobe.com/Graphs/1.0/">
]>
<svg version="1.1" xmlns:x="&ns_extend;" xmlns:i="&ns_ai;" xmlns:graph="&ns_graphs;"
	 xmlns="http://www.w3.org/2000/svg" xmlns:xlink="http://www.w3.org/1999/xlink" xmlns:a="http://ns.adobe.com/AdobeSVGViewerExtensions/3.0/"
	 x="0px" y="0px" width="504px" height="504px" viewBox="0 0 504 504" style="enable-background:new 0 0 504 504;"
	 xml:space="preserve">
<g id="Warstwa_1" xmlns:svg="http://www.w3.org/2000/svg">
	<g>
		<title>Szprychy</title>
		<polygon id="svg_19" style="fill:none;stroke:#000000;stroke-width:36.8504;" points="252,99 289,203 399,205 311,272 343,378 
			252,314 162,378 194,272 106,205 216,203 252,99 289,203 		"/>
		<g>
			<defs>
				<path id="SVGID_1_" d="M135,415.6l41.7-138L62.6,190.8l142.7-2.6l46.6-134.5l47.8,134.5l142.8,2.6l-114.1,86.8l41.6,137.6
					L252,332.4L135,415.6z M252,295.6l64.1,45.1l-22.4-74.4l61.9-47.2l-77.2-1.4l-26.2-73.5l-25.4,73.5l-77.3,1.4l61.9,47.2
					l-22.3,74L252,295.6z"/>
			</defs>
			<clipPath id="SVGID_2_">
				<use xlink:href="#SVGID_1_"  style="overflow:visible;"/>
			</clipPath>
			<radialGradient id="SVGID_3_" cx="251.9998" cy="251.9998" r="108.2693" gradientUnits="userSpaceOnUse">
				<stop  offset="0.8416" style="stop-color:#000000;stop-opacity:0.2"/>
				<stop  offset="0.8441" style="stop-color:#101111;stop-opacity:0.2469"/>
				<stop  offset="0.8477" style="stop-color:#202222;stop-opacity:0.3151"/>
				<stop  offset="0.8522" style="stop-color:#2B2D2D;stop-opacity:0.4"/>
				<stop  offset="0.8586" style="stop-color:#313434;stop-opacity:0.5192"/>
				<stop  offset="0.8762" style="stop-color:#333636;stop-opacity:0.85"/>
				<stop  offset="0.8849" style="stop-color:#444646;stop-opacity:0.8829"/>
				<stop  offset="0.9158" style="stop-color:#7C7C7C"/>
				<stop  offset="0.9505" style="stop-color:#333636;stop-opacity:0.9"/>
				<stop  offset="0.966" style="stop-color:#303333;stop-opacity:0.6801"/>
				<stop  offset="0.9782" style="stop-color:#272929;stop-opacity:0.508"/>
				<stop  offset="0.9892" style="stop-color:#171919;stop-opacity:0.3525"/>
				<stop  offset="0.9995" style="stop-color:#010101;stop-opacity:0.2068"/>
				<stop  offset="1" style="stop-color:#000000;stop-opacity:0.2"/>
				<a:midPointStop  offset="0.8416" style="stop-color:#000000;stop-opacity:0.2"/>
				<a:midPointStop  offset="0.13" style="stop-color:#000000;stop-opacity:0.2"/>
				<a:midPointStop  offset="0.8762" style="stop-color:#333636;stop-opacity:0.85"/>
				<a:midPointStop  offset="0.4834" style="stop-color:#333636;stop-opacity:0.85"/>
				<a:midPointStop  offset="0.9158" style="stop-color:#7C7C7C"/>
				<a:midPointStop  offset="0.5" style="stop-color:#7C7C7C"/>
				<a:midPointStop  offset="0.9505" style="stop-color:#333636;stop-opacity:0.9"/>
				<a:midPointStop  offset="0.7546" style="stop-color:#333636;stop-opacity:0.9"/>
				<a:midPointStop  offset="1" style="stop-color:#000000;stop-opacity:0.2"/>
			</radialGradient>
			<path style="clip-path:url(#SVGID_2_);fill:url(#SVGID_3_);" d="M252,360.3c-59.7,0-108.3-48.6-108.3-108.3
				c0-59.7,48.6-108.3,108.3-108.3c59.7,0,108.3,48.6,108.3,108.3C360.3,311.7,311.7,360.3,252,360.3z M252,163.7
				c-48.7,0-88.3,39.6-88.3,88.3c0,48.7,39.6,88.3,88.3,88.3c48.7,0,88.3-39.6,88.3-88.3C340.3,203.3,300.7,163.7,252,163.7z"/>
		</g>
		
			<radialGradient id="svg_3_1_" cx="-143.6418" cy="534.9036" r="0.5" gradientTransform="matrix(470 0 0 -470 67763.6172 251656.6094)" gradientUnits="userSpaceOnUse">
			<stop  offset="0.9401" style="stop-color:#0000BD"/>
			<stop  offset="1" style="stop-color:#000084;stop-opacity:0.9609"/>
			<a:midPointStop  offset="0.9401" style="stop-color:#0000BD"/>
			<a:midPointStop  offset="0.5" style="stop-color:#0000BD"/>
			<a:midPointStop  offset="1" style="stop-color:#000084;stop-opacity:0.9609"/>
		</radialGradient>
		<circle id="svg_3" style="fill:none;stroke:url(#svg_3_1_);stroke-width:33;" cx="252" cy="252" r="235"/>
		<circle id="svg_5" style="fill:none;stroke:#7F7F00;stroke-width:22.6772;" cx="252" cy="252" r="49.6"/>
		<circle id="svg_4" style="fill:none;stroke:#4C4C4C;stroke-width:12;" cx="252" cy="252" r="33"/>
		<circle id="svg_7" style="fill:none;stroke:#999999;stroke-width:8;" cx="252" cy="252" r="64"/>
		<radialGradient id="svg_8_1_" cx="251.9998" cy="252.0002" r="219.5" gradientUnits="userSpaceOnUse">
			<stop  offset="0.1139" style="stop-color:#0000FF"/>
			<stop  offset="0.8911" style="stop-color:#0000FF"/>
			<stop  offset="0.9401" style="stop-color:#0000FF"/>
			<stop  offset="1" style="stop-color:#0000BE;stop-opacity:0.9609"/>
			<a:midPointStop  offset="0.1139" style="stop-color:#0000FF"/>
			<a:midPointStop  offset="0.5" style="stop-color:#0000FF"/>
			<a:midPointStop  offset="0.8911" style="stop-color:#0000FF"/>
			<a:midPointStop  offset="0.5" style="stop-color:#0000FF"/>
			<a:midPointStop  offset="0.9401" style="stop-color:#0000FF"/>
			<a:midPointStop  offset="0.5" style="stop-color:#0000FF"/>
			<a:midPointStop  offset="1" style="stop-color:#0000BE;stop-opacity:0.9609"/>
		</radialGradient>
		<circle id="svg_8" style="fill:none;stroke:url(#svg_8_1_);stroke-width:99;" cx="252" cy="252" r="170"/>
		<circle id="svg_1" style="fill:none;stroke:#000000;stroke-width:15;" cx="252" cy="252" r="75"/>
		<circle id="svg_2" style="fill:none;stroke:#000000;stroke-width:15;" cx="252" cy="252" r="125"/>
	</g>
</g>
<g id="NAZWA">
	<g>
		<path style="fill:none;" d="M126.3,126.3c33.6-33.6,78.2-52.1,125.7-52.1c47.5,0,92.2,18.5,125.7,52.1
			c33.6,33.6,52.1,78.2,52.1,125.7c0,47.5-18.5,92.2-52.1,125.7c-33.6,33.6-78.2,52.1-125.7,52.1c-47.5,0-92.2-18.5-125.7-52.1
			C92.7,344.2,74.2,299.5,74.2,252C74.2,204.5,92.7,159.8,126.3,126.3z"/>
		<path style="fill:#FFFFFF;" d="M163.4,97l-13-27.9l8.4-3.9l13.9,16.7l-3.9-21.4l8.4-3.9l13,27.9l-5.2,2.4l-10.2-22l4.7,24.5
			l-5.4,2.5l-15.8-19.4l10.2,22L163.4,97z"/>
		<path style="fill:#FFFFFF;" d="M220.6,76.2l-6.5,1.7l-4.4-6.1l-11.9,3.2l-0.6,7.4l-6.4,1.7l3.6-32.8l6.3-1.7L220.6,76.2z
			 M206.4,67.4l-7-9.9l-1.1,12.1L206.4,67.4z"/>
		<path style="fill:#FFFFFF;" d="M221.5,76.4l-3.3-30.6l9.9-1.1c3.8-0.4,6.2-0.5,7.4-0.3c1.8,0.3,3.4,1.1,4.7,2.5
			c1.3,1.4,2.2,3.3,2.4,5.8c0.2,1.9,0,3.5-0.5,4.8c-0.5,1.4-1.3,2.5-2.3,3.3c-1,0.8-2,1.4-3,1.8c-1.4,0.5-3.6,0.8-6.4,1.1l-4,0.4
			l1.2,11.5L221.5,76.4z M225,50.3l0.9,8.7l3.4-0.4c2.4-0.3,4-0.6,4.8-1c0.8-0.4,1.4-1,1.8-1.7s0.5-1.6,0.4-2.5
			c-0.1-1.1-0.5-2-1.3-2.7c-0.7-0.7-1.6-1-2.6-1.1c-0.8-0.1-2.2,0-4.5,0.3L225,50.3z"/>
		<path style="fill:#FFFFFF;" d="M272.4,74.7l-6.8-0.2l-2.5-7.1l-12.3-0.3l-2.7,6.9l-6.6-0.2l12.8-30.4l6.6,0.2L272.4,74.7z
			 M261.2,62.2l-3.9-11.5l-4.5,11.3L261.2,62.2z"/>
		<path style="fill:#FFFFFF;" d="M291.8,78.2l8.9-29.5l12.5,3.8c3.1,1,5.4,1.9,6.6,2.9c1.3,1,2.1,2.2,2.6,3.9c0.4,1.6,0.4,3.3-0.1,5
			c-0.7,2.2-1.9,3.8-3.6,4.9c-1.7,1-4,1.4-6.7,1c1.1,1.1,1.9,2.3,2.4,3.4c0.6,1.2,1.2,3.1,1.9,5.8l1.9,6.8l-7.1-2.1l-2.4-7.7
			c-0.8-2.8-1.4-4.5-1.8-5.3s-0.9-1.4-1.4-1.8c-0.6-0.4-1.5-0.8-2.9-1.2l-1.2-0.4L297.7,80L291.8,78.2z M302.9,63l4.4,1.3
			c2.9,0.9,4.7,1.3,5.5,1.3s1.5-0.3,2-0.7c0.6-0.5,1-1.1,1.3-2c0.3-1,0.3-1.9-0.1-2.6c-0.3-0.8-1-1.4-1.9-1.8
			c-0.5-0.2-1.9-0.7-4.3-1.4l-4.6-1.4L302.9,63z"/>
		<path style="fill:#FFFFFF;" d="M324.7,72.4c1.4-2.8,3-5,4.8-6.4c1.3-1.1,2.8-1.9,4.4-2.5c1.6-0.6,3.2-0.8,4.8-0.7
			c2.1,0.1,4.2,0.8,6.5,1.9c4.1,2,6.7,4.9,7.9,8.6c1.2,3.7,0.7,7.8-1.6,12.3c-2.2,4.4-5.2,7.3-8.8,8.6c-3.7,1.3-7.5,1-11.6-1.1
			c-4.1-2-6.7-4.9-7.9-8.6S322.5,76.8,324.7,72.4z M330.5,75.1c-1.6,3.1-2,5.8-1.4,8.2s2.1,4,4.3,5.1c2.2,1.1,4.4,1.2,6.7,0.3
			c2.2-0.9,4.1-2.9,5.7-6.1c1.6-3.2,2.1-5.9,1.4-8.1c-0.6-2.2-2.1-3.9-4.4-5.1c-2.3-1.1-4.5-1.3-6.7-0.4
			C334,69.9,332.1,71.9,330.5,75.1z"/>
		<path style="fill:#FFFFFF;" d="M346.6,101l17.7-24.9l5.1,3.6l-14.7,20.7l12.6,8.9l-3,4.2L346.6,101z"/>
		<path style="fill:#FFFFFF;" d="M366,114.9l21.3-22.2l4.5,4.3l-9.4,9.9l18.5-1.2l6,5.8l-16.7,0.6l-4.2,22l-5.8-5.6l3.9-16.3
			l-7.2,0.2l-6.4,6.7L366,114.9z"/>
		<path style="fill:#FFFFFF;" d="M397.8,124.6c2.5-1.9,4.9-3.1,7.2-3.6c1.7-0.4,3.4-0.5,5.1-0.2c1.7,0.2,3.3,0.7,4.6,1.5
			c1.8,1,3.5,2.6,5,4.6c2.7,3.6,3.8,7.4,3.2,11.2c-0.6,3.9-2.9,7.3-6.9,10.3c-4,3-7.9,4.2-11.8,3.8c-3.9-0.5-7.2-2.5-9.9-6.1
			c-2.7-3.7-3.8-7.4-3.2-11.2S393.9,127.6,397.8,124.6z M401.8,129.6c-2.8,2.1-4.4,4.3-4.9,6.7c-0.5,2.4,0,4.5,1.5,6.5
			c1.5,2,3.4,3.1,5.8,3.3c2.4,0.2,5-0.8,7.9-2.9c2.8-2.1,4.5-4.3,4.9-6.6c0.5-2.3-0.1-4.4-1.6-6.5s-3.5-3.2-5.8-3.4
			C407.2,126.5,404.7,127.5,401.8,129.6z"/>
		<path style="fill:#FFFFFF;" d="M406.8,163.3l24.5-20l2.8,5.7l-17,13.4l21.5-4.1l3.2,6.7l-17,14.2l21.4-5.1l2.7,5.6l-31,6.6
			l-2.9-5.9l18.1-15.5l-23.4,4.5L406.8,163.3z"/>
		<path style="fill:#FFFFFF;" d="M427.4,218.4l-1.8-6.5l6-4.5l-3.3-11.8l-7.4-0.6l-1.8-6.3l32.9,3.2l1.8,6.3L427.4,218.4z
			 M436,204.1l9.8-7.2l-12.1-0.9L436,204.1z"/>
		<path style="fill:#FFFFFF;" d="M436.4,226.6l5.9-0.6l1.3,11.5l-5.9,0.6L436.4,226.6z"/>
		<path style="fill:#FFFFFF;" d="M430.4,250.3l30.7,2.2l-0.7,9.3l-21.3,4l20.5,7l-0.7,9.3l-30.7-2.2l0.4-5.8l24.2,1.8l-23.7-7.9
			l0.4-6l24.6-4.3l-24.2-1.8L430.4,250.3z"/>
		<path style="fill:#FFFFFF;" d="M420.8,310.4l1.6-6.6l7.4-0.9l3-11.9l-6.2-4.2l1.6-6.4l26.9,19.1l-1.6,6.4L420.8,310.4z
			 M435.4,302.3l12.1-1.3l-10.1-6.8L435.4,302.3z"/>
		<path style="fill:#FFFFFF;" d="M420.2,311.2l28.3,12l-3.9,9.2c-1.5,3.5-2.6,5.7-3.3,6.6c-1.1,1.4-2.6,2.4-4.5,2.9
			c-1.9,0.5-4,0.3-6.2-0.7c-1.7-0.7-3.1-1.7-4-2.8c-0.9-1.1-1.5-2.3-1.8-3.6s-0.3-2.4-0.1-3.5c0.3-1.5,1-3.5,2.1-6.1l1.6-3.7
			l-10.7-4.5L420.2,311.2z M441.3,326.9l-8-3.4l-1.3,3.1c-1,2.3-1.4,3.8-1.5,4.7s0.2,1.7,0.6,2.4c0.4,0.7,1.1,1.2,1.9,1.6
			c1,0.4,2,0.5,2.9,0.2s1.7-0.9,2.2-1.8c0.4-0.6,1.1-2,1.9-4L441.3,326.9z"/>
		<path style="fill:#FFFFFF;" d="M396.9,356.3l3.5-5.8l7.4,1.3l6.3-10.6l-4.7-5.8l3.4-5.7l20.2,26.1l-3.4,5.6L396.9,356.3z
			 M413.2,352.8l12,2.2l-7.7-9.4L413.2,352.8z"/>
		<path style="fill:#FFFFFF;" d="M384.3,371.5l21.4,22.2l-9.4,9.1c-2.4,2.3-4.3,3.7-5.7,4.4c-1.5,0.6-3,0.8-4.6,0.4
			s-3.1-1.3-4.3-2.6c-1.6-1.7-2.4-3.5-2.5-5.5s0.7-4.1,2.4-6.3c-1.5,0.4-2.9,0.5-4.2,0.4c-1.3-0.1-3.3-0.4-6-1.1l-6.9-1.7l5.4-5.2
			l7.9,1.7c2.8,0.6,4.6,0.9,5.5,1c0.9,0,1.6-0.1,2.2-0.4s1.5-0.9,2.5-1.9l0.9-0.9l-8.9-9.3L384.3,371.5z M392.1,388.6l-3.3,3.2
			c-2.1,2.1-3.4,3.5-3.8,4.1c-0.4,0.7-0.5,1.4-0.4,2.1c0.1,0.7,0.5,1.4,1.1,2.1c0.7,0.7,1.5,1.2,2.3,1.2c0.8,0.1,1.7-0.2,2.5-0.8
			c0.4-0.3,1.5-1.3,3.3-3.1l3.5-3.4L392.1,388.6z"/>
		<path style="fill:#FFFFFF;" d="M373.2,403c1.8,2.6,2.9,5,3.3,7.3c0.3,1.7,0.3,3.4,0,5.1c-0.3,1.7-0.9,3.2-1.7,4.5
			c-1.1,1.8-2.7,3.3-4.8,4.8c-3.7,2.6-7.5,3.5-11.4,2.7c-3.8-0.8-7.2-3.2-10-7.4c-2.8-4.1-3.9-8.1-3.3-11.9c0.6-3.8,2.8-7,6.6-9.6
			c3.8-2.6,7.6-3.5,11.4-2.7C367.1,396.6,370.4,399,373.2,403z M368,406.8c-2-2.9-4.1-4.6-6.5-5.2s-4.5-0.2-6.6,1.2
			c-2,1.4-3.2,3.3-3.5,5.7c-0.3,2.4,0.6,5,2.6,8c2,2.9,4.1,4.6,6.4,5.2c2.3,0.6,4.4,0.1,6.6-1.3c2.1-1.5,3.3-3.3,3.6-5.7
			C370.9,412.3,370,409.7,368,406.8z"/>
		<path style="fill:#FFFFFF;" d="M337.5,408.3l13.2,27.5l-5.6,2.7l-10.9-22.9l-13.9,6.7l-2.2-4.7L337.5,408.3z"/>
		<path style="fill:#FFFFFF;" d="M316,418.5l9,29.4l-5.9,1.8l-4-13.1l-8,16.7l-8,2.4l7.6-14.9l-17.2-14.4l7.7-2.4l12.3,11.3l3.3-6.4
			l-2.7-8.9L316,418.5z"/>
		<path style="fill:#FFFFFF;" d="M292,441.5c0.4,3.1,0.3,5.8-0.4,8c-0.5,1.6-1.3,3.2-2.3,4.6c-1,1.4-2.2,2.5-3.6,3.3
			c-1.8,1.1-3.9,1.7-6.4,2.1c-4.5,0.6-8.3-0.3-11.3-2.8c-3.1-2.4-4.9-6.1-5.6-11.1c-0.6-4.9,0.2-9,2.5-12.1c2.3-3.1,5.7-5,10.2-5.6
			c4.5-0.6,8.3,0.3,11.4,2.7C289.5,433,291.3,436.6,292,441.5z M285.7,442.5c-0.4-3.5-1.6-6-3.4-7.5s-4-2.2-6.4-1.9
			c-2.5,0.3-4.4,1.5-5.7,3.4c-1.3,2-1.8,4.7-1.3,8.3c0.5,3.5,1.6,6,3.3,7.5c1.8,1.5,3.9,2.1,6.4,1.8s4.5-1.5,5.8-3.4
			S286.1,446,285.7,442.5z"/>
		<path style="fill:#FFFFFF;" d="M253.9,430.3l5.5,31.2l-6.3-0.4l-3.4-21.4l-6.9,20.8l-7.4-0.4l-4.1-21.8l-6,21.2L219,459l9.3-30.3
			l6.6,0.4l4.7,23.3l7.5-22.6L253.9,430.3z"/>
		<path style="fill:#FFFFFF;" d="M195.7,421.5l6.6,1.6l1,7.4l12,2.8l4.1-6.2l6.4,1.5L207,455.8l-6.4-1.5L195.7,421.5z M204,436
			l1.5,12.1l6.7-10.2L204,436z"/>
		<path style="fill:#FFFFFF;" d="M184.1,425.4l-2.3,5.4l-10.7-4.5l2.3-5.4L184.1,425.4z"/>
		<path style="fill:#FFFFFF;" d="M166.3,408.6l-17,25.6l-7.7-5.1l7-20.6L132.3,423l-7.8-5.2l17-25.6l4.8,3.2L133,415.6l18.5-16.8
			l5,3.3l-8.3,23.6l13.4-20.2L166.3,408.6z"/>
		<path style="fill:#FFFFFF;" d="M118.7,370.7l4.9,4.6l-2.9,6.9l8.9,8.5l6.7-3.3l4.8,4.5L111.3,406l-4.8-4.5L118.7,370.7z
			 M118.6,387.4l-4.8,11.2l10.9-5.4L118.6,387.4z"/>
		<path style="fill:#FFFFFF;" d="M118.3,369.8L94,388.7l-6.1-7.9c-2.3-3-3.7-5-4.2-6.1c-0.7-1.7-0.8-3.5-0.3-5.3
			c0.5-1.9,1.7-3.6,3.6-5.1c1.5-1.2,3-1.9,4.4-2.1c1.4-0.2,2.8-0.2,4,0.2c1.2,0.4,2.3,0.9,3.1,1.6c1.1,1,2.6,2.6,4.3,4.8l2.5,3.2
			l9.2-7.1L118.3,369.8z M94.3,380.6l6.9-5.4l-2.1-2.7c-1.5-1.9-2.6-3.1-3.4-3.6c-0.8-0.5-1.6-0.7-2.4-0.6c-0.8,0.1-1.6,0.4-2.3,0.9
			c-0.9,0.7-1.4,1.5-1.6,2.5c-0.2,1,0,1.9,0.5,2.8c0.3,0.7,1.2,1.9,2.6,3.7L94.3,380.6z"/>
		<path style="fill:#FFFFFF;" d="M90.2,327.5l3.4,5.9l-4.7,5.8l6.2,10.7l7.3-1.3l3.3,5.7l-32.6,5l-3.3-5.7L90.2,327.5z M85.3,343.5
			l-7.8,9.4l12-2.1L85.3,343.5z"/>
		<path style="fill:#FFFFFF;" d="M83,309.1l-29.8,7.8l-3.3-12.7c-0.8-3.2-1.2-5.6-1-7.1c0.2-1.6,0.8-3,2-4.2
			c1.1-1.2,2.6-2.1,4.4-2.5c2.2-0.6,4.3-0.4,6,0.5c1.8,0.9,3.2,2.7,4.3,5.2c0.4-1.5,1-2.8,1.7-3.9c0.7-1.1,2-2.6,3.9-4.7l4.9-5.2
			l1.9,7.2l-5.3,6c-1.9,2.1-3.1,3.6-3.6,4.3c-0.5,0.7-0.7,1.4-0.8,2.1c-0.1,0.7,0.1,1.7,0.5,3.1l0.3,1.2l12.4-3.2L83,309.1z
			 M64.3,307.6l-1.2-4.4c-0.8-2.9-1.3-4.7-1.8-5.3c-0.4-0.7-1-1.1-1.7-1.4c-0.7-0.3-1.5-0.3-2.4,0c-1,0.3-1.7,0.7-2.2,1.4
			s-0.7,1.6-0.6,2.6c0.1,0.5,0.4,2,1,4.4l1.2,4.7L64.3,307.6z"/>
		<path style="fill:#FFFFFF;" d="M61,284.1c-3.1,0.3-5.8,0-8-0.7c-1.6-0.6-3.1-1.4-4.5-2.5s-2.4-2.3-3.1-3.7c-1-1.8-1.6-4-1.8-6.5
			c-0.4-4.5,0.7-8.3,3.2-11.2c2.6-3,6.3-4.7,11.3-5.1c5-0.4,8.9,0.6,12,3c3,2.4,4.7,5.9,5.1,10.4c0.4,4.6-0.7,8.3-3.2,11.2
			S65.9,283.6,61,284.1z M60.3,277.7c3.5-0.3,6-1.3,7.7-3.1c1.7-1.8,2.4-3.9,2.1-6.3c-0.2-2.5-1.3-4.4-3.2-5.8
			c-1.9-1.4-4.7-2-8.2-1.7c-3.5,0.3-6.1,1.3-7.7,3c-1.6,1.7-2.3,3.8-2.1,6.4c0.2,2.6,1.3,4.5,3.2,5.9C54,277.5,56.7,278,60.3,277.7z
			"/>
		<path style="fill:#FFFFFF;" d="M73.9,250.4l-30.5-1.9l0.4-6.2l25.3,1.6l1-15.4l5.2,0.3L73.9,250.4z"/>
		<path style="fill:#FFFFFF;" d="M75.5,226.6l-30.1-6.4l1.3-6.1l13.4,2.8l-10.8-15.1l1.7-8.2l9.3,13.8l20.9-8l-1.7,7.9l-15.9,5.3
			l4,6l9.1,1.9L75.5,226.6z"/>
		<path style="fill:#FFFFFF;" d="M67.1,194.4c-2.9-1.2-5.2-2.6-6.8-4.2c-1.2-1.2-2.2-2.6-2.9-4.2c-0.7-1.6-1.1-3.2-1.1-4.7
			c0-2.1,0.4-4.3,1.3-6.6c1.7-4.2,4.3-7.1,7.9-8.6c3.6-1.5,7.8-1.3,12.4,0.5c4.6,1.8,7.7,4.5,9.3,8.1c1.6,3.5,1.6,7.4-0.1,11.6
			c-1.7,4.3-4.3,7.1-7.9,8.6C75.7,196.4,71.6,196.2,67.1,194.4z M69.2,188.4c3.2,1.3,6,1.5,8.3,0.7c2.3-0.8,3.9-2.4,4.8-4.7
			c0.9-2.3,0.8-4.5-0.2-6.7c-1.1-2.1-3.3-3.9-6.6-5.2c-3.3-1.3-6-1.6-8.2-0.8c-2.2,0.8-3.8,2.4-4.7,4.8c-0.9,2.4-0.9,4.6,0.2,6.7
			C63.8,185.4,65.9,187.1,69.2,188.4z"/>
		<path style="fill:#FFFFFF;" d="M95.4,166.6l-29.8-10.5l3.5-5.3l20.3,7.6l-14.7-16.2l4-6.2l21,7.1l-15.5-15.6l3.4-5.3l21.8,23
			l-3.6,5.5L83,143.3l16,17.6L95.4,166.6z"/>
		<path style="fill:#FFFFFF;" d="M131.7,120.2l-4.6,5l-7-2.8l-8.3,9l3.4,6.6l-4.5,4.8l-14.5-29.7l4.5-4.8L131.7,120.2z M114.9,120.3
			l-11.3-4.6l5.6,10.8L114.9,120.3z"/>
		<path style="fill:#FFFFFF;" d="M133.8,108.2l-3.6-4.6l9.1-7.1l3.6,4.6L133.8,108.2z"/>
	</g>
</g>
<g id="LOZYSKA">
	<g>
		<radialGradient id="SVGID_4_" cx="282.1404" cy="291.6663" r="15.6411" gradientUnits="userSpaceOnUse">
			<stop  offset="0.1733" style="stop-color:#ABABAB"/>
			<stop  offset="0.2664" style="stop-color:#A3A3A3"/>
			<stop  offset="0.4117" style="stop-color:#8D8D8D"/>
			<stop  offset="0.4896" style="stop-color:#7E7E7E"/>
			<stop  offset="0.9307" style="stop-color:#404040"/>
			<a:midPointStop  offset="0.1733" style="stop-color:#ABABAB"/>
			<a:midPointStop  offset="0.6095" style="stop-color:#ABABAB"/>
			<a:midPointStop  offset="0.4896" style="stop-color:#7E7E7E"/>
			<a:midPointStop  offset="0.5123" style="stop-color:#7E7E7E"/>
			<a:midPointStop  offset="0.9307" style="stop-color:#404040"/>
		</radialGradient>
		<circle style="fill:url(#SVGID_4_);" cx="282.1" cy="291.7" r="15.6"/>
		<radialGradient id="SVGID_5_" cx="207.9998" cy="232.9587" r="15.6409" gradientUnits="userSpaceOnUse">
			<stop  offset="0.1733" style="stop-color:#ABABAB"/>
			<stop  offset="0.2664" style="stop-color:#A3A3A3"/>
			<stop  offset="0.4117" style="stop-color:#8D8D8D"/>
			<stop  offset="0.4896" style="stop-color:#7E7E7E"/>
			<stop  offset="0.9307" style="stop-color:#404040"/>
			<a:midPointStop  offset="0.1733" style="stop-color:#ABABAB"/>
			<a:midPointStop  offset="0.6095" style="stop-color:#ABABAB"/>
			<a:midPointStop  offset="0.4896" style="stop-color:#7E7E7E"/>
			<a:midPointStop  offset="0.5123" style="stop-color:#7E7E7E"/>
			<a:midPointStop  offset="0.9307" style="stop-color:#404040"/>
		</radialGradient>
		<circle style="fill:url(#SVGID_5_);" cx="208" cy="233" r="15.6"/>
		<radialGradient id="SVGID_6_" cx="207.9998" cy="274.3342" r="15.6406" gradientUnits="userSpaceOnUse">
			<stop  offset="0.1733" style="stop-color:#ABABAB"/>
			<stop  offset="0.2664" style="stop-color:#A3A3A3"/>
			<stop  offset="0.4117" style="stop-color:#8D8D8D"/>
			<stop  offset="0.4896" style="stop-color:#7E7E7E"/>
			<stop  offset="0.9307" style="stop-color:#404040"/>
			<a:midPointStop  offset="0.1733" style="stop-color:#ABABAB"/>
			<a:midPointStop  offset="0.6095" style="stop-color:#ABABAB"/>
			<a:midPointStop  offset="0.4896" style="stop-color:#7E7E7E"/>
			<a:midPointStop  offset="0.5123" style="stop-color:#7E7E7E"/>
			<a:midPointStop  offset="0.9307" style="stop-color:#404040"/>
		</radialGradient>
		<circle style="fill:url(#SVGID_6_);" cx="208" cy="274.3" r="15.6"/>
		<radialGradient id="SVGID_7_" cx="240.8328" cy="299.1663" r="15.6411" gradientUnits="userSpaceOnUse">
			<stop  offset="0.1733" style="stop-color:#ABABAB"/>
			<stop  offset="0.2664" style="stop-color:#A3A3A3"/>
			<stop  offset="0.4117" style="stop-color:#8D8D8D"/>
			<stop  offset="0.4896" style="stop-color:#7E7E7E"/>
			<stop  offset="0.9307" style="stop-color:#404040"/>
			<a:midPointStop  offset="0.1733" style="stop-color:#ABABAB"/>
			<a:midPointStop  offset="0.6095" style="stop-color:#ABABAB"/>
			<a:midPointStop  offset="0.4896" style="stop-color:#7E7E7E"/>
			<a:midPointStop  offset="0.5123" style="stop-color:#7E7E7E"/>
			<a:midPointStop  offset="0.9307" style="stop-color:#404040"/>
		</radialGradient>
		<circle style="fill:url(#SVGID_7_);" cx="240.8" cy="299.2" r="15.6"/>
		<radialGradient id="SVGID_8_" cx="239.9998" cy="204.3352" r="15.6409" gradientUnits="userSpaceOnUse">
			<stop  offset="0.1733" style="stop-color:#ABABAB"/>
			<stop  offset="0.2664" style="stop-color:#A3A3A3"/>
			<stop  offset="0.4117" style="stop-color:#8D8D8D"/>
			<stop  offset="0.4896" style="stop-color:#7E7E7E"/>
			<stop  offset="0.9307" style="stop-color:#404040"/>
			<a:midPointStop  offset="0.1733" style="stop-color:#ABABAB"/>
			<a:midPointStop  offset="0.6095" style="stop-color:#ABABAB"/>
			<a:midPointStop  offset="0.4896" style="stop-color:#7E7E7E"/>
			<a:midPointStop  offset="0.5123" style="stop-color:#7E7E7E"/>
			<a:midPointStop  offset="0.9307" style="stop-color:#404040"/>
		</radialGradient>
		<circle style="fill:url(#SVGID_8_);" cx="240" cy="204.3" r="15.6"/>
		<radialGradient id="SVGID_9_" cx="283.1404" cy="214.7195" r="15.6409" gradientUnits="userSpaceOnUse">
			<stop  offset="0.1733" style="stop-color:#ABABAB"/>
			<stop  offset="0.2664" style="stop-color:#A3A3A3"/>
			<stop  offset="0.4117" style="stop-color:#8D8D8D"/>
			<stop  offset="0.4896" style="stop-color:#7E7E7E"/>
			<stop  offset="0.9307" style="stop-color:#404040"/>
			<a:midPointStop  offset="0.1733" style="stop-color:#ABABAB"/>
			<a:midPointStop  offset="0.6095" style="stop-color:#ABABAB"/>
			<a:midPointStop  offset="0.4896" style="stop-color:#7E7E7E"/>
			<a:midPointStop  offset="0.5123" style="stop-color:#7E7E7E"/>
			<a:midPointStop  offset="0.9307" style="stop-color:#404040"/>
		</radialGradient>
		<circle style="fill:url(#SVGID_9_);" cx="283.1" cy="214.7" r="15.6"/>
		<radialGradient id="SVGID_10_" cx="300.3376" cy="253.5002" r="15.6406" gradientUnits="userSpaceOnUse">
			<stop  offset="0.1733" style="stop-color:#ABABAB"/>
			<stop  offset="0.2664" style="stop-color:#A3A3A3"/>
			<stop  offset="0.4117" style="stop-color:#8D8D8D"/>
			<stop  offset="0.4896" style="stop-color:#7E7E7E"/>
			<stop  offset="0.9307" style="stop-color:#404040"/>
			<a:midPointStop  offset="0.1733" style="stop-color:#ABABAB"/>
			<a:midPointStop  offset="0.6095" style="stop-color:#ABABAB"/>
			<a:midPointStop  offset="0.4896" style="stop-color:#7E7E7E"/>
			<a:midPointStop  offset="0.5123" style="stop-color:#7E7E7E"/>
			<a:midPointStop  offset="0.9307" style="stop-color:#404040"/>
		</radialGradient>
		<circle style="fill:url(#SVGID_10_);" cx="300.3" cy="253.5" r="15.6"/>
	</g>
	<circle id="svg_4_1_" style="fill:none;stroke:#4C4C4C;stroke-width:12;" cx="252" cy="252" r="33"/>
	<circle id="svg_7_1_" style="fill:none;stroke:#999999;stroke-width:8;" cx="252" cy="252" r="64"/>
</g>
</svg>
