<?xml version="1.0" encoding="iso-8859-1"?>
<!-- Generator: Adobe Illustrator 16.0.0, SVG Export Plug-In . SVG Version: 6.00 Build 0)  -->
<!DOCTYPE svg PUBLIC "-//W3C//DTD SVG 1.1//EN" "http://www.w3.org/Graphics/SVG/1.1/DTD/svg11.dtd" [
	<!ENTITY ns_flows "http://ns.adobe.com/Flows/1.0/">
	<!ENTITY ns_extend "http://ns.adobe.com/Extensibility/1.0/">
	<!ENTITY ns_ai "http://ns.adobe.com/AdobeIllustrator/10.0/">
	<!ENTITY ns_graphs "http://ns.adobe.com/Graphs/1.0/">
]>
<svg version="1.1" xmlns:x="&ns_extend;" xmlns:i="&ns_ai;" xmlns:graph="&ns_graphs;"
	 xmlns="http://www.w3.org/2000/svg" xmlns:xlink="http://www.w3.org/1999/xlink" xmlns:a="http://ns.adobe.com/AdobeSVGViewerExtensions/3.0/"
	 x="0px" y="0px" width="504px" height="504px" viewBox="0 0 504 504" style="enable-background:new 0 0 504 504;"
	 xml:space="preserve">
<g id="Warstwa_1" xmlns:svg="http://www.w3.org/2000/svg">
	<g>
		<title>Szprychy</title>
		<polygon id="svg_19" style="fill:none;stroke:#000000;stroke-width:30;" points="252,97 289,201 399,203 311,270 343,376 252,312 
			162,376 194,270 106,203 216,201 252,97 289,201 		"/>
		
			<radialGradient id="svg_3_1_" cx="-143.6418" cy="534.9036" r="0.5" gradientTransform="matrix(470 0 0 -470 67763.6172 251656.6094)" gradientUnits="userSpaceOnUse">
			<stop  offset="0.9401" style="stop-color:#0000FF"/>
			<stop  offset="1" style="stop-color:#6E00FF;stop-opacity:0.9609"/>
			<a:midPointStop  offset="0.9401" style="stop-color:#0000FF"/>
			<a:midPointStop  offset="0.5" style="stop-color:#0000FF"/>
			<a:midPointStop  offset="1" style="stop-color:#6E00FF;stop-opacity:0.9609"/>
		</radialGradient>
		<circle id="svg_3" style="fill:none;stroke:url(#svg_3_1_);stroke-width:33;" cx="252" cy="252" r="235"/>
		<circle id="svg_4" style="fill:none;stroke:#4C4C4C;stroke-width:12;" cx="252" cy="252" r="33"/>
		<circle id="svg_5" style="fill:none;stroke:#7F7F00;stroke-width:21;" cx="252" cy="252" r="50"/>
		<circle id="svg_7" style="fill:none;stroke:#999999;stroke-width:8;" cx="252" cy="252" r="64"/>
		<circle id="svg_8" style="fill:none;stroke:#0000FF;stroke-width:99;" cx="252" cy="252" r="170"/>
		<circle id="svg_1" style="fill:none;stroke:#000000;stroke-width:15;" cx="252" cy="252" r="75"/>
		<circle id="svg_2" style="fill:none;stroke:#000000;stroke-width:15;" cx="252" cy="252" r="125"/>
	</g>
</g>
<g id="Warstwa_2">
	<g>
		<path style="fill:#FFFFFF;" d="M163.7,97.1l-13.6-27.6l9-4.4c3.4-1.7,5.7-2.6,6.8-2.8c1.8-0.4,3.6-0.1,5.3,0.8
			c1.7,0.9,3.2,2.4,4.2,4.6c0.8,1.7,1.2,3.3,1.2,4.7c0,1.5-0.4,2.8-1,3.9c-0.6,1.1-1.4,2-2.3,2.7c-1.2,0.9-3.1,2-5.6,3.2l-3.6,1.8
			l5.1,10.4L163.7,97.1z M158,71.4l3.8,7.8l3.1-1.5c2.2-1.1,3.6-1.9,4.2-2.6s1-1.4,1.1-2.2c0.1-0.8,0-1.6-0.4-2.5
			c-0.5-1-1.2-1.7-2.1-2.1c-0.9-0.4-1.9-0.4-2.8-0.1c-0.7,0.2-2.1,0.8-4.1,1.8L158,71.4z"/>
		<path style="fill:#FFFFFF;" d="M188.3,85.8l-10.5-28.9l5.8-2.1l10.5,28.9L188.3,85.8z"/>
		<path style="fill:#FFFFFF;" d="M198.4,82l-7.3-29.9l22.2-5.4l1.2,5.1l-16.1,4l1.6,6.6l15-3.7l1.2,5l-15,3.7l2,8.1l16.7-4.1l1.2,5
			L198.4,82z"/>
		<path style="fill:#FFFFFF;" d="M224.9,75.9L222,45.5l6.2-0.6l2.4,25.2l15.4-1.5l0.5,5.2L224.9,75.9z"/>
		<path style="fill:#FFFFFF;" d="M264.2,63.2l0.3-5.2l13.4,0.8l-0.7,12.2c-1.4,1.2-3.3,2.2-5.8,3c-2.5,0.8-5,1.1-7.6,1
			c-3.2-0.2-6-1-8.3-2.5s-4-3.5-5-6.1c-1.1-2.6-1.5-5.3-1.3-8.3c0.2-3.2,1-6,2.5-8.4c1.5-2.4,3.6-4.2,6.2-5.4c2-0.9,4.5-1.3,7.4-1.1
			c3.8,0.2,6.7,1.2,8.8,2.9s3.3,4,3.7,6.9l-6.2,0.8c-0.3-1.5-1.1-2.8-2.2-3.7c-1.1-0.9-2.6-1.5-4.4-1.6c-2.7-0.2-4.9,0.6-6.6,2.2
			c-1.7,1.6-2.7,4.1-2.9,7.5c-0.2,3.6,0.4,6.4,1.9,8.3c1.5,1.9,3.6,3,6.2,3.1c1.3,0.1,2.6-0.1,4-0.5c1.3-0.4,2.5-1,3.5-1.7l0.2-3.9
			L264.2,63.2z"/>
		<path style="fill:#FFFFFF;" d="M280.7,76l7-30l12.7,3c3.2,0.7,5.5,1.6,6.8,2.4c1.3,0.9,2.3,2.1,2.8,3.7c0.6,1.6,0.6,3.3,0.2,5
			c-0.5,2.2-1.6,4-3.3,5.1c-1.7,1.2-3.9,1.6-6.6,1.4c1.1,1.1,2,2.2,2.7,3.3c0.6,1.1,1.4,3,2.3,5.7l2.3,6.7l-7.2-1.7l-2.9-7.5
			c-1-2.7-1.7-4.4-2.2-5.2s-0.9-1.3-1.5-1.7c-0.6-0.4-1.6-0.7-3-1l-1.2-0.3l-2.9,12.5L280.7,76z M290.8,60.1l4.5,1
			c2.9,0.7,4.7,1,5.5,0.9c0.8-0.1,1.4-0.4,2-0.9c0.5-0.5,0.9-1.2,1.1-2.1c0.2-1,0.2-1.9-0.2-2.6s-1.1-1.3-2-1.7
			c-0.5-0.2-1.9-0.6-4.4-1.1l-4.7-1.1L290.8,60.1z"/>
		<path style="fill:#FFFFFF;" d="M306.7,82.2l2.1-5.2l22.5-12.5l-13.3-5.4l1.9-4.8l20.9,8.4l-1.8,4.5l-23.4,13l16.2,6.5l-1.9,4.8
			L306.7,82.2z"/>
		<path style="fill:#FFFFFF;" d="M338.9,96.7l6.5-11.2l-0.7-21.1l6.3,3.7l0.1,14.2l12.3-6.9l6.2,3.6l-18.8,9.7l-6.5,11.1L338.9,96.7
			z"/>
		<path style="fill:#FFFFFF;" d="M355,106.2l19.8-23.5l7.1,6l-9.3,19.7l17.8-12.5l7.1,6l-19.8,23.5l-4.4-3.7l15.6-18.5l-20.3,14.6
			l-4.6-3.9l11-22.5l-15.6,18.5L355,106.2z"/>
		<path style="fill:#FFFFFF;" d="M380.7,128.7l23.6-19.8l4,4.8l-10.5,8.8l18.5,0.9l5.4,6.4l-16.6-1.2l-6.6,21.4l-5.2-6.2L399,128
			l-7.2-0.6l-7.1,6L380.7,128.7z"/>
		<path style="fill:#FFFFFF;" d="M413.2,175.2l-3.4-5.8l4.7-5.9l-6.2-10.6l-7.3,1.4l-3.3-5.7l32.6-5.3l3.3,5.7L413.2,175.2z
			 M417.9,159.2l7.7-9.5l-12,2.2L417.9,159.2z"/>
		<path style="fill:#FFFFFF;" d="M431.8,203.8l5.7-1.4l2.7,11.3l-5.7,1.4L431.8,203.8z"/>
		<path style="fill:#FFFFFF;" d="M430.2,251.5l30.7,1.8l-0.6,10c-0.2,3.8-0.5,6.2-0.9,7.3c-0.6,1.7-1.7,3.1-3.3,4.2
			c-1.6,1.1-3.6,1.6-6.1,1.4c-1.9-0.1-3.5-0.5-4.7-1.3c-1.2-0.8-2.2-1.7-2.9-2.8c-0.7-1.1-1.1-2.2-1.3-3.3c-0.2-1.5-0.2-3.7-0.1-6.5
			l0.2-4l-11.6-0.7L430.2,251.5z M455.3,259.2l-8.7-0.5l-0.2,3.4c-0.1,2.4-0.1,4.1,0.2,4.9c0.3,0.8,0.7,1.5,1.4,2
			c0.7,0.5,1.4,0.8,2.3,0.8c1.1,0.1,2.1-0.2,2.8-0.8c0.8-0.6,1.3-1.4,1.5-2.4c0.2-0.7,0.3-2.2,0.5-4.5L455.3,259.2z"/>
		<path style="fill:#FFFFFF;" d="M427.9,278.5l30.4,5l-1,6.1l-30.4-5L427.9,278.5z"/>
		<path style="fill:#FFFFFF;" d="M426.3,289.1l29.7,8.2l-6.1,22l-5-1.4l4.5-16l-6.6-1.8l-4.1,14.9l-5-1.4l4.1-14.9l-8.1-2.2
			l-4.6,16.6l-5-1.4L426.3,289.1z"/>
		<path style="fill:#FFFFFF;" d="M418.6,315.2l27.9,12.4l-2.5,5.7L420.8,323l-6.3,14.1l-4.7-2.1L418.6,315.2z"/>
		<path style="fill:#FFFFFF;" d="M410.3,355.6l4.3,2.8l-7.3,11.2l-10.3-6.7c-0.3-1.8-0.2-4,0.3-6.6c0.5-2.6,1.5-5,2.9-7.1
			c1.8-2.7,3.9-4.7,6.3-5.9s5-1.7,7.8-1.4c2.8,0.4,5.4,1.4,7.9,3c2.7,1.8,4.7,3.9,6.1,6.4c1.4,2.5,1.9,5.2,1.6,8.1
			c-0.2,2.2-1.1,4.5-2.7,7c-2.1,3.2-4.4,5.3-6.9,6.2c-2.5,0.9-5.1,0.9-7.8-0.2l2.4-5.8c1.5,0.5,2.9,0.4,4.3-0.1
			c1.4-0.5,2.6-1.5,3.5-3c1.5-2.3,1.9-4.6,1.4-6.8c-0.6-2.3-2.3-4.3-5.1-6.2c-3.1-2-5.8-2.8-8.2-2.4c-2.4,0.4-4.3,1.6-5.8,3.9
			c-0.7,1.1-1.2,2.3-1.5,3.7c-0.3,1.4-0.4,2.7-0.3,3.8l3.3,2.1L410.3,355.6z"/>
		<path style="fill:#FFFFFF;" d="M391,363.7l22.6,20.9l-8.9,9.6c-2.2,2.4-4.1,4-5.5,4.7c-1.4,0.7-3,0.9-4.6,0.6
			c-1.6-0.3-3.1-1.1-4.5-2.3c-1.7-1.6-2.6-3.4-2.8-5.4c-0.2-2,0.5-4.2,2.1-6.4c-1.5,0.5-2.9,0.7-4.2,0.7c-1.3,0-3.3-0.3-6.1-0.8
			l-7-1.3l5.1-5.5l8,1.3c2.8,0.5,4.7,0.7,5.5,0.7s1.6-0.2,2.2-0.5c0.6-0.3,1.4-1,2.4-2.1l0.9-0.9l-9.4-8.7L391,363.7z M399.8,380.3
			l-3.1,3.4c-2,2.2-3.2,3.6-3.5,4.4s-0.4,1.4-0.2,2.2c0.2,0.7,0.6,1.4,1.3,2c0.8,0.7,1.6,1.1,2.4,1.1c0.8,0,1.7-0.3,2.5-0.9
			c0.4-0.3,1.4-1.4,3.2-3.3l3.3-3.6L399.8,380.3z"/>
		<path style="fill:#FFFFFF;" d="M372.7,383.2l3.5,4.4l-0.2,25.7l11.2-9l3.3,4.1l-17.6,14.1l-3-3.8l0.2-26.7l-13.7,10.9l-3.2-4
			L372.7,383.2z"/>
		<path style="fill:#FFFFFF;" d="M344.3,404.1l6.5,11.2l18.7,9.7l-6.3,3.7l-12.4-6.9l0,14.1l-6.2,3.6l0.7-21.1l-6.5-11.1
			L344.3,404.1z"/>
		<path style="fill:#FFFFFF;" d="M328.1,413.5l10.7,28.8l-8.7,3.2l-12.6-17.7l2.2,21.6l-8.7,3.3l-10.7-28.8l5.4-2l8.5,22.7
			l-2.7-24.8l5.6-2.1l14.2,20.6l-8.5-22.7L328.1,413.5z"/>
		<path style="fill:#FFFFFF;" d="M295.9,424.8l5.4,30.3l-6.1,1.1l-2.4-13.5l-9.9,15.7l-8.2,1.5l9.3-13.8l-15.3-16.3l7.9-1.4
			l10.9,12.7l4-6l-1.6-9.2L295.9,424.8z"/>
		<path style="fill:#FFFFFF;" d="M239.4,430l6.8-0.1l2.8,7l12.3-0.2l2.4-7l6.6-0.1l-11.5,31l-6.6,0.1L239.4,430z M251,442l4.4,11.4
			l4-11.5L251,442z"/>
		<path style="fill:#FFFFFF;" d="M205.3,432.2l-1.6,5.7l-11.1-3.2l1.6-5.7L205.3,432.2z"/>
		<path style="fill:#FFFFFF;" d="M164.6,407.4l-16.8,25.8l-8.4-5.4c-3.2-2.1-5.1-3.5-5.9-4.4c-1.2-1.3-1.9-3-2.1-4.9
			c-0.2-1.9,0.4-3.9,1.8-6c1-1.6,2.2-2.7,3.5-3.4c1.3-0.7,2.6-1.1,3.8-1.1s2.5,0.1,3.5,0.5c1.4,0.6,3.3,1.6,5.6,3.1l3.4,2.2l6.3-9.7
			L164.6,407.4z M145.5,425.4l4.8-7.3l-2.9-1.9c-2.1-1.3-3.5-2.1-4.4-2.3c-0.9-0.2-1.7-0.1-2.5,0.2c-0.8,0.3-1.4,0.9-1.9,1.6
			c-0.6,0.9-0.8,1.9-0.7,2.9c0.2,1,0.6,1.8,1.3,2.5c0.5,0.5,1.8,1.4,3.6,2.6L145.5,425.4z"/>
		<path style="fill:#FFFFFF;" d="M142.3,392l-19.4,23.9L118,412l19.4-23.9L142.3,392z"/>
		<path style="fill:#FFFFFF;" d="M133.8,385.4L111.8,407l-16-16.3l3.7-3.7l11.7,11.8l4.9-4.8l-10.8-11l3.7-3.6l10.8,11l6-5.9
			l-12.1-12.3l3.7-3.6L133.8,385.4z"/>
		<path style="fill:#FFFFFF;" d="M114.9,365.8L90.5,384l-3.7-5l20.3-15.1l-9.2-12.4l4.2-3.1L114.9,365.8z"/>
		<path style="fill:#FFFFFF;" d="M83.8,338.7l-4.6,2.4L73,329.2l10.9-5.7c1.7,0.6,3.6,1.7,5.6,3.5c2,1.7,3.6,3.7,4.7,6
			c1.5,2.9,2.2,5.7,2.1,8.4c-0.1,2.7-1,5.2-2.6,7.5c-1.7,2.2-3.8,4-6.4,5.4c-2.8,1.5-5.7,2.2-8.5,2.2s-5.4-0.9-7.8-2.6
			c-1.8-1.3-3.4-3.2-4.8-5.8c-1.8-3.4-2.4-6.4-2-9.1s1.8-4.9,4-6.8l3.9,4.9c-1.1,1.1-1.8,2.4-2,3.8c-0.2,1.5,0.1,3,0.9,4.6
			c1.3,2.4,3,3.9,5.3,4.5c2.3,0.6,4.9,0.2,7.9-1.4c3.2-1.7,5.3-3.7,6.2-6c0.9-2.3,0.7-4.6-0.5-6.9c-0.6-1.2-1.4-2.2-2.5-3.1
			c-1.1-0.9-2.1-1.6-3.2-2.1l-3.5,1.8L83.8,338.7z"/>
		<path style="fill:#FFFFFF;" d="M86.3,317.9l-29.3,9.3l-4-12.5c-1-3.1-1.5-5.5-1.4-7.1c0.1-1.6,0.7-3,1.7-4.3
			c1.1-1.3,2.5-2.2,4.2-2.8c2.2-0.7,4.2-0.6,6.1,0.2c1.8,0.8,3.4,2.5,4.6,4.9c0.3-1.5,0.8-2.8,1.5-4s1.9-2.7,3.7-4.9l4.6-5.4
			l2.3,7.1l-5,6.3c-1.8,2.2-2.9,3.7-3.3,4.5c-0.4,0.7-0.6,1.5-0.7,2.2s0.2,1.7,0.6,3.1l0.4,1.2l12.2-3.9L86.3,317.9z M67.5,317.4
			l-1.4-4.4c-0.9-2.8-1.6-4.6-2.1-5.2c-0.5-0.6-1.1-1.1-1.8-1.3c-0.7-0.2-1.5-0.2-2.4,0.1c-1,0.3-1.7,0.8-2.1,1.6s-0.6,1.6-0.4,2.6
			c0.1,0.5,0.5,2,1.3,4.4l1.5,4.6L67.5,317.4z"/>
		<path style="fill:#FFFFFF;" d="M78.3,292.4l-5.5,0.9l-22.2-12.9l2.2,14.2l-5.1,0.8l-3.5-22.3l4.8-0.7L72,285.8l-2.7-17.3l5.1-0.8
			L78.3,292.4z"/>
		<path style="fill:#FFFFFF;" d="M74.2,257.4l-13,0.2L43.6,269l-0.1-7.3l12.1-7.4l-12.3-6.9l-0.1-7.2l18,11.1l12.9-0.2L74.2,257.4z"
			/>
		<path style="fill:#FFFFFF;" d="M74,238.6l-30.4-4.8l1.4-9.2l21.6-2.2l-19.9-8.7l1.5-9.2l30.4,4.8l-0.9,5.7l-23.9-3.8l23,9.8
			l-0.9,5.9L51,229.2l23.9,3.8L74,238.6z"/>
		<path style="fill:#FFFFFF;" d="M80,205l-29.1-10.1l2-5.9l12.9,4.5l-8.8-16.3l2.7-7.9l7.5,14.9l21.8-5.4l-2.6,7.6L70,189.7l3.2,6.4
			l8.8,3.1L80,205z"/>
		<path style="fill:#FFFFFF;" d="M103.2,153.3l-3.2,5.9l-7.4-1L86.6,169l4.9,5.6l-3.2,5.8L67.2,155l3.2-5.8L103.2,153.3z
			 M87.1,157.4L75,155.7l8,9.1L87.1,157.4z"/>
		<path style="fill:#FFFFFF;" d="M118.2,122.7l-4.1-4.2l8.3-8.1l4.1,4.2L118.2,122.7z"/>
	</g>
</g>
</svg>
