<?xml version="1.0" encoding="iso-8859-1"?>
<!-- Generator: Adobe Illustrator 16.0.0, SVG Export Plug-In . SVG Version: 6.00 Build 0)  -->
<!DOCTYPE svg PUBLIC "-//W3C//DTD SVG 1.1//EN" "http://www.w3.org/Graphics/SVG/1.1/DTD/svg11.dtd" [
	<!ENTITY ns_flows "http://ns.adobe.com/Flows/1.0/">
	<!ENTITY ns_extend "http://ns.adobe.com/Extensibility/1.0/">
	<!ENTITY ns_ai "http://ns.adobe.com/AdobeIllustrator/10.0/">
	<!ENTITY ns_graphs "http://ns.adobe.com/Graphs/1.0/">
]>
<svg version="1.1" xmlns:x="&ns_extend;" xmlns:i="&ns_ai;" xmlns:graph="&ns_graphs;"
	 xmlns="http://www.w3.org/2000/svg" xmlns:xlink="http://www.w3.org/1999/xlink" xmlns:a="http://ns.adobe.com/AdobeSVGViewerExtensions/3.0/"
	 x="0px" y="0px" width="504px" height="504px" viewBox="0 0 504 504" style="enable-background:new 0 0 504 504;"
	 xml:space="preserve">
<g id="Warstwa_1" xmlns:svg="http://www.w3.org/2000/svg">
	<g>
		<title>Szprychy</title>
		<polygon id="svg_19" style="fill:none;stroke:#000000;stroke-width:30;" points="252,97 289,201 399,203 311,270 343,376 252,312 
			162,376 194,270 106,203 216,201 252,97 289,201 		"/>
		
			<radialGradient id="svg_3_1_" cx="-143.6418" cy="534.9036" r="0.5" gradientTransform="matrix(470 0 0 -470 67763.6172 251656.6094)" gradientUnits="userSpaceOnUse">
			<stop  offset="0.9401" style="stop-color:#0000FF"/>
			<stop  offset="1" style="stop-color:#6E00FF;stop-opacity:0.9609"/>
			<a:midPointStop  offset="0.9401" style="stop-color:#0000FF"/>
			<a:midPointStop  offset="0.5" style="stop-color:#0000FF"/>
			<a:midPointStop  offset="1" style="stop-color:#6E00FF;stop-opacity:0.9609"/>
		</radialGradient>
		<circle id="svg_3" style="fill:none;stroke:url(#svg_3_1_);stroke-width:33;" cx="252" cy="252" r="235"/>
		<circle id="svg_4" style="fill:none;stroke:#4C4C4C;stroke-width:12;" cx="252" cy="252" r="33"/>
		<circle id="svg_5" style="fill:none;stroke:#7F7F00;stroke-width:21;" cx="252" cy="252" r="50"/>
		<circle id="svg_7" style="fill:none;stroke:#999999;stroke-width:8;" cx="252" cy="252" r="64"/>
		<circle id="svg_8" style="fill:none;stroke:#0000FF;stroke-width:99;" cx="252" cy="252" r="170"/>
		<circle id="svg_1" style="fill:none;stroke:#000000;stroke-width:15;" cx="252" cy="252" r="75"/>
		<circle id="svg_2" style="fill:none;stroke:#000000;stroke-width:15;" cx="252" cy="252" r="125"/>
	</g>
</g>
<g id="Warstwa_2">
	<g>
		<path style="fill:none;" d="M126.3,126.3c33.6-33.6,78.2-52.1,125.7-52.1c47.5,0,92.2,18.5,125.7,52.1
			c33.6,33.6,52.1,78.2,52.1,125.7c0,47.5-18.5,92.2-52.1,125.7c-33.6,33.6-78.2,52.1-125.7,52.1c-47.5,0-92.2-18.5-125.7-52.1
			C92.7,344.2,74.2,299.5,74.2,252C74.2,204.5,92.7,159.8,126.3,126.3z"/>
		<path style="fill:#FFFFFF;" d="M163.7,97.1l-13.6-27.6l9-4.4c3.4-1.7,5.7-2.6,6.8-2.8c1.8-0.4,3.6-0.1,5.3,0.8
			c1.7,0.9,3.2,2.4,4.2,4.6c0.8,1.7,1.2,3.3,1.2,4.7c0,1.5-0.4,2.8-1,3.9c-0.6,1.1-1.4,2-2.3,2.7c-1.2,0.9-3.1,2-5.6,3.2l-3.6,1.8
			l5.1,10.4L163.7,97.1z M158,71.4l3.8,7.8l3.1-1.5c2.2-1.1,3.6-1.9,4.2-2.6s1-1.4,1.1-2.2c0.1-0.8,0-1.6-0.4-2.5
			c-0.5-1-1.2-1.7-2.1-2.1c-0.9-0.4-1.9-0.4-2.8-0.1c-0.7,0.2-2.1,0.8-4.1,1.8L158,71.4z"/>
		<path style="fill:#FFFFFF;" d="M211.6,78.1l-6.4,2.1l-4.7-5.8l-11.7,3.8l-0.3,7.4l-6.3,2l1.9-33l6.3-2L211.6,78.1z M197,70
			l-7.6-9.6L189,72.6L197,70z"/>
		<path style="fill:#FFFFFF;" d="M213.3,77.9l-4.5-30.4l6-0.9l15.5,18.5l-3-20.3l5.7-0.8l4.5,30.4l-6.2,0.9l-15.2-18l2.9,19.9
			L213.3,77.9z"/>
		<path style="fill:#FFFFFF;" d="M242.4,74.1l0.3-30.8l22.8,0.2l0,5.2l-16.6-0.1l-0.1,6.8l15.5,0.1l0,5.2l-15.5-0.1l-0.1,8.4
			l17.2,0.1l0,5.2L242.4,74.1z"/>
		<path style="fill:#FFFFFF;" d="M269.7,74.8l4.6-30.2l6.1,0.9l-3.9,25l15.3,2.3l-0.8,5.1L269.7,74.8z"/>
		<path style="fill:#FFFFFF;" d="M338.1,95.6l-6.2-2.7l0.4-7.5l-11.2-5l-5.2,5.4l-6-2.7l23.4-23.3l6,2.7L338.1,95.6z M332.6,79.8
			l0.8-12.2l-8.4,8.8L332.6,79.8z"/>
		<path style="fill:#FFFFFF;" d="M356.4,70.9l9.5,6.3c2.1,1.4,3.7,2.7,4.6,3.7c1.2,1.4,2,3.1,2.3,4.9c0.3,1.8,0.2,3.8-0.3,5.8
			s-1.6,4.2-3.2,6.6c-1.4,2.1-2.9,3.8-4.4,4.9c-1.9,1.4-3.8,2.4-5.7,2.7c-1.5,0.3-3.1,0.2-5-0.4c-1.4-0.4-3-1.2-4.9-2.5l-9.8-6.4
			L356.4,70.9z M358.7,78.6l-11.2,17l3.9,2.6c1.4,1,2.5,1.6,3.3,1.8c1,0.3,1.9,0.5,2.8,0.3c0.9-0.1,1.9-0.7,3-1.6s2.3-2.4,3.6-4.4
			c1.3-2,2.1-3.6,2.5-4.9c0.4-1.3,0.4-2.4,0.2-3.5c-0.2-1-0.8-1.9-1.6-2.8c-0.6-0.6-2-1.7-4.1-3.1L358.7,78.6z"/>
		<path style="fill:#FFFFFF;" d="M363.7,112.8l21.2-22.3l6.7,6.4L381.2,116l18.5-11.4l6.8,6.4l-21.2,22.3l-4.2-4l16.7-17.6
			l-21.1,13.3l-4.3-4.1l12.3-21.8l-16.7,17.6L363.7,112.8z"/>
		<path style="fill:#FFFFFF;" d="M387.8,137.1l23.8-19.5l3.9,4.8l-23.8,19.5L387.8,137.1z"/>
		<path style="fill:#FFFFFF;" d="M394.9,145.4l25.9-16.7l3.3,5.1l-10.4,21.7l17.3-11.2l3.1,4.8l-25.9,16.7l-3.4-5.2l10.1-21.3
			L398,150.2L394.9,145.4z"/>
		<path style="fill:#FFFFFF;" d="M421.5,195.7l-2.7-6.2l5.4-5.2l-4.9-11.3l-7.4,0.4l-2.6-6.1l33-1.2l2.6,6L421.5,195.7z
			 M428.1,180.3l8.8-8.4l-12.1,0.7L428.1,180.3z"/>
		<path style="fill:#FFFFFF;" d="M434.5,215.4l5.8-1l2,11.4l-5.8,1L434.5,215.4z"/>
		<path style="fill:#FFFFFF;" d="M430.2,252.2l30.7,1.9l-0.6,10c-0.2,3.8-0.5,6.2-0.9,7.3c-0.6,1.7-1.7,3.1-3.3,4.2
			c-1.6,1.1-3.7,1.6-6.1,1.4c-1.9-0.1-3.5-0.6-4.7-1.3c-1.2-0.8-2.2-1.7-2.9-2.8s-1.1-2.2-1.3-3.3c-0.2-1.5-0.2-3.7,0-6.5l0.3-4
			l-11.6-0.7L430.2,252.2z M455.3,260l-8.7-0.5l-0.2,3.4c-0.2,2.4-0.1,4.1,0.2,4.9c0.3,0.8,0.7,1.5,1.4,2s1.4,0.8,2.3,0.9
			c1.1,0.1,2.1-0.2,2.8-0.8s1.3-1.4,1.5-2.4c0.2-0.7,0.3-2.2,0.5-4.5L455.3,260z"/>
		<path style="fill:#FFFFFF;" d="M423.1,303.3l1.4-6.6l7.4-1.2l2.5-12.1l-6.3-3.9l1.3-6.5l27.7,18l-1.3,6.4L423.1,303.3z
			 M437.3,294.6l12-1.8l-10.3-6.4L437.3,294.6z"/>
		<path style="fill:#FFFFFF;" d="M422.3,304.9L451,316l-2.2,5.6l-23.7,4.3l19.2,7.4l-2.1,5.4l-28.7-11.1l2.3-5.8l23.2-4.3l-18.7-7.3
			L422.3,304.9z"/>
		<path style="fill:#FFFFFF;" d="M411.3,332l26.6,15.6l-11.5,19.7l-4.5-2.6l8.4-14.3l-5.9-3.5l-7.8,13.3l-4.5-2.6l7.8-13.3l-7.2-4.2
			l-8.7,14.8l-4.5-2.6L411.3,332z"/>
		<path style="fill:#FFFFFF;" d="M397.1,355.3l23.8,19.1l-3.9,4.8l-19.8-15.9l-9.7,12.1l-4-3.2L397.1,355.3z"/>
		<path style="fill:#FFFFFF;" d="M345.1,404.4l5.4-4l6.3,4l9.9-7.3l-2.1-7.1l5.3-3.9l8.7,31.9l-5.3,3.9L345.1,404.4z M361.5,407.4
			l10.2,6.7l-3.4-11.7L361.5,407.4z"/>
		<path style="fill:#FFFFFF;" d="M357.5,432.5l-10.1,5.1c-2.3,1.2-4.1,1.9-5.5,2.1c-1.9,0.3-3.7,0.2-5.4-0.4
			c-1.8-0.6-3.4-1.7-4.9-3.1c-1.5-1.4-2.9-3.5-4.2-6c-1.1-2.3-1.9-4.3-2.1-6.3c-0.3-2.3-0.2-4.5,0.5-6.3c0.5-1.4,1.4-2.8,2.8-4.2
			c1-1,2.6-2,4.6-3.1l10.4-5.3L357.5,432.5z M349.6,430.7l-9.2-18.2l-4.1,2.1c-1.5,0.8-2.6,1.4-3.2,2c-0.8,0.7-1.3,1.4-1.7,2.3
			c-0.3,0.8-0.4,2-0.1,3.4s0.9,3.2,2,5.3s2.1,3.7,3,4.6c1,0.9,1.9,1.6,2.9,1.9c1,0.3,2.1,0.3,3.2,0c0.9-0.2,2.4-0.9,4.7-2.1
			L349.6,430.7z"/>
		<path style="fill:#FFFFFF;" d="M317.4,418.1l8.8,29.5l-8.9,2.7L306,431.8l0.7,21.7l-8.9,2.7l-8.8-29.5l5.5-1.7l6.9,23.2l-1.1-25
			l5.7-1.7l12.8,21.5l-6.9-23.2L317.4,418.1z"/>
		<path style="fill:#FFFFFF;" d="M284.4,426.9l5,30.4l-6.1,1l-5-30.4L284.4,426.9z"/>
		<path style="fill:#FFFFFF;" d="M273.7,429l1.6,30.7l-6,0.3l-13.6-19.9l1.1,20.5l-5.8,0.3l-1.6-30.7l6.2-0.3l13.4,19.4l-1-20
			L273.7,429z"/>
		<path style="fill:#FFFFFF;" d="M216.8,427l6.7,0.7l1.9,7.2l12.2,1.4l3.3-6.7l6.6,0.7l-15.3,29.3l-6.5-0.7L216.8,427z M226.8,440.4
			l3,11.8l5.4-10.9L226.8,440.4z"/>
		<path style="fill:#FFFFFF;" d="M193.2,428.7l-2,5.5l-10.9-3.9l2-5.5L193.2,428.7z"/>
		<path style="fill:#FFFFFF;" d="M163.4,406.7l-17,25.7l-8.3-5.5c-3.1-2.1-5.1-3.6-5.9-4.5c-1.2-1.4-1.9-3-2-5
			c-0.1-1.9,0.5-3.9,1.8-6c1-1.6,2.2-2.7,3.5-3.4s2.6-1.1,3.9-1.1s2.5,0.2,3.5,0.6c1.4,0.6,3.3,1.6,5.6,3.2l3.4,2.2l6.4-9.7
			L163.4,406.7z M144.1,424.5l4.8-7.3l-2.8-1.9c-2-1.4-3.5-2.1-4.4-2.3c-0.9-0.2-1.7-0.1-2.5,0.2c-0.8,0.3-1.4,0.8-1.9,1.6
			c-0.6,0.9-0.9,1.9-0.7,2.9c0.1,1,0.6,1.8,1.3,2.5c0.5,0.5,1.7,1.4,3.6,2.6L144.1,424.5z"/>
		<path style="fill:#FFFFFF;" d="M122.7,375l5.1,4.5l-2.6,7l9.2,8.2l6.5-3.5l4.9,4.4l-29.4,15.1l-4.9-4.4L122.7,375z M123.1,391.7
			l-4.4,11.4l10.7-5.8L123.1,391.7z"/>
		<path style="fill:#FFFFFF;" d="M121.6,373.6L97.8,393l-3.8-4.7l8-22.7l-15.9,13l-3.6-4.5l23.9-19.4l3.9,4.8l-7.7,22.3l15.6-12.7
			L121.6,373.6z"/>
		<path style="fill:#FFFFFF;" d="M103.5,350.5L76.8,366l-11.4-19.8l4.5-2.6l8.3,14.4l5.9-3.4l-7.7-13.4l4.5-2.6l7.7,13.4l7.3-4.2
			l-8.6-14.9l4.5-2.6L103.5,350.5z"/>
		<path style="fill:#FFFFFF;" d="M90.2,326.7L61.8,338l-2.3-5.8l23.6-9.3l-5.7-14.4l4.8-1.9L90.2,326.7z"/>
		<path style="fill:#FFFFFF;" d="M73.6,257.2l0.8,6.7l-6.6,3.5l1.4,12.2l7.2,1.7l0.7,6.6l-31.9-8.4l-0.7-6.5L73.6,257.2z
			 M62.8,269.9l-10.9,5.5l11.8,2.8L62.8,269.9z"/>
		<path style="fill:#FFFFFF;" d="M43,254l0.6-11.3c0.1-2.6,0.4-4.5,0.9-5.8c0.6-1.8,1.6-3.3,3.1-4.5c1.4-1.2,3.1-2.1,5.1-2.7
			c2-0.6,4.4-0.8,7.3-0.7c2.5,0.1,4.7,0.5,6.5,1.3c2.2,0.9,4,2.1,5.3,3.6c1,1.1,1.7,2.6,2.2,4.5c0.4,1.4,0.5,3.2,0.4,5.5l-0.6,11.7
			L43,254z M48.5,248.1l20.4,1l0.2-4.6c0.1-1.7,0-3-0.1-3.8c-0.2-1-0.6-1.9-1.2-2.6s-1.5-1.3-2.9-1.8c-1.4-0.5-3.2-0.8-5.6-0.9
			c-2.4-0.1-4.2,0-5.5,0.4c-1.3,0.4-2.3,0.9-3.1,1.6c-0.8,0.7-1.3,1.7-1.6,2.8c-0.2,0.9-0.4,2.6-0.5,5.1L48.5,248.1z"/>
		<path style="fill:#FFFFFF;" d="M75.4,226.3l-30-6.9l2.1-9.1l21.7-0.7l-19.2-10.1l2.1-9.1l30,6.9l-1.3,5.6l-23.6-5.4l22.2,11.4
			l-1.3,5.8l-25,0.5l23.6,5.4L75.4,226.3z"/>
		<path style="fill:#FFFFFF;" d="M84,193.2l-28.9-10.6l2.1-5.8l28.9,10.6L84,193.2z"/>
		<path style="fill:#FFFFFF;" d="M87.5,182.9l-27.5-13.9l2.7-5.4l24-2l-18.3-9.3l2.6-5.2l27.5,13.9l-2.8,5.6l-23.5,2l17.9,9
			L87.5,182.9z"/>
		<path style="fill:#FFFFFF;" d="M117.5,134.6l-4,5.4l-7.2-2L99,148l4.1,6.2l-3.9,5.3l-17.7-27.9l3.9-5.3L117.5,134.6z M100.9,136.6
			l-11.7-3.3l6.7,10.1L100.9,136.6z"/>
		<path style="fill:#FFFFFF;" d="M127.9,113.3l-3.8-4.5l8.8-7.5l3.8,4.5L127.9,113.3z"/>
	</g>
</g>
</svg>
