<?xml version="1.0" encoding="iso-8859-1"?>
<!-- Generator: Adobe Illustrator 16.0.0, SVG Export Plug-In . SVG Version: 6.00 Build 0)  -->
<!DOCTYPE svg PUBLIC "-//W3C//DTD SVG 1.1//EN" "http://www.w3.org/Graphics/SVG/1.1/DTD/svg11.dtd" [
	<!ENTITY ns_flows "http://ns.adobe.com/Flows/1.0/">
	<!ENTITY ns_extend "http://ns.adobe.com/Extensibility/1.0/">
	<!ENTITY ns_ai "http://ns.adobe.com/AdobeIllustrator/10.0/">
	<!ENTITY ns_graphs "http://ns.adobe.com/Graphs/1.0/">
]>
<svg version="1.1" xmlns:x="&ns_extend;" xmlns:i="&ns_ai;" xmlns:graph="&ns_graphs;"
	 xmlns="http://www.w3.org/2000/svg" xmlns:xlink="http://www.w3.org/1999/xlink" xmlns:a="http://ns.adobe.com/AdobeSVGViewerExtensions/3.0/"
	 x="0px" y="0px" width="504px" height="504px" viewBox="0 0 504 504" style="enable-background:new 0 0 504 504;"
	 xml:space="preserve">
<g id="Warstwa_1" xmlns:svg="http://www.w3.org/2000/svg">
	<g>
		<title>Szprychy</title>
		<polygon id="svg_19" style="fill:none;stroke:#000000;stroke-width:30;" points="252,97 289,201 399,203 311,270 343,376 252,312 
			162,376 194,270 106,203 216,201 252,97 289,201 		"/>
		
			<radialGradient id="svg_3_1_" cx="-143.6418" cy="534.9036" r="0.5" gradientTransform="matrix(470 0 0 -470 67763.6172 251656.6094)" gradientUnits="userSpaceOnUse">
			<stop  offset="0.9401" style="stop-color:#0000FF"/>
			<stop  offset="1" style="stop-color:#6E00FF;stop-opacity:0.9609"/>
			<a:midPointStop  offset="0.9401" style="stop-color:#0000FF"/>
			<a:midPointStop  offset="0.5" style="stop-color:#0000FF"/>
			<a:midPointStop  offset="1" style="stop-color:#6E00FF;stop-opacity:0.9609"/>
		</radialGradient>
		<circle id="svg_3" style="fill:none;stroke:url(#svg_3_1_);stroke-width:33;" cx="252" cy="252" r="235"/>
		<circle id="svg_4" style="fill:none;stroke:#4C4C4C;stroke-width:12;" cx="252" cy="252" r="33"/>
		<circle id="svg_5" style="fill:none;stroke:#7F7F00;stroke-width:21;" cx="252" cy="252" r="50"/>
		<circle id="svg_7" style="fill:none;stroke:#999999;stroke-width:8;" cx="252" cy="252" r="64"/>
		<circle id="svg_8" style="fill:none;stroke:#0000FF;stroke-width:99;" cx="252" cy="252" r="170"/>
		<circle id="svg_1" style="fill:none;stroke:#000000;stroke-width:15;" cx="252" cy="252" r="75"/>
		<circle id="svg_2" style="fill:none;stroke:#000000;stroke-width:15;" cx="252" cy="252" r="125"/>
	</g>
</g>
<g id="Warstwa_2">
	<g>
		<path style="fill:none;" d="M126.3,126.3c33.6-33.6,78.2-52.1,125.7-52.1c47.5,0,92.2,18.5,125.7,52.1
			c33.6,33.6,52.1,78.2,52.1,125.7c0,47.5-18.5,92.2-52.1,125.7c-33.6,33.6-78.2,52.1-125.7,52.1c-47.5,0-92.2-18.5-125.7-52.1
			C92.7,344.2,74.2,299.5,74.2,252C74.2,204.5,92.7,159.8,126.3,126.3z"/>
		<path style="fill:#FFFFFF;" d="M163.7,97.1l-13.4-27.7l5.6-2.7l5.9,12.3l5.4-17.8l7.5-3.6l-5.2,15.8L188.7,85l-7.2,3.5l-13.9-9.3
			l-2.3,6.8l4,8.4L163.7,97.1z"/>
		<path style="fill:#FFFFFF;" d="M186.1,69.8c-0.8-3-1.1-5.7-0.7-8c0.3-1.7,0.8-3.3,1.6-4.8s1.9-2.8,3.1-3.7
			c1.6-1.3,3.7-2.3,6.1-2.9c4.4-1.2,8.2-0.8,11.6,1.2c3.4,2,5.7,5.4,7.1,10.2c1.3,4.8,1,8.9-0.8,12.3c-1.9,3.4-5,5.7-9.3,6.9
			c-4.4,1.2-8.3,0.8-11.6-1.1C189.8,77.9,187.4,74.6,186.1,69.8z M192.2,67.9c0.9,3.4,2.4,5.7,4.4,7s4.2,1.6,6.6,1
			c2.4-0.7,4.1-2.1,5.2-4.2c1.1-2.1,1.1-4.9,0.2-8.4c-0.9-3.4-2.4-5.7-4.3-7c-2-1.3-4.2-1.6-6.6-0.9c-2.5,0.7-4.2,2.1-5.3,4.2
			C191.4,61.8,191.3,64.5,192.2,67.9z"/>
		<path style="fill:#FFFFFF;" d="M223.5,76l-2.8-30.7l6-0.5l14.4,19.3l-1.8-20.5l5.8-0.5l2.8,30.7l-6.2,0.6l-14.2-18.9l1.8,20
			L223.5,76z"/>
		<path style="fill:#FFFFFF;" d="M261,74.4l1.7-25.5l-9.1-0.6l0.3-5.2l24.4,1.6l-0.3,5.2l-9.1-0.6l-1.7,25.5L261,74.4z"/>
		<path style="fill:#FFFFFF;" d="M304.1,81.2l-6.6-1.4l-1.2-7.4l-12-2.5l-3.9,6.3l-6.5-1.4L292,47.2l6.4,1.4L304.1,81.2z
			 M295.4,66.9l-1.8-12.1l-6.4,10.3L295.4,66.9z"/>
		<path style="fill:#FFFFFF;" d="M306.9,82.3l11.5-28.6l5.8,2.3l-5.1,12.7l16.7-8l7.8,3.1l-15.2,6.8l4.3,22l-7.5-3l-2.5-16.6
			l-6.6,2.9l-3.5,8.6L306.9,82.3z"/>
		<path style="fill:#FFFFFF;" d="M341,97.9l13.2-21.9l-7.8-4.7l2.7-4.5l20.9,12.6l-2.7,4.5l-7.8-4.7l-13.2,21.9L341,97.9z"/>
		<path style="fill:#FFFFFF;" d="M381.3,118.2l4.2-4.1l8.1,8.3l-4.2,4.1L381.3,118.2z"/>
		<path style="fill:#FFFFFF;" d="M407.5,164.7l27.8-13.2l2.7,5.6l-12.3,5.9l17.7,5.5l3.6,7.5l-15.8-5.3l-11.7,19.1l-3.4-7.3
			l9.4-13.8l-6.8-2.3l-8.4,4L407.5,164.7z"/>
		<path style="fill:#FFFFFF;" d="M434.6,187.3c3-0.8,5.7-1,8-0.7c1.7,0.3,3.3,0.8,4.8,1.7c1.5,0.8,2.8,1.9,3.7,3.1
			c1.3,1.6,2.2,3.7,2.9,6.1c1.2,4.4,0.8,8.2-1.3,11.6c-2,3.4-5.4,5.7-10.3,7c-4.8,1.3-8.9,1-12.3-0.9c-3.4-1.9-5.7-5-6.9-9.4
			c-1.2-4.4-0.8-8.3,1.2-11.6C426.5,190.9,429.9,188.6,434.6,187.3z M436.4,193.4c-3.4,0.9-5.7,2.4-7,4.4c-1.3,2-1.7,4.2-1,6.6
			c0.6,2.4,2,4.1,4.2,5.2c2.1,1.1,4.9,1.1,8.4,0.2c3.4-0.9,5.7-2.3,7-4.3s1.6-4.2,0.9-6.6s-2-4.2-4.2-5.3
			C442.6,192.6,439.9,192.5,436.4,193.4z"/>
		<path style="fill:#FFFFFF;" d="M428.2,224.6l30.7-2.6l0.5,6l-19.4,14.3l20.5-1.7l0.5,5.8l-30.7,2.6l-0.5-6.2l19-14l-20,1.7
			L428.2,224.6z"/>
		<path style="fill:#FFFFFF;" d="M429.6,262.1l25.5,1.9l0.7-9.1l5.2,0.4l-1.8,24.4l-5.2-0.4l0.7-9.1l-25.5-1.9L429.6,262.1z"/>
		<path style="fill:#FFFFFF;" d="M422.5,305.2l1.4-6.6l7.4-1.1l2.6-12l-6.3-4l1.4-6.4l27.5,18.3l-1.4,6.4L422.5,305.2z M436.8,296.6
			l12.1-1.7l-10.3-6.5L436.8,296.6z"/>
		<path style="fill:#FFFFFF;" d="M421.3,308l28.5,11.7l-2.4,5.8l-12.6-5.2l7.9,16.8l-3.2,7.7l-6.7-15.3l-22,4.2l3-7.4l16.6-2.4
			l-2.9-6.6l-8.6-3.5L421.3,308z"/>
		<path style="fill:#FFFFFF;" d="M405.5,342l21.8,13.4l4.8-7.8l4.4,2.7l-12.8,20.9l-4.4-2.7l4.8-7.8l-21.8-13.4L405.5,342z"/>
		<path style="fill:#FFFFFF;" d="M385,382.2l4.1,4.2l-8.3,8.1l-4.1-4.2L385,382.2z"/>
		<path style="fill:#FFFFFF;" d="M338.3,408.1l13,27.9l-5.6,2.6l-5.8-12.4l-5.6,17.7l-7.6,3.5l5.4-15.8l-19-11.9l7.3-3.4l13.8,9.5
			l2.4-6.8l-3.9-8.4L338.3,408.1z"/>
		<path style="fill:#FFFFFF;" d="M315.5,435c0.8,3,1,5.7,0.6,8c-0.3,1.7-0.8,3.3-1.7,4.8c-0.9,1.5-1.9,2.7-3.1,3.7
			c-1.6,1.3-3.7,2.2-6.1,2.9c-4.4,1.1-8.3,0.7-11.6-1.3c-3.3-2-5.7-5.5-6.9-10.3c-1.3-4.8-0.9-8.9,1-12.3c1.9-3.4,5-5.7,9.4-6.8
			c4.4-1.2,8.3-0.7,11.6,1.3C312,426.9,314.3,430.3,315.5,435z M309.4,436.8c-0.9-3.4-2.3-5.7-4.3-7.1c-2-1.3-4.2-1.7-6.6-1.1
			c-2.4,0.6-4.1,2-5.2,4.1c-1.1,2.1-1.2,4.9-0.3,8.4c0.9,3.4,2.3,5.8,4.2,7.1s4.1,1.6,6.6,1c2.5-0.6,4.3-2,5.3-4.1
			C310.2,443,310.3,440.2,309.4,436.8z"/>
		<path style="fill:#FFFFFF;" d="M278.3,428.3l2.4,30.7l-6,0.5L260.5,440l1.6,20.5l-5.8,0.4l-2.4-30.7l6.2-0.5l13.9,19.1l-1.5-20
			L278.3,428.3z"/>
		<path style="fill:#FFFFFF;" d="M240.7,429.5l-2,25.5l9.1,0.7l-0.4,5.2L223,459l0.4-5.2l9.1,0.7l2-25.5L240.7,429.5z"/>
		<path style="fill:#FFFFFF;" d="M197.7,422.1l6.6,1.5l1.1,7.4l12,2.7l4-6.3l6.4,1.4l-18.4,27.4l-6.4-1.4L197.7,422.1z M206.2,436.5
			l1.6,12.1l6.6-10.2L206.2,436.5z"/>
		<path style="fill:#FFFFFF;" d="M194.9,421l-11.8,28.4l-5.7-2.4l5.3-12.6l-16.8,7.8l-7.7-3.2l15.3-6.6l-4-22l7.4,3.1L179,430
			l6.6-2.8l3.6-8.6L194.9,421z"/>
		<path style="fill:#FFFFFF;" d="M161,404.9l-13.5,21.7l7.8,4.8l-2.7,4.4l-20.8-12.9l2.7-4.4l7.7,4.8l13.5-21.7L161,404.9z"/>
		<path style="fill:#FFFFFF;" d="M120.9,384.1l-4.3,4.1l-8-8.4l4.3-4.1L120.9,384.1z"/>
		<path style="fill:#FFFFFF;" d="M95.4,337.3l-28,12.8l-2.6-5.6l12.4-5.7l-17.7-5.7l-3.5-7.6l15.7,5.5l12-18.9l3.4,7.3l-9.6,13.7
			l6.8,2.4l8.5-3.9L95.4,337.3z"/>
		<path style="fill:#FFFFFF;" d="M68.6,314.3c-3,0.8-5.7,1-8,0.6c-1.7-0.3-3.3-0.9-4.8-1.7c-1.5-0.9-2.7-1.9-3.7-3.2
			c-1.3-1.7-2.2-3.7-2.8-6.1c-1.1-4.4-0.6-8.3,1.4-11.6s5.5-5.6,10.4-6.9c4.8-1.2,8.9-0.9,12.3,1.1c3.4,1.9,5.6,5.1,6.8,9.5
			c1.1,4.4,0.7,8.3-1.4,11.6C76.7,310.8,73.3,313.1,68.6,314.3z M66.8,308.2c3.4-0.9,5.7-2.3,7.1-4.3c1.3-2,1.7-4.2,1.1-6.6
			c-0.6-2.4-2-4.2-4.1-5.3c-2.1-1.1-4.9-1.2-8.4-0.3c-3.4,0.9-5.8,2.3-7.1,4.2c-1.3,1.9-1.6,4.1-1,6.6s2,4.3,4.1,5.4
			C60.6,308.9,63.4,309,66.8,308.2z"/>
		<path style="fill:#FFFFFF;" d="M75.5,277.1l-30.7,2.2l-0.4-6l19.6-14l-20.5,1.5l-0.4-5.8l30.7-2.2l0.4,6.2l-19.1,13.8l20-1.4
			L75.5,277.1z"/>
		<path style="fill:#FFFFFF;" d="M74.6,239.6l-25.5-2.2l-0.8,9.1l-5.2-0.4l2.1-24.4l5.2,0.4l-0.8,9.1l25.5,2.2L74.6,239.6z"/>
		<path style="fill:#FFFFFF;" d="M82.2,196.6l-1.5,6.6l-7.4,1l-2.8,12l6.2,4.1l-1.5,6.4L48,208.1l1.5-6.4L82.2,196.6z M67.8,205
			l-12.1,1.6l10.2,6.6L67.8,205z"/>
		<path style="fill:#FFFFFF;" d="M83.4,193.8l-28.3-12l2.4-5.7l12.6,5.3l-7.7-16.9l3.3-7.7l6.5,15.4l22.1-3.9l-3.1,7.4l-16.6,2.1
			l2.8,6.6l8.6,3.6L83.4,193.8z"/>
		<path style="fill:#FFFFFF;" d="M99.7,160l-21.6-13.6l-4.9,7.7l-4.4-2.8l13-20.7l4.4,2.8l-4.9,7.7l21.6,13.6L99.7,160z"/>
		<path style="fill:#FFFFFF;" d="M120.7,120.1l-4.1-4.3l8.4-8l4.1,4.3L120.7,120.1z"/>
	</g>
</g>
</svg>
