<?xml version="1.0" encoding="iso-8859-1"?>
<!-- Generator: Adobe Illustrator 16.0.0, SVG Export Plug-In . SVG Version: 6.00 Build 0)  -->
<!DOCTYPE svg PUBLIC "-//W3C//DTD SVG 1.1//EN" "http://www.w3.org/Graphics/SVG/1.1/DTD/svg11.dtd" [
	<!ENTITY ns_flows "http://ns.adobe.com/Flows/1.0/">
	<!ENTITY ns_extend "http://ns.adobe.com/Extensibility/1.0/">
	<!ENTITY ns_ai "http://ns.adobe.com/AdobeIllustrator/10.0/">
	<!ENTITY ns_graphs "http://ns.adobe.com/Graphs/1.0/">
]>
<svg version="1.1" xmlns:x="&ns_extend;" xmlns:i="&ns_ai;" xmlns:graph="&ns_graphs;"
	 xmlns="http://www.w3.org/2000/svg" xmlns:xlink="http://www.w3.org/1999/xlink" xmlns:a="http://ns.adobe.com/AdobeSVGViewerExtensions/3.0/"
	 x="0px" y="0px" width="504px" height="504px" viewBox="0 0 504 504" style="enable-background:new 0 0 504 504;"
	 xml:space="preserve">
<g id="Warstwa_1" xmlns:svg="http://www.w3.org/2000/svg">
	<g>
		<title>Szprychy</title>
		<polygon id="svg_19" style="fill:none;stroke:#000000;stroke-width:30;" points="252,97 289,201 399,203 311,270 343,376 252,312 
			162,376 194,270 106,203 216,201 252,97 289,201 		"/>
		
			<radialGradient id="svg_3_1_" cx="-143.6418" cy="534.9036" r="0.5" gradientTransform="matrix(470 0 0 -470 67763.6172 251656.6094)" gradientUnits="userSpaceOnUse">
			<stop  offset="0.9401" style="stop-color:#0000FF"/>
			<stop  offset="1" style="stop-color:#6E00FF;stop-opacity:0.9609"/>
			<a:midPointStop  offset="0.9401" style="stop-color:#0000FF"/>
			<a:midPointStop  offset="0.5" style="stop-color:#0000FF"/>
			<a:midPointStop  offset="1" style="stop-color:#6E00FF;stop-opacity:0.9609"/>
		</radialGradient>
		<circle id="svg_3" style="fill:none;stroke:url(#svg_3_1_);stroke-width:33;" cx="252" cy="252" r="235"/>
		<circle id="svg_4" style="fill:none;stroke:#4C4C4C;stroke-width:12;" cx="252" cy="252" r="33"/>
		<circle id="svg_5" style="fill:none;stroke:#7F7F00;stroke-width:21;" cx="252" cy="252" r="50"/>
		<circle id="svg_7" style="fill:none;stroke:#999999;stroke-width:8;" cx="252" cy="252" r="64"/>
		<circle id="svg_8" style="fill:none;stroke:#0000FF;stroke-width:99;" cx="252" cy="252" r="170"/>
		<circle id="svg_1" style="fill:none;stroke:#000000;stroke-width:15;" cx="252" cy="252" r="75"/>
		<circle id="svg_2" style="fill:none;stroke:#000000;stroke-width:15;" cx="252" cy="252" r="125"/>
	</g>
</g>
<g id="Warstwa_2">
	<g>
		<path style="fill:#FFFFFF;" d="M163.7,97l-13.5-27.9l5.5-2.6l20.4,13.2l-9-18.7l5.2-2.5l13.5,27.9l-5.7,2.7l-20-12.8l8.8,18.2
			L163.7,97z"/>
		<path style="fill:#FFFFFF;" d="M217.8,76.7l-6.6,1.9l-4.5-6L194.8,76l-0.5,7.5l-6.4,1.8l3.1-33.1l6.4-1.8L217.8,76.7z M203.4,68.1
			l-7.3-9.9l-0.9,12.2L203.4,68.1z"/>
		<path style="fill:#FFFFFF;" d="M216.6,45.8l6.2-0.7l1.8,16.7c0.3,2.7,0.6,4.4,0.8,5.1c0.4,1.2,1.1,2.2,2.2,2.8
			c1.1,0.7,2.5,0.9,4.2,0.7c1.8-0.2,3.1-0.7,3.9-1.5c0.8-0.8,1.3-1.8,1.3-2.8c0.1-1.1,0-2.8-0.3-5.3l-1.9-17.1l6.2-0.7l1.8,16.2
			c0.4,3.7,0.5,6.3,0.4,7.9c-0.2,1.6-0.6,2.9-1.4,4.1c-0.8,1.2-1.9,2.1-3.4,2.9c-1.4,0.8-3.4,1.3-5.8,1.6c-2.9,0.3-5.2,0.2-6.8-0.3
			s-2.9-1.3-3.9-2.3c-1-1-1.7-2.1-2.1-3.2c-0.6-1.7-1.1-4.3-1.5-7.8L216.6,45.8z"/>
		<path style="fill:#FFFFFF;" d="M250,73.8l1.8-31l6.3,0.4l-0.8,13.8l13.4-13l8.4,0.5l-12.4,11.4L278,75.4l-8.1-0.5l-7.7-15
			l-5.4,4.9l-0.5,9.4L250,73.8z"/>
		<path style="fill:#FFFFFF;" d="M307.2,82.1l-6.6-1.5l-1.1-7.5l-12.1-2.8l-4.1,6.3l-6.5-1.5l18.7-27.5l6.5,1.5L307.2,82.1z
			 M298.7,67.6l-1.6-12.2l-6.7,10.3L298.7,67.6z"/>
		<path style="fill:#FFFFFF;" d="M353.9,69.6l5.5,3L350,89.8c-1.2,2.3-2.4,3.9-3.4,4.9c-1.4,1.3-3.1,2-5,2.2c-1.9,0.2-4-0.3-6.3-1.6
			c-2.7-1.5-4.3-3.3-5-5.6c-0.6-2.3-0.2-4.9,1.4-7.8l5.5,2.2c-0.8,1.6-1.2,2.8-1.1,3.7c0.1,1.3,0.7,2.3,1.9,2.9
			c1.2,0.7,2.3,0.8,3.2,0.4c0.9-0.4,1.9-1.7,3.1-3.9L353.9,69.6z"/>
		<path style="fill:#FFFFFF;" d="M371.6,119.5l-5.4-4.1l2.1-7.2l-9.9-7.5l-6.3,4.1l-5.3-4l28.4-17.4l5.3,4L371.6,119.5z
			 M369.9,102.8l3.6-11.8l-10.3,6.6L369.9,102.8z"/>
		<path style="fill:#FFFFFF;" d="M371.1,119.4l4.1-3.9l25.8-2.3l-10-10.4l3.8-3.6l15.8,16.3l-3.5,3.4l-26.9,2.3l12.3,12.7l-3.8,3.6
			L371.1,119.4z"/>
		<path style="fill:#FFFFFF;" d="M415.8,121.8l6.6,9.4c1.5,2.1,2.5,3.8,2.9,5.2c0.6,1.8,0.7,3.6,0.4,5.5c-0.4,1.8-1.2,3.6-2.4,5.3
			c-1.2,1.7-3,3.4-5.4,5.1c-2.1,1.5-4.1,2.5-5.9,3c-2.3,0.7-4.4,0.8-6.4,0.4c-1.5-0.3-3-1-4.6-2.2c-1.2-0.9-2.4-2.3-3.7-4.2
			l-6.8-9.6L415.8,121.8z M415.1,130l-16.8,11.8l2.7,3.8c1,1.4,1.8,2.4,2.4,2.9c0.8,0.7,1.6,1.1,2.5,1.3s2,0.1,3.4-0.4
			c1.4-0.5,3-1.4,5-2.8s3.3-2.6,4.2-3.7c0.8-1.1,1.3-2.1,1.4-3.2c0.1-1,0-2.1-0.5-3.2c-0.3-0.8-1.2-2.3-2.7-4.4L415.1,130z"/>
		<path style="fill:#FFFFFF;" d="M410.9,171.9l11.8-5.7l11.2-18l3.2,6.6l-7.9,11.9l14.2,1.1l3.1,6.5l-21.2-2.4l-11.7,5.7
			L410.9,171.9z"/>
		<path style="fill:#FFFFFF;" d="M433.2,209.2l5.8-1.2l2.4,11.4l-5.8,1.2L433.2,209.2z"/>
		<path style="fill:#FFFFFF;" d="M430.1,259.6l30.8,3.4l-0.7,6.1l-22,10.3l20.6,2.3l-0.6,5.8l-30.8-3.4l0.7-6.2l21.5-10.2l-20.1-2.2
			L430.1,259.6z"/>
		<path style="fill:#FFFFFF;" d="M418.7,316.2l1.9-6.5l7.5-0.7l3.4-11.9l-6.1-4.4l1.8-6.4l26.5,20.2l-1.8,6.4L418.7,316.2z
			 M433.6,308.5l12.2-0.9l-9.9-7.2L433.6,308.5z"/>
		<path style="fill:#FFFFFF;" d="M445.6,331.6l-2.7,5.6l-15.1-7.3c-2.4-1.2-4-1.8-4.8-2c-1.3-0.3-2.5-0.2-3.6,0.4
			c-1.1,0.6-2.1,1.6-2.8,3.2c-0.8,1.6-1,3-0.8,4.1s0.8,2,1.7,2.6c0.9,0.6,2.4,1.5,4.6,2.5l15.4,7.5l-2.7,5.6l-14.7-7.1
			c-3.4-1.6-5.6-2.9-6.9-3.9c-1.2-1-2.1-2.1-2.7-3.4c-0.6-1.3-0.8-2.7-0.7-4.4s0.7-3.6,1.8-5.8c1.3-2.7,2.6-4.5,3.9-5.6
			s2.6-1.8,4-2.1c1.4-0.3,2.7-0.4,3.9-0.1c1.8,0.4,4.2,1.4,7.4,2.9L445.6,331.6z"/>
		<path style="fill:#FFFFFF;" d="M404.1,345.1l25.2,18l-3.6,5.1l-11.2-8l3.8,18.3l-4.9,6.9l-3-16.5l-22.6-1l4.7-6.6l16.8,1.5
			l-1.3-7.1l-7.6-5.5L404.1,345.1z"/>
		<path style="fill:#FFFFFF;" d="M366.5,388.9l4.9-4.8l6.9,3.1l8.8-8.7l-3.1-6.8l4.7-4.7l13.2,30.6l-4.7,4.6L366.5,388.9z
			 M383.3,389.5l11.1,5.2l-5.1-11.1L383.3,389.5z"/>
		<path style="fill:#FFFFFF;" d="M352.4,435.2l-5.4,3.1l-9.7-17.1c-1.3-2.2-2-4.1-2.3-5.5c-0.4-1.9-0.1-3.7,0.7-5.4
			c0.9-1.7,2.4-3.2,4.7-4.5c2.7-1.5,5.1-1.9,7.4-1.2c2.3,0.7,4.2,2.5,5.9,5.3l-4.8,3.5c-0.9-1.5-1.8-2.5-2.5-2.9
			c-1.1-0.6-2.3-0.6-3.5,0.1c-1.2,0.7-1.9,1.5-2,2.5s0.4,2.6,1.7,4.7L352.4,435.2z"/>
		<path style="fill:#FFFFFF;" d="M300.7,423.8l6.4-2.4l5,5.6l11.6-4.4l-0.1-7.5l6.2-2.4l-0.3,33.3l-6.2,2.3L300.7,423.8z
			 M315.8,431.2l8.1,9.2l-0.2-12.2L315.8,431.2z"/>
		<path style="fill:#FFFFFF;" d="M301.1,423.5l1.2,5.5l-11.9,23l14.1-2.9l1.1,5.1l-22.2,4.6l-1-4.8l12.4-23.9l-17.3,3.6l-1.1-5.1
			L301.1,423.5z"/>
		<path style="fill:#FFFFFF;" d="M275.1,460l-11.4,0.6c-2.6,0.1-4.6,0-5.9-0.3c-1.8-0.4-3.4-1.3-4.8-2.6s-2.4-2.9-3.2-4.9
			c-0.8-1.9-1.2-4.4-1.4-7.3c-0.1-2.6,0.1-4.8,0.6-6.6c0.7-2.3,1.7-4.2,3-5.6c1-1.1,2.5-2,4.3-2.7c1.4-0.5,3.2-0.8,5.5-0.9l11.8-0.6
			L275.1,460z M268.6,455l-1-20.5l-4.7,0.2c-1.7,0.1-3,0.2-3.8,0.5c-1,0.3-1.8,0.8-2.5,1.4c-0.6,0.6-1.1,1.7-1.5,3.1
			c-0.4,1.4-0.5,3.3-0.4,5.7c0.1,2.4,0.4,4.2,0.9,5.5c0.5,1.3,1.1,2.2,1.9,2.9s1.8,1.1,3,1.3c0.9,0.2,2.6,0.2,5.2,0L268.6,455z"/>
		<path style="fill:#FFFFFF;" d="M235.4,429.1l-1.4,13l9.3,19.1l-7.3-0.8l-5.9-13l-8.5,11.4l-7.2-0.8l13.3-16.7l1.4-12.9
			L235.4,429.1z"/>
		<path style="fill:#FFFFFF;" d="M191.9,428.3l-2.1,5.6l-11-4l2.1-5.6L191.9,428.3z"/>
		<path style="fill:#FFFFFF;" d="M160.7,405.2l-17.8,25.4l-5-3.5l1.4-24.3l-11.9,17l-4.8-3.3l17.8-25.4l5.2,3.6l-1.3,23.7l11.6-16.6
			L160.7,405.2z"/>
		<path style="fill:#FFFFFF;" d="M116.4,368.1l4.9,4.8l-3,6.9l8.8,8.7l6.8-3.2l4.7,4.7l-30.4,13.7l-4.7-4.6L116.4,368.1z M116,384.9
			l-5,11.2l11.1-5.3L116,384.9z"/>
		<path style="fill:#FFFFFF;" d="M90.1,384.5l-3.7-5.1l13.6-9.9c2.2-1.6,3.5-2.6,4.1-3.2c0.9-1,1.3-2.1,1.4-3.3c0-1.3-0.5-2.6-1.5-4
			c-1-1.4-2.1-2.3-3.2-2.6c-1.1-0.3-2.2-0.2-3.1,0.3c-1,0.5-2.4,1.4-4.4,2.9l-13.9,10.1l-3.7-5.1l13.2-9.6c3-2.2,5.2-3.6,6.7-4.2
			c1.4-0.6,2.9-0.9,4.3-0.8s2.8,0.6,4.2,1.5c1.4,0.9,2.8,2.3,4.3,4.3c1.7,2.4,2.8,4.4,3.1,6.1c0.3,1.6,0.3,3.1,0,4.5
			c-0.4,1.4-0.9,2.5-1.8,3.4c-1.2,1.4-3.2,3.1-6,5.1L90.1,384.5z"/>
		<path style="fill:#FFFFFF;" d="M97.8,341.6L70,355.3l-2.8-5.6l12.4-6.1l-17.9-5.3l-3.7-7.6l16,5.1l11.5-19.4l3.6,7.3l-9.3,14.1
			l6.9,2.3L95,336L97.8,341.6z"/>
		<path style="fill:#FFFFFF;" d="M77,287.7l1.9,6.5l-6,4.6l3.5,11.9l7.5,0.5l1.9,6.4l-33.2-2.8l-1.9-6.4L77,287.7z M68.5,302.2
			l-9.8,7.4l12.2,0.8L68.5,302.2z"/>
		<path style="fill:#FFFFFF;" d="M43.1,253.2L43,247l19.6-0.3c2.6,0,4.5,0.2,5.9,0.6c1.8,0.6,3.3,1.7,4.4,3.2
			c1.1,1.6,1.7,3.7,1.7,6.3c0.1,3.1-0.8,5.4-2.5,7.1s-4.2,2.6-7.5,2.6l-0.8-5.9c1.8-0.1,3-0.4,3.8-0.8c1.1-0.7,1.6-1.7,1.6-3.1
			c0-1.4-0.4-2.4-1.2-2.9c-0.8-0.6-2.5-0.8-5-0.8L43.1,253.2z"/>
		<path style="fill:#FFFFFF;" d="M77.7,213.1l-0.9,6.8l-7.3,1.8L67.9,234l6.7,3.5l-0.9,6.6l-29.2-16l0.9-6.6L77.7,213.1z M64,223
			l-12,2.7l10.9,5.7L64,223z"/>
		<path style="fill:#FFFFFF;" d="M77.8,213.6l-5.4-1.6l-14.7-21.3l-4.1,13.9l-5-1.5l6.4-21.8l4.7,1.4l15.3,22.2l5-16.9l5,1.5
			L77.8,213.6z"/>
		<path style="fill:#FFFFFF;" d="M58,173.5l4.9-10.3c1.1-2.3,2.1-4,3.1-5.1c1.3-1.4,2.8-2.4,4.6-3c1.8-0.6,3.7-0.8,5.8-0.5
			c2.1,0.2,4.4,1,7.1,2.2c2.3,1.1,4.2,2.3,5.5,3.7c1.7,1.7,2.9,3.5,3.5,5.4c0.5,1.4,0.6,3.1,0.3,5c-0.2,1.4-0.8,3.2-1.8,5.3
			L86,186.8L58,173.5z M65.4,170.1l18.5,8.8l2-4.2c0.8-1.6,1.2-2.8,1.4-3.5c0.2-1,0.2-2-0.1-2.8c-0.3-0.9-0.9-1.8-2-2.8
			s-2.7-2-4.9-3c-2.2-1-3.9-1.6-5.3-1.8c-1.3-0.2-2.5-0.1-3.5,0.3c-1,0.4-1.8,1-2.6,2c-0.6,0.7-1.4,2.2-2.5,4.5L65.4,170.1z"/>
		<path style="fill:#FFFFFF;" d="M104,153.2l-10.7-7.5l-21.2-0.9l4.2-6l14.2,1l-6-12.9l4.1-5.9l8.3,19.7l10.7,7.4L104,153.2z"/>
		<path style="fill:#FFFFFF;" d="M125.5,115.4l-3.9-4.5l8.8-7.7l3.9,4.5L125.5,115.4z"/>
	</g>
</g>
</svg>
