<?xml version="1.0" encoding="iso-8859-1"?>
<!-- Generator: Adobe Illustrator 16.0.0, SVG Export Plug-In . SVG Version: 6.00 Build 0)  -->
<!DOCTYPE svg PUBLIC "-//W3C//DTD SVG 1.1//EN" "http://www.w3.org/Graphics/SVG/1.1/DTD/svg11.dtd" [
	<!ENTITY ns_flows "http://ns.adobe.com/Flows/1.0/">
	<!ENTITY ns_extend "http://ns.adobe.com/Extensibility/1.0/">
	<!ENTITY ns_ai "http://ns.adobe.com/AdobeIllustrator/10.0/">
	<!ENTITY ns_graphs "http://ns.adobe.com/Graphs/1.0/">
]>
<svg version="1.1" xmlns:x="&ns_extend;" xmlns:i="&ns_ai;" xmlns:graph="&ns_graphs;"
	 xmlns="http://www.w3.org/2000/svg" xmlns:xlink="http://www.w3.org/1999/xlink" xmlns:a="http://ns.adobe.com/AdobeSVGViewerExtensions/3.0/"
	 x="0px" y="0px" width="504px" height="504px" viewBox="0 0 504 504" style="enable-background:new 0 0 504 504;"
	 xml:space="preserve">
<g id="Warstwa_1" xmlns:svg="http://www.w3.org/2000/svg">
	<g>
		<title>Szprychy</title>
		<polygon id="svg_19" style="fill:none;stroke:#000000;stroke-width:30;" points="252,97 289,201 399,203 311,270 343,376 252,312 
			162,376 194,270 106,203 216,201 252,97 289,201 		"/>
		
			<radialGradient id="svg_3_1_" cx="-143.6418" cy="534.9036" r="0.5" gradientTransform="matrix(470 0 0 -470 67763.6172 251656.6094)" gradientUnits="userSpaceOnUse">
			<stop  offset="0.9401" style="stop-color:#0000FF"/>
			<stop  offset="1" style="stop-color:#6E00FF;stop-opacity:0.9609"/>
			<a:midPointStop  offset="0.9401" style="stop-color:#0000FF"/>
			<a:midPointStop  offset="0.5" style="stop-color:#0000FF"/>
			<a:midPointStop  offset="1" style="stop-color:#6E00FF;stop-opacity:0.9609"/>
		</radialGradient>
		<circle id="svg_3" style="fill:none;stroke:url(#svg_3_1_);stroke-width:33;" cx="252" cy="252" r="235"/>
		<circle id="svg_4" style="fill:none;stroke:#4C4C4C;stroke-width:12;" cx="252" cy="252" r="33"/>
		<circle id="svg_5" style="fill:none;stroke:#7F7F00;stroke-width:21;" cx="252" cy="252" r="50"/>
		<circle id="svg_7" style="fill:none;stroke:#999999;stroke-width:8;" cx="252" cy="252" r="64"/>
		<circle id="svg_8" style="fill:none;stroke:#0000FF;stroke-width:99;" cx="252" cy="252" r="170"/>
		<circle id="svg_1" style="fill:none;stroke:#000000;stroke-width:15;" cx="252" cy="252" r="75"/>
		<circle id="svg_2" style="fill:none;stroke:#000000;stroke-width:15;" cx="252" cy="252" r="125"/>
	</g>
</g>
<g id="Warstwa_2">
	<g>
		<path style="fill:#FFFFFF;" d="M161.4,98.4l-2.5-5l5.6-25.1l-12.8,6.4l-2.3-4.7L169.4,60l2.2,4.3l-5.8,26.1l15.7-7.8l2.3,4.6
			L161.4,98.4z"/>
		<path style="fill:#FFFFFF;" d="M176,57.2l11.7-3.8c2.3-0.7,4.1-1.2,5.3-1.4c1.2-0.2,2.4-0.1,3.4,0.2c1.1,0.3,2.1,0.9,3,1.7
			c0.9,0.8,1.6,1.9,2,3.1c0.4,1.4,0.5,2.8,0.1,4.1c-0.4,1.4-1.1,2.6-2.2,3.5c2-0.1,3.6,0.4,5,1.3c1.4,0.9,2.3,2.3,2.9,4
			c0.4,1.3,0.5,2.7,0.3,4.2c-0.2,1.5-0.7,2.7-1.6,3.8c-0.8,1.1-2,2-3.5,2.7c-1,0.4-3.3,1.3-7.1,2.5l-10,3.2L176,57.2z M183.5,60.2
			l2.2,6.8l3.9-1.2c2.3-0.7,3.7-1.2,4.3-1.5c1-0.4,1.7-1.1,2.1-1.8c0.4-0.8,0.4-1.6,0.1-2.6c-0.3-0.9-0.8-1.6-1.5-2
			s-1.5-0.5-2.6-0.3c-0.6,0.1-2.3,0.6-5.1,1.5L183.5,60.2z M187.3,71.8l2.5,7.8l5.5-1.8c2.1-0.7,3.5-1.2,4-1.5
			c0.8-0.4,1.4-1.1,1.8-1.9c0.4-0.8,0.4-1.7,0-2.8c-0.3-0.9-0.7-1.6-1.4-2c-0.6-0.5-1.4-0.7-2.3-0.7c-0.9,0-2.7,0.4-5.4,1.3
			L187.3,71.8z"/>
		<path style="fill:#FFFFFF;" d="M213.3,78.3l-6.1-30.2l6.1-1.2l6.1,30.2L213.3,78.3z"/>
		<path style="fill:#FFFFFF;" d="M220.8,60.9c-0.3-3.1,0-5.8,0.7-8c0.6-1.6,1.4-3.1,2.5-4.4c1.1-1.3,2.3-2.4,3.7-3.1
			c1.8-1,4-1.6,6.5-1.8c4.5-0.4,8.3,0.7,11.2,3.3s4.6,6.4,5.1,11.4c0.4,5-0.6,8.9-3.1,12c-2.5,3-5.9,4.7-10.4,5.1
			c-4.6,0.4-8.3-0.7-11.2-3.3C222.8,69.5,221.2,65.8,220.8,60.9z M227.1,60.2c0.3,3.5,1.3,6,3.1,7.7c1.8,1.7,3.9,2.4,6.3,2.2
			s4.4-1.3,5.9-3.2c1.4-1.9,2-4.6,1.7-8.2c-0.3-3.5-1.3-6.1-3-7.7c-1.7-1.6-3.8-2.3-6.4-2.1c-2.6,0.2-4.5,1.3-6,3.1
			C227.4,53.9,226.8,56.6,227.1,60.2z M230.4,42.7l2.4-6.5l6.6-0.6l-5.2,6.7L230.4,42.7z"/>
		<path style="fill:#FFFFFF;" d="M254.5,73.8l2.5-30.7l13,1.1c3.3,0.3,5.6,0.7,7.1,1.4c1.4,0.7,2.5,1.8,3.3,3.2s1.1,3.1,0.9,4.9
			c-0.2,2.3-1,4.1-2.5,5.5c-1.5,1.4-3.6,2.2-6.3,2.3c1.3,0.9,2.3,1.8,3.1,2.8c0.8,1,1.8,2.8,3.1,5.3L282,76l-7.4-0.6l-3.9-7
			c-1.4-2.5-2.4-4.1-2.9-4.8c-0.5-0.7-1.1-1.1-1.8-1.4c-0.6-0.3-1.7-0.5-3.1-0.6l-1.3-0.1l-1,12.8L254.5,73.8z M262.1,56.6l4.6,0.4
			c3,0.2,4.8,0.3,5.6,0.1c0.8-0.2,1.4-0.6,1.8-1.2c0.5-0.6,0.7-1.3,0.8-2.3c0.1-1-0.1-1.9-0.6-2.6c-0.5-0.7-1.2-1.1-2.2-1.4
			c-0.5-0.1-2-0.3-4.5-0.5l-4.8-0.4L262.1,56.6z"/>
		<path style="fill:#FFFFFF;" d="M283.3,76.5l7.4-29.9l6,1.5l-3.3,13.3l15.5-10.2l8.1,2L302.9,62l7.3,21.2l-7.8-1.9l-4.7-16.1
			l-6.1,3.8l-2.2,9L283.3,76.5z"/>
		<path style="fill:#FFFFFF;" d="M336.6,94.7l-6.2-2.7l0.3-7.5l-11.3-4.9l-5.1,5.4l-6.1-2.6L331.4,59l6,2.6L336.6,94.7z M330.9,79
			l0.6-12.2l-8.3,8.8L330.9,79z"/>
		<path style="fill:#FFFFFF;" d="M345.2,100l17.9-25l10.6,7.6c2.7,1.9,4.5,3.5,5.3,4.9c0.9,1.3,1.3,2.8,1.2,4.5
			c-0.1,1.7-0.7,3.2-1.7,4.7c-1.3,1.9-3,3-5,3.5c-2,0.4-4.2,0-6.6-1.2c0.6,1.4,1,2.8,1.2,4s0.2,3.3,0,6.1l-0.4,7.1l-6-4.3l0.2-8.1
			c0.1-2.9,0.1-4.7,0-5.6c-0.1-0.8-0.4-1.6-0.8-2.1s-1.2-1.3-2.3-2.1l-1-0.7l-7.5,10.4L345.2,100z M360.6,89.2l3.7,2.7
			c2.4,1.7,4,2.7,4.8,2.9c0.8,0.2,1.5,0.2,2.2,0s1.3-0.8,1.9-1.5c0.6-0.8,0.9-1.7,0.8-2.5c-0.1-0.8-0.5-1.6-1.2-2.3
			c-0.4-0.4-1.6-1.3-3.6-2.7l-3.9-2.8L360.6,89.2z"/>
		<path style="fill:#FFFFFF;" d="M378.5,105.3c2.2-2.2,4.4-3.7,6.6-4.5c1.6-0.6,3.3-0.9,5-0.9s3.3,0.3,4.8,0.9
			c1.9,0.8,3.8,2.1,5.5,3.9c3.2,3.2,4.7,6.8,4.6,10.7c-0.1,3.9-1.9,7.6-5.5,11.1c-3.5,3.5-7.3,5.3-11.2,5.3c-3.9,0-7.4-1.5-10.6-4.8
			c-3.2-3.3-4.8-6.8-4.7-10.7C373.2,112.4,375,108.8,378.5,105.3z M383.1,109.8c-2.5,2.4-3.8,4.9-4,7.3c-0.2,2.4,0.6,4.5,2.4,6.3
			c1.7,1.8,3.8,2.6,6.2,2.5c2.4-0.1,4.9-1.4,7.4-3.9c2.5-2.5,3.8-4.9,4-7.2c0.2-2.3-0.7-4.4-2.5-6.2c-1.8-1.8-3.9-2.7-6.2-2.6
			S385.7,107.3,383.1,109.8z"/>
		<path style="fill:#FFFFFF;" d="M390.2,139.7l24.7-18l3.7,5l-20.5,14.9l9.1,12.5l-4.2,3.1L390.2,139.7z"/>
		<path style="fill:#FFFFFF;" d="M404.2,159.2l27.2-14.4l10.7,20.2l-4.6,2.4l-7.8-14.7l-6,3.2l7.2,13.7l-4.6,2.4l-7.2-13.7l-7.4,3.9
			l8,15.2l-4.6,2.4L404.2,159.2z"/>
		<path style="fill:#FFFFFF;" d="M416.4,182.9l29.1-9.9l2,5.9l-12.9,4.4l17,7.5l2.7,7.9l-15.1-7.1l-13.9,17.6l-2.6-7.6l10.9-12.7
			l-6.5-3.1l-8.8,3L416.4,182.9z"/>
		<path style="fill:#FFFFFF;" d="M436.8,229.8l5.9-0.5l1.1,11.5l-5.9,0.5L436.8,229.8z"/>
		<path style="fill:#FFFFFF;" d="M430,262.1l5.6,0.7l17.8,18.5l1.8-14.2l5.2,0.7l-2.8,22.4l-4.8-0.6l-18.5-19.3l-2.2,17.4l-5.1-0.7
			L430,262.1z"/>
		<path style="fill:#FFFFFF;" d="M456.1,297.1l-3.3,11.8c-0.7,2.3-1.3,4.1-1.8,5.2s-1.2,2-2.1,2.7c-0.9,0.7-1.9,1.3-3.1,1.6
			c-1.2,0.3-2.4,0.3-3.7-0.1c-1.4-0.4-2.6-1.1-3.5-2.2c-0.9-1.1-1.5-2.3-1.7-3.8c-1,1.7-2.3,2.8-3.9,3.4s-3.2,0.7-4.9,0.2
			c-1.3-0.4-2.6-1.1-3.7-2c-1.1-1-1.9-2.1-2.3-3.4c-0.5-1.3-0.5-2.8-0.3-4.4c0.2-1,0.8-3.5,1.8-7.3l2.8-10.1L456.1,297.1z
			 M437.7,298.3l-7.9-2.2l-1.6,5.5c-0.6,2.2-0.9,3.5-1,4.2c-0.1,0.9,0.1,1.8,0.6,2.5c0.5,0.7,1.2,1.3,2.3,1.5c0.9,0.3,1.7,0.2,2.4,0
			s1.4-0.8,1.9-1.5c0.5-0.7,1.2-2.5,1.9-5.2L437.7,298.3z M449.5,301.7l-6.8-1.9l-1.1,3.9c-0.7,2.3-1,3.8-1.1,4.4
			c-0.2,1.1,0,2,0.4,2.7c0.4,0.8,1.1,1.3,2.1,1.5c0.9,0.3,1.7,0.2,2.4-0.1c0.7-0.3,1.3-1,1.7-2c0.2-0.6,0.8-2.3,1.5-5.1L449.5,301.7
			z"/>
		<path style="fill:#FFFFFF;" d="M417.9,316.4l28.5,11.6l-2.3,5.8l-28.5-11.6L417.9,316.4z"/>
		<path style="fill:#FFFFFF;" d="M428.3,332.3c2.7,1.5,4.8,3.2,6.2,5.1c1,1.4,1.8,2.9,2.3,4.6c0.5,1.7,0.7,3.3,0.5,4.8
			c-0.2,2.1-0.9,4.2-2.1,6.4c-2.2,4-5.2,6.5-9,7.5s-7.9,0.3-12.2-2.1c-4.3-2.4-7.1-5.5-8.2-9.2s-0.6-7.6,1.6-11.5
			c2.2-4,5.2-6.5,9-7.5C420,329.2,424,329.9,428.3,332.3z M425.4,338c-3-1.7-5.8-2.3-8.1-1.7c-2.4,0.5-4.1,1.9-5.3,4.1
			c-1.2,2.2-1.4,4.4-0.6,6.6c0.8,2.3,2.8,4.2,5.9,6c3.1,1.7,5.8,2.3,8,1.8c2.3-0.5,4-1.9,5.3-4.1c1.2-2.2,1.5-4.5,0.7-6.7
			C430.4,341.7,428.5,339.7,425.4,338z M438.1,350.4l4.1,5.6l-3.2,5.8l-2.7-8.1L438.1,350.4z"/>
		<path style="fill:#FFFFFF;" d="M398.8,353.1l24,19.2l-8.2,10.2c-2.1,2.6-3.8,4.3-5.1,5.1c-1.4,0.8-2.9,1.1-4.5,1
			c-1.7-0.2-3.2-0.8-4.6-2c-1.8-1.4-2.9-3.2-3.2-5.2s0.2-4.2,1.6-6.5c-1.5,0.6-2.8,0.9-4.1,1c-1.3,0.1-3.3,0-6.1-0.4l-7-0.8l4.6-5.8
			l8,0.7c2.9,0.2,4.7,0.3,5.6,0.3s1.6-0.3,2.2-0.7c0.6-0.4,1.3-1.1,2.2-2.2l0.8-1l-10-8L398.8,353.1z M408.8,369.1l-2.9,3.6
			c-1.9,2.3-2.9,3.9-3.2,4.6c-0.3,0.7-0.3,1.5-0.1,2.2c0.2,0.7,0.7,1.4,1.4,1.9c0.8,0.6,1.6,1,2.5,0.9s1.6-0.4,2.4-1.1
			c0.4-0.3,1.3-1.5,2.9-3.5l3-3.8L408.8,369.1z"/>
		<path style="fill:#FFFFFF;" d="M380.5,375.5l20.7,22.8l-4.6,4.2l-9.2-10.1l-0.1,18.6l-6.2,5.6l0.5-16.7l-21.7-5.7l6-5.4l16,5
			l0.3-7.2l-6.3-6.9L380.5,375.5z"/>
		<path style="fill:#FFFFFF;" d="M335.7,409.7l5.7-3.7l6.1,4.4l10.3-6.7l-1.7-7.2l5.5-3.6l6.7,32.3l-5.5,3.6L335.7,409.7z
			 M351.9,413.7l9.8,7.3l-2.7-11.8L351.9,413.7z"/>
		<path style="fill:#FFFFFF;" d="M326.5,414l10.9,28.8l-12.2,4.6c-3.1,1.2-5.4,1.7-7,1.8s-3.1-0.5-4.4-1.5s-2.3-2.4-3-4.1
			c-0.8-2.2-0.9-4.2-0.1-6.1s2.3-3.5,4.7-4.8c-1.5-0.3-2.9-0.7-4-1.2c-1.2-0.6-2.8-1.7-5.1-3.4l-5.6-4.3l7-2.6l6.6,4.7
			c2.3,1.7,3.9,2.7,4.7,3.1c0.8,0.4,1.5,0.6,2.2,0.5s1.7-0.3,3-0.8l1.2-0.4l-4.5-12L326.5,414z M327,432.8l-4.3,1.6
			c-2.8,1.1-4.5,1.8-5.1,2.3c-0.6,0.5-1,1.1-1.2,1.8s-0.1,1.5,0.2,2.4c0.4,1,0.9,1.7,1.7,2.1c0.7,0.4,1.6,0.5,2.6,0.3
			c0.5-0.1,1.9-0.6,4.3-1.5l4.5-1.7L327,432.8z"/>
		<path style="fill:#FFFFFF;" d="M303.7,438.7c0.6,3.1,0.6,5.8,0.1,8c-0.4,1.7-1.1,3.2-2,4.7c-1,1.5-2.1,2.6-3.4,3.5
			c-1.7,1.2-3.8,2-6.3,2.5c-4.5,0.9-8.3,0.2-11.5-2.1s-5.3-5.8-6.2-10.7c-0.9-4.9-0.4-9,1.8-12.2c2.1-3.3,5.4-5.3,9.8-6.2
			c4.5-0.9,8.3-0.2,11.5,2C300.7,430.3,302.7,433.9,303.7,438.7z M297.4,440.1c-0.7-3.4-2-5.9-3.9-7.3c-1.9-1.5-4.1-2-6.5-1.5
			c-2.4,0.5-4.3,1.7-5.5,3.8c-1.2,2.1-1.5,4.8-0.8,8.3c0.7,3.5,1.9,5.9,3.8,7.3c1.8,1.4,4,1.9,6.5,1.4c2.5-0.5,4.4-1.7,5.6-3.8
			S298.1,443.6,297.4,440.1z"/>
		<path style="fill:#FFFFFF;" d="M268.5,429.3l1.1,30.5l-6.2,0.2l-0.9-25.3l-15.4,0.6l-0.2-5.2L268.5,429.3z"/>
		<path style="fill:#FFFFFF;" d="M244.5,430l-3.2,30.6l-22.7-2.4l0.5-5.2l16.5,1.7l0.7-6.8l-15.4-1.6l0.5-5.2l15.4,1.6l0.9-8.3
			l-17.1-1.8l0.5-5.2L244.5,430z"/>
		<path style="fill:#FFFFFF;" d="M218,427l-7.9,29.8l-6-1.6l3.5-13.2L192,452l-8.1-2.1l14.3-8.6l-7-21.3l7.8,2.1l4.5,16.1l6.2-3.7
			l2.4-9L218,427z"/>
		<path style="fill:#FFFFFF;" d="M177.6,422.7l-2.5,5.3l-10.5-4.9l2.5-5.3L177.6,422.7z"/>
		<path style="fill:#FFFFFF;" d="M162.1,406.1l-3.2,4.6l-24.6,7.3l11.8,8.1l-2.9,4.3l-18.6-12.7l2.7-4l25.6-7.6l-14.4-9.9l2.9-4.3
			L162.1,406.1z"/>
		<path style="fill:#FFFFFF;" d="M119.1,413.3l-9-8.4c-1.8-1.7-3-3-3.8-3.9c-0.7-1-1.2-2-1.5-3.1c-0.3-1.1-0.2-2.3,0-3.5
			c0.3-1.2,0.9-2.3,1.8-3.3c1-1.1,2.2-1.8,3.6-2.1c1.4-0.4,2.8-0.3,4.2,0.2c-1-1.7-1.4-3.3-1.3-5s0.8-3.1,2.1-4.4
			c1-1,2.1-1.8,3.5-2.3s2.7-0.7,4.1-0.5c1.4,0.2,2.7,0.8,4,1.8c0.8,0.6,2.7,2.3,5.6,5l7.7,7.1L119.1,413.3z M118,405.3l4.8-5.2
			l-3-2.8c-1.8-1.6-2.9-2.6-3.4-3c-0.9-0.6-1.7-0.9-2.6-0.9s-1.6,0.4-2.3,1.1c-0.6,0.7-1,1.4-1,2.2s0.3,1.6,1,2.4
			c0.4,0.5,1.7,1.7,3.8,3.7L118,405.3z M126.4,396.3l5.6-6l-4.2-3.9c-1.6-1.5-2.7-2.4-3.2-2.8c-0.8-0.5-1.6-0.7-2.5-0.6
			c-0.9,0.1-1.7,0.5-2.4,1.3c-0.6,0.7-1,1.4-1.1,2.2c-0.1,0.8,0,1.6,0.5,2.4s1.7,2.2,3.7,4.1L126.4,396.3z"/>
		<path style="fill:#FFFFFF;" d="M119.3,370.5l-23.3,20.1l-4.1-4.7l23.3-20.1L119.3,370.5z"/>
		<path style="fill:#FFFFFF;" d="M79.9,373.1l-6.8,1.1l-3.7-5.5l8.4,1.2L79.9,373.1z M100.4,372.5c-2.6,1.8-5,2.9-7.3,3.3
			c-1.7,0.3-3.4,0.3-5.1,0c-1.7-0.3-3.2-0.9-4.5-1.7c-1.7-1.1-3.3-2.7-4.7-4.8c-2.5-3.8-3.4-7.5-2.6-11.4c0.8-3.8,3.3-7.2,7.4-10
			c4.1-2.8,8.1-3.9,11.9-3.2c3.8,0.7,7,2.9,9.6,6.6c2.6,3.8,3.5,7.6,2.7,11.4C106.9,366.5,104.5,369.8,100.4,372.5z M96.7,367.3
			c2.9-2,4.6-4.1,5.2-6.5c0.6-2.3,0.2-4.5-1.2-6.6s-3.3-3.2-5.6-3.5s-5,0.5-8,2.5c-2.9,2-4.7,4.1-5.2,6.4s-0.1,4.4,1.3,6.6
			c1.4,2.1,3.3,3.3,5.7,3.6C91.1,370.2,93.7,369.3,96.7,367.3z"/>
		<path style="fill:#FFFFFF;" d="M95.1,336.9l-28,12.7l-5.4-11.9c-1.4-3-2.1-5.3-2.2-6.9s0.3-3.1,1.2-4.5c0.9-1.4,2.2-2.5,3.9-3.2
			c2.1-1,4.1-1.1,6.1-0.5c1.9,0.6,3.6,2.1,5.1,4.4c0.2-1.5,0.5-2.9,1-4.1s1.5-2.9,3.1-5.3l3.9-5.9l3.1,6.8l-4.2,6.9
			c-1.5,2.4-2.4,4.1-2.8,4.9c-0.3,0.8-0.5,1.5-0.4,2.2c0.1,0.7,0.4,1.7,1,3l0.5,1.1l11.7-5.3L95.1,336.9z M76.4,338.6l-1.9-4.2
			c-1.2-2.7-2.1-4.4-2.7-4.9c-0.5-0.6-1.2-0.9-1.9-1c-0.7-0.1-1.5,0-2.4,0.4c-0.9,0.4-1.6,1-1.9,1.8c-0.4,0.8-0.4,1.6-0.1,2.6
			c0.1,0.5,0.7,1.9,1.8,4.2l2,4.4L76.4,338.6z"/>
		<path style="fill:#FFFFFF;" d="M83.5,310.4l-29.7,8l-1.6-6l13.2-3.6l-16.5-8.6l-2.2-8.1l14.6,8.1l15-16.7l2.1,7.8l-11.7,11.9
			l6.3,3.5l9-2.4L83.5,310.4z"/>
		<path style="fill:#FFFFFF;" d="M73.5,254.9l0.7,6.7l-6.7,3.4l1.2,12.2l7.2,1.8l0.7,6.6l-31.8-8.8l-0.7-6.5L73.5,254.9z
			 M62.6,267.5l-10.9,5.4l11.8,3L62.6,267.5z"/>
		<path style="fill:#FFFFFF;" d="M73.9,244.8l-30.6-3.3l1.4-13c0.4-3.3,0.9-5.6,1.6-7c0.7-1.4,1.8-2.5,3.3-3.2c1.5-0.7,3.2-1,5-0.8
			c2.3,0.2,4.1,1.1,5.5,2.6c1.3,1.5,2.1,3.6,2.2,6.4c0.9-1.3,1.9-2.3,2.9-3c1-0.8,2.8-1.8,5.3-3l6.4-3.1l-0.8,7.4l-7.1,3.7
			c-2.6,1.3-4.2,2.3-4.9,2.8c-0.7,0.5-1.2,1.1-1.5,1.7c-0.3,0.6-0.5,1.7-0.7,3.1l-0.1,1.3l12.8,1.4L73.9,244.8z M56.9,236.7l0.5-4.6
			c0.3-3,0.4-4.8,0.2-5.6c-0.2-0.8-0.5-1.4-1.1-1.9c-0.6-0.5-1.3-0.8-2.2-0.9c-1-0.1-1.9,0.1-2.6,0.6c-0.7,0.5-1.2,1.2-1.5,2.2
			c-0.1,0.5-0.3,2-0.6,4.5l-0.5,4.8L56.9,236.7z"/>
		<path style="fill:#FFFFFF;" d="M62.3,213.2c-3-0.9-5.4-2-7.2-3.5c-1.3-1.1-2.4-2.4-3.3-3.9c-0.9-1.5-1.4-3-1.6-4.6
			c-0.3-2.1,0-4.3,0.6-6.7c1.2-4.4,3.6-7.5,7-9.3c3.5-1.8,7.6-2.1,12.4-0.7c4.8,1.4,8.2,3.7,10.1,7.1c2,3.4,2.3,7.2,1.1,11.6
			c-1.3,4.4-3.6,7.5-7,9.4C71,214.3,67,214.6,62.3,213.2z M63.8,207c3.4,1,6.1,0.9,8.3-0.2c2.2-1.1,3.6-2.8,4.3-5.2
			c0.7-2.4,0.4-4.6-0.9-6.6c-1.3-2-3.6-3.5-7.1-4.5c-3.4-1-6.1-0.9-8.2,0.1c-2.1,1-3.5,2.8-4.2,5.2c-0.7,2.5-0.4,4.7,0.8,6.7
			S60.4,206,63.8,207z"/>
		<path style="fill:#FFFFFF;" d="M86.4,186.1l-27.7-12.9l2.6-5.6l23,10.7l6.5-14l4.7,2.2L86.4,186.1z"/>
		<path style="fill:#FFFFFF;" d="M96.7,164.4L71,147.6l12.5-19.1l4.4,2.8l-9.1,13.9l5.7,3.7l8.4-12.9l4.3,2.8l-8.4,12.9l7,4.6
			l9.4-14.4l4.3,2.8L96.7,164.4z"/>
		<path style="fill:#FFFFFF;" d="M111.5,142.3l-22.9-20.6l4.2-4.6l10.2,9.1l-1.8-18.5l5.6-6.2l1.1,16.6l22.1,3.5l-5.4,6l-16.4-3.4
			l0.4,7.2l6.9,6.2L111.5,142.3z"/>
		<path style="fill:#FFFFFF;" d="M133.8,108.2l-3.6-4.6l9.1-7.1l3.6,4.6L133.8,108.2z"/>
	</g>
</g>
</svg>
