<?xml version="1.0" encoding="iso-8859-1"?>
<!-- Generator: Adobe Illustrator 16.0.0, SVG Export Plug-In . SVG Version: 6.00 Build 0)  -->
<!DOCTYPE svg PUBLIC "-//W3C//DTD SVG 1.1//EN" "http://www.w3.org/Graphics/SVG/1.1/DTD/svg11.dtd" [
	<!ENTITY ns_flows "http://ns.adobe.com/Flows/1.0/">
	<!ENTITY ns_extend "http://ns.adobe.com/Extensibility/1.0/">
	<!ENTITY ns_ai "http://ns.adobe.com/AdobeIllustrator/10.0/">
	<!ENTITY ns_graphs "http://ns.adobe.com/Graphs/1.0/">
]>
<svg version="1.1" xmlns:x="&ns_extend;" xmlns:i="&ns_ai;" xmlns:graph="&ns_graphs;"
	 xmlns="http://www.w3.org/2000/svg" xmlns:xlink="http://www.w3.org/1999/xlink" xmlns:a="http://ns.adobe.com/AdobeSVGViewerExtensions/3.0/"
	 x="0px" y="0px" width="504px" height="504px" viewBox="0 0 504 504" style="enable-background:new 0 0 504 504;"
	 xml:space="preserve">
<g id="Warstwa_1" xmlns:svg="http://www.w3.org/2000/svg">
	<g>
		<title>Szprychy</title>
		<polygon id="svg_19" style="fill:none;stroke:#000000;stroke-width:30;" points="252,97 289,201 399,203 311,270 343,376 252,312 
			162,376 194,270 106,203 216,201 252,97 289,201 		"/>
		
			<radialGradient id="svg_3_1_" cx="-143.6418" cy="534.9036" r="0.5" gradientTransform="matrix(470 0 0 -470 67763.6172 251656.6094)" gradientUnits="userSpaceOnUse">
			<stop  offset="0.9401" style="stop-color:#0000FF"/>
			<stop  offset="1" style="stop-color:#6E00FF;stop-opacity:0.9609"/>
			<a:midPointStop  offset="0.9401" style="stop-color:#0000FF"/>
			<a:midPointStop  offset="0.5" style="stop-color:#0000FF"/>
			<a:midPointStop  offset="1" style="stop-color:#6E00FF;stop-opacity:0.9609"/>
		</radialGradient>
		<circle id="svg_3" style="fill:none;stroke:url(#svg_3_1_);stroke-width:33;" cx="252" cy="252" r="235"/>
		<circle id="svg_4" style="fill:none;stroke:#4C4C4C;stroke-width:12;" cx="252" cy="252" r="33"/>
		<circle id="svg_5" style="fill:none;stroke:#7F7F00;stroke-width:21;" cx="252" cy="252" r="50"/>
		<circle id="svg_7" style="fill:none;stroke:#999999;stroke-width:8;" cx="252" cy="252" r="64"/>
		<circle id="svg_8" style="fill:none;stroke:#0000FF;stroke-width:99;" cx="252" cy="252" r="170"/>
		<circle id="svg_1" style="fill:none;stroke:#000000;stroke-width:15;" cx="252" cy="252" r="75"/>
		<circle id="svg_2" style="fill:none;stroke:#000000;stroke-width:15;" cx="252" cy="252" r="125"/>
	</g>
</g>
<g id="Warstwa_2">
	<g>
		<path style="fill:#FFFFFF;" d="M167.3,95l-19.5-25.3l5.8-2.6l13,17.5l-3.6-21.8l6.8-3.1l13.8,17.5l-4.5-21.7L185,53l5.9,31.4
			l-6.1,2.7l-15.1-18.6l3.9,23.7L167.3,95z"/>
		<path style="fill:#FFFFFF;" d="M224.7,75.6l-6.6,1.6l-4.3-6.2l-12,2.9l-0.8,7.5l-6.5,1.6l4.4-33l6.4-1.6L224.7,75.6z M210.6,66.4
			l-6.9-10.2l-1.4,12.2L210.6,66.4z"/>
		<path style="fill:#FFFFFF;" d="M226.8,75.5l-2.2-30.9l13.1-0.9c3.3-0.2,5.7-0.1,7.3,0.3c1.5,0.5,2.8,1.4,3.8,2.7
			c1,1.4,1.6,3,1.7,4.8c0.2,2.3-0.4,4.3-1.6,5.9c-1.3,1.6-3.2,2.7-5.9,3.3c1.4,0.7,2.6,1.5,3.5,2.4c0.9,0.9,2.2,2.5,3.9,4.8l4.2,5.8
			l-7.5,0.5l-5-6.4c-1.8-2.3-3-3.7-3.6-4.3c-0.6-0.6-1.3-1-2-1.2c-0.7-0.2-1.7-0.2-3.2-0.1l-1.3,0.1l0.9,12.9L226.8,75.5z
			 M231.8,57.2l4.6-0.3c3-0.2,4.9-0.5,5.6-0.8s1.3-0.8,1.7-1.4c0.4-0.6,0.5-1.4,0.5-2.4c-0.1-1-0.4-1.9-1-2.5c-0.6-0.6-1.4-1-2.4-1
			c-0.5,0-2,0-4.6,0.2l-4.9,0.3L231.8,57.2z"/>
		<path style="fill:#FFFFFF;" d="M256.2,63.7l6.1,0c0.2,2.1,0.8,3.6,1.8,4.7c1,1.1,2.5,1.7,4.4,1.8c2,0.2,3.6-0.1,4.7-0.9
			s1.7-1.7,1.8-2.8c0.1-0.7-0.1-1.4-0.5-1.9s-1.1-1.1-2.1-1.5c-0.7-0.3-2.3-0.9-4.9-1.8c-3.3-1.1-5.5-2.4-6.8-3.7
			c-1.7-1.9-2.5-4-2.3-6.5c0.1-1.6,0.7-3,1.7-4.3s2.4-2.2,4.1-2.8s3.8-0.7,6.2-0.5c3.9,0.3,6.7,1.5,8.5,3.3s2.6,4.2,2.5,7.1
			l-6.3-0.3c-0.1-1.6-0.6-2.8-1.4-3.6c-0.8-0.8-2.1-1.2-3.9-1.4c-1.8-0.2-3.3,0.1-4.4,0.7c-0.7,0.4-1.1,1-1.2,1.8
			c-0.1,0.7,0.2,1.4,0.8,2c0.7,0.7,2.6,1.6,5.5,2.6c3,1,5.1,1.9,6.5,2.8c1.4,0.9,2.4,2,3.1,3.4s1,3.1,0.8,5
			c-0.2,1.8-0.8,3.4-1.9,4.8c-1.1,1.5-2.6,2.5-4.5,3.1c-1.9,0.6-4.1,0.8-6.8,0.5c-3.9-0.3-6.8-1.5-8.8-3.5
			C257.3,69.9,256.3,67.2,256.2,63.7z"/>
		<path style="fill:#FFFFFF;" d="M282,76.2l1.3-5.5L303.9,55l-14-3.4l1.2-5.1l22.1,5.4l-1.2,4.7l-21.5,16.3l17.1,4.2l-1.2,5.1
			L282,76.2z"/>
		<path style="fill:#FFFFFF;" d="M315.7,85.8l9.6-23.9l-8.5-3.4l2-4.9l22.9,9.2l-2,4.9l-8.5-3.4l-9.6,23.9L315.7,85.8z"/>
		<path style="fill:#FFFFFF;" d="M354.1,105.5l-5.9-3.4l1.2-7.5l-10.7-6.2l-5.7,4.8l-5.8-3.3l26-20.8l5.7,3.3L354.1,105.5z
			 M350.2,89.1l2.1-12.1l-9.4,7.9L350.2,89.1z"/>
		<path style="fill:#FFFFFF;" d="M358.6,109.6l15.8-20.3l-7.3-5.7l3.2-4.1l19.4,15.2l-3.2,4.1l-7.2-5.6l-15.8,20.3L358.6,109.6z"/>
		<path style="fill:#FFFFFF;" d="M378.6,127.1l9.4-9l5.2-20.6l5.1,5.3l-3.8,13.8l13.8-3.3l5,5.2l-20.9,4.2l-9.4,9L378.6,127.1z"/>
		<path style="fill:#FFFFFF;" d="M404.7,159.9l27.6-14.2l6,11.7c1.5,2.9,2.4,5.2,2.6,6.8c0.2,1.6-0.1,3.1-1,4.6
			c-0.9,1.5-2.1,2.6-3.7,3.4c-2.1,1.1-4.1,1.3-6.1,0.8c-2-0.5-3.8-1.9-5.4-4.2c-0.1,1.6-0.3,3-0.8,4.2c-0.4,1.2-1.4,3-2.9,5.5
			l-3.7,6.1L414,178l3.9-7.1c1.4-2.5,2.3-4.2,2.6-5s0.4-1.6,0.3-2.3c-0.1-0.7-0.5-1.7-1.1-3l-0.6-1.1l-11.5,5.9L404.7,159.9z
			 M423.5,157.3l2.1,4.1c1.4,2.7,2.3,4.3,2.9,4.8c0.6,0.5,1.2,0.9,2,1c0.7,0.1,1.5-0.1,2.4-0.5c0.9-0.5,1.6-1.1,1.9-1.9
			c0.3-0.8,0.3-1.7,0-2.7c-0.2-0.5-0.8-1.9-2-4.1l-2.2-4.3L423.5,157.3z"/>
		<path style="fill:#FFFFFF;" d="M432.4,181c3-0.9,5.7-1.2,8-1c1.7,0.2,3.4,0.7,4.9,1.5c1.6,0.8,2.8,1.8,3.8,3
			c1.3,1.6,2.4,3.6,3.1,6c1.3,4.4,1,8.3-0.9,11.7c-1.9,3.5-5.3,5.9-10.1,7.4c-4.8,1.5-8.9,1.3-12.4-0.5s-5.9-4.8-7.2-9.2
			c-1.3-4.4-1.1-8.3,0.8-11.8C424.3,184.9,427.7,182.5,432.4,181z M434.5,187.2c-3.4,1-5.7,2.6-6.9,4.7s-1.5,4.3-0.8,6.7
			c0.7,2.4,2.2,4.1,4.4,5.1c2.2,1,5,1,8.4-0.1c3.4-1,5.7-2.6,6.9-4.6s1.4-4.2,0.7-6.7c-0.8-2.5-2.2-4.2-4.4-5.2
			C440.7,186.1,437.9,186.1,434.5,187.2z"/>
		<path style="fill:#FFFFFF;" d="M426.9,218.2l30.5-4.1l0.8,6.2l-25.3,3.4l2.1,15.4l-5.2,0.7L426.9,218.2z"/>
		<path style="fill:#FFFFFF;" d="M430,243.3l31,0.6l-0.1,6.3l-13.8-0.3l13.5,12.9l-0.2,8.4l-11.8-11.9l-19.2,11.9l0.2-8.1l14.7-8.2
			l-5.1-5.2l-9.4-0.2L430,243.3z"/>
		<path style="fill:#FFFFFF;" d="M444.4,275c3.1,0.6,5.6,1.6,7.5,2.9c1.4,1,2.6,2.2,3.6,3.7c1,1.4,1.7,2.9,2,4.5
			c0.4,2.1,0.4,4.3-0.1,6.8c-0.9,4.5-3,7.8-6.3,9.9c-3.3,2.1-7.4,2.7-12.4,1.8c-4.9-1-8.5-3.1-10.7-6.3c-2.3-3.2-2.9-7.1-2.1-11.5
			c0.9-4.5,3-7.9,6.3-10C435.5,274.6,439.5,274,444.4,275z M443.4,281.3c-3.4-0.7-6.2-0.4-8.3,0.8s-3.4,3.1-3.9,5.5
			c-0.5,2.4,0,4.6,1.5,6.6s3.9,3.2,7.5,3.9c3.5,0.7,6.2,0.4,8.3-0.8c2-1.2,3.3-3.1,3.8-5.6c0.5-2.5,0-4.7-1.4-6.6
			C449.3,283.3,446.9,282,443.4,281.3z"/>
		<path style="fill:#FFFFFF;" d="M421,309l31.5,5.2l-2.5,5.9l-21.5-3.9l17.4,13.5l-2.9,6.9l-22.1-3.4l18.1,12.8l-2.4,5.8l-25.7-19
			l2.6-6.1l23.8,3.3l-19-14.7L421,309z"/>
		<path style="fill:#FFFFFF;" d="M406.5,340.9l25.8,17.2l-12.8,19.1l-4.4-2.9l9.3-13.9l-5.7-3.8l-8.6,13l-4.3-2.9l8.6-13l-7-4.7
			l-9.6,14.4l-4.3-2.9L406.5,340.9z"/>
		<path style="fill:#FFFFFF;" d="M376.6,390.3l3.9,4.5l-8.9,7.6l-3.9-4.5L376.6,390.3z"/>
		<path style="fill:#FFFFFF;" d="M334.9,410l19.2,25.5l-5.9,2.6l-12.8-17.7l3.3,21.8l-6.8,3l-13.6-17.7l4.3,21.8l-5.8,2.5l-5.5-31.4
			l6.1-2.7l14.9,18.8l-3.6-23.7L334.9,410z"/>
		<path style="fill:#FFFFFF;" d="M277.3,428.7l6.6-1.5l4.2,6.3l12.1-2.8l0.9-7.4l6.5-1.5l-4.8,32.9l-6.5,1.5L277.3,428.7z
			 M291.3,438.1l6.8,10.3l1.5-12.2L291.3,438.1z"/>
		<path style="fill:#FFFFFF;" d="M275.2,428.8l1.8,31l-13.2,0.8c-3.3,0.2-5.7,0.1-7.3-0.4s-2.8-1.4-3.8-2.8c-1-1.4-1.5-3-1.6-4.8
			c-0.1-2.3,0.4-4.3,1.7-5.9c1.3-1.6,3.3-2.7,6-3.2c-1.4-0.7-2.6-1.5-3.5-2.4s-2.2-2.5-3.9-4.8l-4.1-5.8l7.5-0.4l4.9,6.5
			c1.7,2.3,2.9,3.8,3.6,4.4c0.6,0.6,1.3,1,2,1.2s1.7,0.2,3.2,0.2l1.3-0.1l-0.8-12.9L275.2,428.8z M270,447l-4.6,0.3
			c-3,0.2-4.9,0.4-5.6,0.7c-0.7,0.3-1.3,0.8-1.7,1.4s-0.6,1.4-0.5,2.4c0.1,1,0.4,1.9,1,2.5c0.6,0.6,1.4,1,2.4,1.1c0.5,0,2,0,4.6-0.2
			l4.9-0.3L270,447z"/>
		<path style="fill:#FFFFFF;" d="M245.6,440.3l-6.1,0c-0.2-2.1-0.7-3.6-1.8-4.7c-1-1.1-2.5-1.7-4.4-1.9c-2-0.2-3.6,0.1-4.7,0.8
			c-1.1,0.7-1.7,1.7-1.8,2.8c-0.1,0.7,0.1,1.4,0.5,1.9s1.1,1.1,2.1,1.6c0.7,0.3,2.3,0.9,4.9,1.9c3.3,1.2,5.5,2.4,6.7,3.8
			c1.7,1.9,2.5,4.1,2.2,6.5c-0.2,1.6-0.8,3-1.8,4.3c-1,1.3-2.4,2.2-4.2,2.7c-1.7,0.5-3.8,0.7-6.2,0.5c-3.9-0.4-6.7-1.5-8.5-3.4
			c-1.8-1.9-2.6-4.3-2.4-7.1l6.3,0.4c0.1,1.6,0.6,2.8,1.4,3.6s2.1,1.3,3.8,1.4c1.8,0.2,3.3,0,4.4-0.7c0.7-0.4,1.1-1,1.2-1.8
			c0.1-0.7-0.2-1.4-0.7-2c-0.7-0.7-2.6-1.6-5.5-2.6s-5.1-2-6.5-2.9c-1.4-0.9-2.4-2.1-3.1-3.5c-0.7-1.4-0.9-3.1-0.7-5
			c0.2-1.8,0.8-3.4,2-4.8c1.1-1.4,2.6-2.5,4.5-3c1.9-0.6,4.1-0.7,6.8-0.4c3.9,0.4,6.8,1.6,8.7,3.6
			C244.6,434,245.6,436.8,245.6,440.3z"/>
		<path style="fill:#FFFFFF;" d="M220,427.5l-1.4,5.5l-20.8,15.5l14,3.6l-1.3,5.1l-22-5.6l1.2-4.7l21.6-16.1l-17.1-4.4l1.3-5.1
			L220,427.5z"/>
		<path style="fill:#FFFFFF;" d="M186.5,417.4l-9.9,23.8l8.5,3.5l-2,4.8l-22.8-9.5l2-4.8l8.5,3.5l9.9-23.8L186.5,417.4z"/>
		<path style="fill:#FFFFFF;" d="M148.3,397.3l5.9,3.5l-1.3,7.4l10.7,6.3l5.8-4.8l5.7,3.4l-26.2,20.5l-5.7-3.4L148.3,397.3z
			 M152,413.8l-2.2,12.1l9.5-7.8L152,413.8z"/>
		<path style="fill:#FFFFFF;" d="M143.8,393.2l-16.1,20.1l7.2,5.7l-3.3,4.1l-19.3-15.4l3.3-4.1l7.2,5.7l16.1-20.1L143.8,393.2z"/>
		<path style="fill:#FFFFFF;" d="M124,375.5l-9.5,8.9l-5.4,20.6l-5-5.4l4-13.7L94.2,389l-4.9-5.3l20.9-3.9l9.5-8.9L124,375.5z"/>
		<path style="fill:#FFFFFF;" d="M98.3,342.4l-27.8,13.8l-5.9-11.8c-1.5-3-2.3-5.2-2.5-6.8c-0.2-1.6,0.2-3.1,1.1-4.6
			c0.9-1.4,2.1-2.6,3.8-3.4c2.1-1,4.1-1.3,6.1-0.7c2,0.5,3.7,2,5.3,4.2c0.1-1.6,0.4-3,0.8-4.2c0.5-1.2,1.4-3,2.9-5.4l3.7-6.1
			l3.3,6.7l-4,7.1c-1.4,2.5-2.3,4.2-2.6,5c-0.3,0.8-0.4,1.6-0.3,2.3s0.5,1.7,1.1,3l0.6,1.1l11.6-5.8L98.3,342.4z M79.4,344.8
			l-2.1-4.1c-1.3-2.7-2.3-4.3-2.9-4.9c-0.6-0.6-1.2-0.9-2-1c-0.7-0.1-1.5,0.1-2.4,0.5c-0.9,0.5-1.6,1.1-1.9,1.9
			c-0.3,0.8-0.3,1.7,0,2.7c0.2,0.5,0.8,1.9,1.9,4.1l2.2,4.4L79.4,344.8z"/>
		<path style="fill:#FFFFFF;" d="M70.8,320.9c-3,0.9-5.7,1.2-8,0.9c-1.7-0.2-3.3-0.8-4.9-1.6c-1.5-0.8-2.8-1.8-3.8-3.1
			c-1.3-1.6-2.3-3.6-3.1-6.1c-1.3-4.4-1-8.3,1-11.7c2-3.4,5.3-5.9,10.2-7.3c4.8-1.4,8.9-1.2,12.4,0.6c3.5,1.8,5.9,4.9,7.1,9.3
			c1.3,4.4,1,8.3-1,11.7C78.9,317.1,75.6,319.5,70.8,320.9z M68.8,314.8c3.4-1,5.7-2.5,7-4.6c1.3-2.1,1.6-4.3,0.9-6.7
			s-2.1-4.1-4.3-5.1c-2.2-1-5-1-8.4,0c-3.4,1-5.7,2.5-7,4.5c-1.2,2-1.5,4.2-0.8,6.7c0.7,2.5,2.2,4.2,4.3,5.2
			C62.6,315.8,65.4,315.8,68.8,314.8z"/>
		<path style="fill:#FFFFFF;" d="M76.7,283.8l-30.5,3.7l-0.8-6.2l25.4-3.1l-1.9-15.5l5.2-0.6L76.7,283.8z"/>
		<path style="fill:#FFFFFF;" d="M73.9,258.7l-31-1l0.2-6.3l13.8,0.4l-13.4-13.1l0.3-8.4l11.7,12.1l19.3-11.7l-0.3,8.1l-14.8,8.1
			l5,5.2l9.4,0.3L73.9,258.7z"/>
		<path style="fill:#FFFFFF;" d="M59.9,226.9c-3.1-0.6-5.6-1.6-7.5-3c-1.4-1-2.6-2.2-3.6-3.7c-1-1.5-1.6-2.9-1.9-4.5
			c-0.4-2.1-0.4-4.3,0.2-6.8c0.9-4.5,3.1-7.8,6.4-9.9c3.3-2.1,7.5-2.6,12.4-1.6c4.9,1,8.5,3.2,10.7,6.4c2.2,3.2,2.9,7.1,1.9,11.6
			c-0.9,4.5-3.1,7.8-6.4,9.9C68.8,227.3,64.7,227.9,59.9,226.9z M61,220.5c3.4,0.7,6.2,0.5,8.3-0.8c2.1-1.2,3.4-3,3.9-5.5
			c0.5-2.4,0-4.6-1.4-6.6c-1.4-1.9-3.9-3.3-7.4-4c-3.5-0.7-6.2-0.5-8.3,0.7s-3.3,3-3.8,5.5c-0.5,2.5-0.1,4.7,1.3,6.7
			C55,218.5,57.5,219.8,61,220.5z"/>
		<path style="fill:#FFFFFF;" d="M83.6,193.1l-31.4-5.5l2.6-5.9l21.4,4.2l-17.3-13.7l3-6.8l22,3.6l-18-13l2.5-5.8l25.5,19.2
			l-2.6,6.1L67.5,172l18.8,14.9L83.6,193.1z"/>
		<path style="fill:#FFFFFF;" d="M98.5,161.3l-25.6-17.5l13-19l4.3,3l-9.4,13.8l5.7,3.9l8.8-12.9l4.3,2.9l-8.8,12.9l7,4.8l9.8-14.3
			l4.3,2.9L98.5,161.3z"/>
		<path style="fill:#FFFFFF;" d="M124.8,116.1l-4-4.4l8.7-7.8l4,4.4L124.8,116.1z"/>
	</g>
</g>
</svg>
