<?xml version="1.0" encoding="iso-8859-1"?>
<!-- Generator: Adobe Illustrator 16.0.0, SVG Export Plug-In . SVG Version: 6.00 Build 0)  -->
<!DOCTYPE svg PUBLIC "-//W3C//DTD SVG 1.1//EN" "http://www.w3.org/Graphics/SVG/1.1/DTD/svg11.dtd" [
	<!ENTITY ns_flows "http://ns.adobe.com/Flows/1.0/">
	<!ENTITY ns_extend "http://ns.adobe.com/Extensibility/1.0/">
	<!ENTITY ns_ai "http://ns.adobe.com/AdobeIllustrator/10.0/">
	<!ENTITY ns_graphs "http://ns.adobe.com/Graphs/1.0/">
]>
<svg version="1.1" xmlns:x="&ns_extend;" xmlns:i="&ns_ai;" xmlns:graph="&ns_graphs;"
	 xmlns="http://www.w3.org/2000/svg" xmlns:xlink="http://www.w3.org/1999/xlink" xmlns:a="http://ns.adobe.com/AdobeSVGViewerExtensions/3.0/"
	 x="0px" y="0px" width="504px" height="504px" viewBox="0 0 504 504" style="enable-background:new 0 0 504 504;"
	 xml:space="preserve">
<g id="Warstwa_1" xmlns:svg="http://www.w3.org/2000/svg">
	<g>
		<title>Szprychy</title>
		<polygon id="svg_19" style="fill:none;stroke:#000000;stroke-width:36.8504;" points="252,99 289,203 399,205 311,272 343,378 
			252,314 162,378 194,272 106,205 216,203 252,99 289,203 		"/>
		<g>
			<defs>
				<path id="SVGID_1_" d="M135,415.6l41.7-138L62.6,190.8l142.7-2.6l46.6-134.5l47.8,134.5l142.8,2.6l-114.1,86.8l41.6,137.6
					L252,332.4L135,415.6z M252,295.6l64.1,45.1l-22.4-74.4l61.9-47.2l-77.2-1.4l-26.2-73.5l-25.4,73.5l-77.3,1.4l61.9,47.2
					l-22.3,74L252,295.6z"/>
			</defs>
			<clipPath id="SVGID_2_">
				<use xlink:href="#SVGID_1_"  style="overflow:visible;"/>
			</clipPath>
			<radialGradient id="SVGID_3_" cx="251.9998" cy="251.9998" r="108.2693" gradientUnits="userSpaceOnUse">
				<stop  offset="0.8416" style="stop-color:#000000;stop-opacity:0.2"/>
				<stop  offset="0.8441" style="stop-color:#101111;stop-opacity:0.2469"/>
				<stop  offset="0.8477" style="stop-color:#202222;stop-opacity:0.3151"/>
				<stop  offset="0.8522" style="stop-color:#2B2D2D;stop-opacity:0.4"/>
				<stop  offset="0.8586" style="stop-color:#313434;stop-opacity:0.5192"/>
				<stop  offset="0.8762" style="stop-color:#333636;stop-opacity:0.85"/>
				<stop  offset="0.8849" style="stop-color:#444646;stop-opacity:0.8829"/>
				<stop  offset="0.9158" style="stop-color:#7C7C7C"/>
				<stop  offset="0.9505" style="stop-color:#333636;stop-opacity:0.9"/>
				<stop  offset="0.966" style="stop-color:#303333;stop-opacity:0.6801"/>
				<stop  offset="0.9782" style="stop-color:#272929;stop-opacity:0.508"/>
				<stop  offset="0.9892" style="stop-color:#171919;stop-opacity:0.3525"/>
				<stop  offset="0.9995" style="stop-color:#010101;stop-opacity:0.2068"/>
				<stop  offset="1" style="stop-color:#000000;stop-opacity:0.2"/>
				<a:midPointStop  offset="0.8416" style="stop-color:#000000;stop-opacity:0.2"/>
				<a:midPointStop  offset="0.13" style="stop-color:#000000;stop-opacity:0.2"/>
				<a:midPointStop  offset="0.8762" style="stop-color:#333636;stop-opacity:0.85"/>
				<a:midPointStop  offset="0.4834" style="stop-color:#333636;stop-opacity:0.85"/>
				<a:midPointStop  offset="0.9158" style="stop-color:#7C7C7C"/>
				<a:midPointStop  offset="0.5" style="stop-color:#7C7C7C"/>
				<a:midPointStop  offset="0.9505" style="stop-color:#333636;stop-opacity:0.9"/>
				<a:midPointStop  offset="0.7546" style="stop-color:#333636;stop-opacity:0.9"/>
				<a:midPointStop  offset="1" style="stop-color:#000000;stop-opacity:0.2"/>
			</radialGradient>
			<path style="clip-path:url(#SVGID_2_);fill:url(#SVGID_3_);" d="M252,360.3c-59.7,0-108.3-48.6-108.3-108.3
				c0-59.7,48.6-108.3,108.3-108.3c59.7,0,108.3,48.6,108.3,108.3C360.3,311.7,311.7,360.3,252,360.3z M252,163.7
				c-48.7,0-88.3,39.6-88.3,88.3c0,48.7,39.6,88.3,88.3,88.3c48.7,0,88.3-39.6,88.3-88.3C340.3,203.3,300.7,163.7,252,163.7z"/>
		</g>
		
			<radialGradient id="svg_3_1_" cx="-143.6418" cy="534.9036" r="0.5" gradientTransform="matrix(470 0 0 -470 67763.6172 251656.6094)" gradientUnits="userSpaceOnUse">
			<stop  offset="0.9401" style="stop-color:#0000BD"/>
			<stop  offset="1" style="stop-color:#000084;stop-opacity:0.9609"/>
			<a:midPointStop  offset="0.9401" style="stop-color:#0000BD"/>
			<a:midPointStop  offset="0.5" style="stop-color:#0000BD"/>
			<a:midPointStop  offset="1" style="stop-color:#000084;stop-opacity:0.9609"/>
		</radialGradient>
		<circle id="svg_3" style="fill:none;stroke:url(#svg_3_1_);stroke-width:33;" cx="252" cy="252" r="235"/>
		<circle id="svg_5" style="fill:none;stroke:#7F7F00;stroke-width:22.6772;" cx="252" cy="252" r="49.6"/>
		<circle id="svg_4" style="fill:none;stroke:#4C4C4C;stroke-width:12;" cx="252" cy="252" r="33"/>
		<circle id="svg_7" style="fill:none;stroke:#999999;stroke-width:8;" cx="252" cy="252" r="64"/>
		<radialGradient id="svg_8_1_" cx="251.9998" cy="252.0002" r="219.5" gradientUnits="userSpaceOnUse">
			<stop  offset="0.1139" style="stop-color:#0000FF"/>
			<stop  offset="0.8911" style="stop-color:#0000FF"/>
			<stop  offset="0.9401" style="stop-color:#0000FF"/>
			<stop  offset="1" style="stop-color:#0000BE;stop-opacity:0.9609"/>
			<a:midPointStop  offset="0.1139" style="stop-color:#0000FF"/>
			<a:midPointStop  offset="0.5" style="stop-color:#0000FF"/>
			<a:midPointStop  offset="0.8911" style="stop-color:#0000FF"/>
			<a:midPointStop  offset="0.5" style="stop-color:#0000FF"/>
			<a:midPointStop  offset="0.9401" style="stop-color:#0000FF"/>
			<a:midPointStop  offset="0.5" style="stop-color:#0000FF"/>
			<a:midPointStop  offset="1" style="stop-color:#0000BE;stop-opacity:0.9609"/>
		</radialGradient>
		<circle id="svg_8" style="fill:none;stroke:url(#svg_8_1_);stroke-width:99;" cx="252" cy="252" r="170"/>
		<circle id="svg_1" style="fill:none;stroke:#000000;stroke-width:15;" cx="252" cy="252" r="75"/>
		<circle id="svg_2" style="fill:none;stroke:#000000;stroke-width:15;" cx="252" cy="252" r="125"/>
	</g>
</g>
<g id="NAZWA">
	<g>
		<path style="fill:none;" d="M126.3,126.3c33.6-33.6,78.2-52.1,125.7-52.1c47.5,0,92.2,18.5,125.7,52.1
			c33.6,33.6,52.1,78.2,52.1,125.7c0,47.5-18.5,92.2-52.1,125.7c-33.6,33.6-78.2,52.1-125.7,52.1c-47.5,0-92.2-18.5-125.7-52.1
			C92.7,344.2,74.2,299.5,74.2,252C74.2,204.5,92.7,159.8,126.3,126.3z"/>
		<path style="fill:#FFFFFF;" d="M157.9,88.8l5.2-3.2c1.2,1.7,2.6,2.7,4,3.1c1.4,0.4,3,0.1,4.7-0.7c1.8-0.9,3-1.9,3.5-3.2
			s0.6-2.3,0.1-3.4c-0.3-0.7-0.8-1.1-1.4-1.4c-0.6-0.3-1.5-0.3-2.6-0.2c-0.8,0.1-2.5,0.4-5.1,1c-3.4,0.7-5.9,0.8-7.7,0.4
			c-2.5-0.7-4.2-2.1-5.3-4.3c-0.7-1.4-0.9-2.9-0.7-4.6c0.2-1.6,0.9-3.1,2.1-4.5c1.2-1.4,2.9-2.6,5-3.7c3.5-1.7,6.5-2.2,9-1.6
			c2.5,0.7,4.4,2.3,5.8,4.8l-5.5,3c-0.9-1.3-2-2.1-3.1-2.3c-1.1-0.2-2.4,0-4,0.8c-1.6,0.8-2.7,1.8-3.3,2.9c-0.4,0.7-0.4,1.4,0,2.2
			c0.3,0.7,0.9,1.1,1.7,1.3c1,0.2,3,0,6.1-0.7c3.1-0.7,5.4-1,7.1-1c1.6,0,3.1,0.5,4.5,1.3c1.3,0.8,2.4,2.1,3.3,3.9
			c0.8,1.6,1.1,3.3,0.9,5.1c-0.2,1.8-1,3.5-2.2,4.9s-3.1,2.8-5.6,4c-3.5,1.7-6.6,2.2-9.3,1.5S159.8,91.7,157.9,88.8z"/>
		<path style="fill:#FFFFFF;" d="M195.6,83.2l-7.7-24.6l-8.8,2.8l-1.6-5L201,49l1.6,5l-8.8,2.8l7.7,24.6L195.6,83.2z"/>
		<path style="fill:#FFFFFF;" d="M237.7,74.1l-6.7,1.1l-3.8-6.5l-12.2,2l-1.4,7.4l-6.6,1.1l6.8-32.6l6.5-1.1L237.7,74.1z
			 M224.3,63.8l-6.1-10.7l-2.2,12L224.3,63.8z"/>
		<path style="fill:#FFFFFF;" d="M239.9,74.1l0.2-31l13.2,0.1c3.3,0,5.7,0.3,7.2,0.9s2.7,1.6,3.6,3c0.9,1.4,1.3,3.1,1.3,4.9
			c0,2.3-0.7,4.2-2.1,5.8c-1.4,1.5-3.4,2.4-6.2,2.8c1.3,0.8,2.5,1.7,3.3,2.6c0.9,1,2,2.6,3.5,5.1l3.7,6.1l-7.5-0.1l-4.5-6.8
			c-1.6-2.4-2.7-4-3.3-4.6s-1.2-1.1-1.9-1.3c-0.7-0.2-1.7-0.4-3.1-0.4l-1.3,0l-0.1,12.9L239.9,74.1z M246.3,56.2l4.6,0
			c3,0,4.9-0.1,5.6-0.3c0.8-0.2,1.3-0.7,1.8-1.3c0.4-0.6,0.6-1.4,0.7-2.3c0-1-0.3-1.9-0.8-2.5s-1.3-1.1-2.3-1.2
			c-0.5-0.1-2-0.1-4.6-0.1l-4.9,0L246.3,56.2z"/>
		<path style="fill:#FFFFFF;" d="M277,75.9l4-25.5l-9.1-1.4l0.8-5.2l24.4,3.8l-0.8,5.2l-9.1-1.4l-4,25.5L277,75.9z"/>
		<path style="fill:#FFFFFF;" d="M330.9,83.3l2.7-5.3l10.4,5.2l-2.7,5.3L330.9,83.3z"/>
		<path style="fill:#FFFFFF;" d="M374.3,108.8l4.8,3.8c-1.2,1.7-1.7,3.3-1.6,4.8c0.1,1.5,0.9,2.9,2.2,4.2c1.4,1.4,2.8,2.2,4.2,2.3
			c1.3,0.1,2.4-0.2,3.2-1.1c0.5-0.5,0.8-1.1,0.8-1.8c0.1-0.7-0.2-1.5-0.7-2.5c-0.3-0.7-1.2-2.2-2.6-4.5c-1.8-2.9-2.8-5.3-2.9-7.1
			c-0.2-2.6,0.6-4.7,2.3-6.5c1.1-1.1,2.5-1.9,4.1-2.2s3.3-0.2,5,0.5c1.7,0.7,3.4,1.8,5.1,3.5c2.8,2.7,4.3,5.4,4.5,8
			c0.2,2.6-0.6,4.9-2.6,7.1l-4.7-4.2c0.9-1.3,1.3-2.5,1.2-3.7s-0.8-2.3-2.1-3.5c-1.3-1.3-2.6-2-3.8-2.2c-0.8-0.1-1.5,0.1-2.1,0.7
			c-0.5,0.5-0.7,1.2-0.7,2c0.1,1,1,2.9,2.7,5.5s2.8,4.8,3.3,6.3c0.5,1.6,0.6,3.1,0.2,4.7c-0.3,1.5-1.2,3-2.6,4.4
			c-1.2,1.3-2.8,2.1-4.6,2.5c-1.8,0.4-3.6,0.3-5.4-0.5c-1.8-0.7-3.7-2-5.6-3.9c-2.8-2.7-4.3-5.5-4.5-8.3
			C371.2,114.3,372.2,111.5,374.3,108.8z"/>
		<path style="fill:#FFFFFF;" d="M392.1,142.4l20.5-15.6l-5.6-7.3l4.2-3.2l14.9,19.7l-4.2,3.2l-5.5-7.3l-20.5,15.6L392.1,142.4z"/>
		<path style="fill:#FFFFFF;" d="M415,179.1l-3.3-5.9l4.8-5.8l-6-10.8l-7.4,1.2l-3.2-5.8l33-4.6l3.2,5.8L415,179.1z M420.1,163
			l8-9.3l-12.1,2L420.1,163z"/>
		<path style="fill:#FFFFFF;" d="M415.7,181.1l29.3-10.3l4.4,12.4c1.1,3.1,1.6,5.5,1.6,7.1c0,1.6-0.6,3.1-1.6,4.4s-2.4,2.3-4.2,2.9
			c-2.2,0.8-4.2,0.8-6.1,0c-1.9-0.8-3.5-2.4-4.7-4.8c-0.3,1.5-0.7,2.9-1.3,4c-0.6,1.1-1.8,2.8-3.6,5l-4.5,5.6l-2.5-7.1l4.9-6.5
			c1.7-2.3,2.8-3.9,3.2-4.6s0.6-1.5,0.6-2.2c0-0.7-0.2-1.7-0.7-3.1l-0.4-1.2l-12.2,4.3L415.7,181.1z M434.6,181.1l1.5,4.4
			c1,2.8,1.7,4.6,2.2,5.2s1.1,1,1.8,1.2c0.7,0.2,1.5,0.1,2.4-0.2c1-0.3,1.7-0.9,2.1-1.6c0.4-0.7,0.5-1.6,0.4-2.6
			c-0.1-0.5-0.6-2-1.4-4.3l-1.6-4.6L434.6,181.1z"/>
		<path style="fill:#FFFFFF;" d="M426.4,216.6l25.4-4.6l-1.7-9.1l5.2-0.9l4.4,24.2l-5.2,0.9l-1.7-9l-25.4,4.6L426.4,216.6z"/>
		<path style="fill:#FFFFFF;" d="M437.3,270l5.9,0.7l-1.4,11.6l-5.9-0.7L437.3,270z"/>
		<path style="fill:#FFFFFF;" d="M428,319.5l-2,5.8c-2-0.5-3.7-0.5-5,0.1c-1.3,0.6-2.4,1.8-3.2,3.5c-0.8,1.8-1.1,3.4-0.8,4.7
			s1,2.2,2.1,2.7c0.7,0.3,1.3,0.4,2,0.2c0.6-0.2,1.4-0.7,2.2-1.5c0.5-0.6,1.7-1.9,3.3-4c2.2-2.7,4.1-4.4,5.8-5.1c2.4-1,4.6-1,6.9,0
			c1.4,0.7,2.6,1.7,3.5,3.1c0.9,1.4,1.3,3,1.2,4.8c-0.1,1.8-0.6,3.8-1.6,6c-1.6,3.5-3.6,5.8-6,6.9c-2.4,1.1-4.9,1-7.5-0.1l2.4-5.8
			c1.6,0.4,2.8,0.4,3.8-0.1s1.9-1.6,2.6-3.2c0.8-1.7,1-3.1,0.8-4.3c-0.2-0.8-0.6-1.4-1.3-1.7c-0.7-0.3-1.4-0.3-2.1,0.1
			c-0.9,0.4-2.4,1.9-4.3,4.3s-3.6,4.2-4.9,5.2c-1.3,1-2.7,1.6-4.3,1.8s-3.2-0.1-5-1c-1.6-0.7-2.9-1.9-3.9-3.4s-1.4-3.3-1.4-5.3
			c0.1-2,0.7-4.2,1.8-6.6c1.7-3.6,3.7-5.9,6.3-7C421.7,318.4,424.7,318.4,428,319.5z"/>
		<path style="fill:#FFFFFF;" d="M402.1,347.5l21.5,14.2l5.1-7.7l4.4,2.9l-13.6,20.5l-4.4-2.9l5.1-7.7l-21.5-14.2L402.1,347.5z"/>
		<path style="fill:#FFFFFF;" d="M375.2,381.2l4.5-5.1l7.1,2.6l8.2-9.3l-3.6-6.6l4.4-5l15.2,29.6l-4.4,5L375.2,381.2z M392,380.7
			l11.5,4.4l-5.9-10.8L392,380.7z"/>
		<path style="fill:#FFFFFF;" d="M373.4,382.5l19.5,24.1l-10.2,8.3c-2.6,2.1-4.6,3.4-6.1,3.9c-1.5,0.5-3.1,0.5-4.7,0s-3-1.5-4.1-2.9
			c-1.5-1.8-2.1-3.7-2-5.8c0.1-2,1.1-4.1,3-6.1c-1.5,0.2-3,0.3-4.2,0.1c-1.3-0.2-3.3-0.7-5.9-1.7l-6.8-2.3l5.8-4.7l7.8,2.4
			c2.8,0.9,4.6,1.3,5.4,1.5s1.6,0.1,2.3-0.2c0.7-0.2,1.6-0.8,2.7-1.7l1-0.8l-8.2-10.1L373.4,382.5z M379.8,400.4l-3.6,2.9
			c-2.3,1.9-3.7,3.2-4.1,3.8c-0.4,0.7-0.6,1.4-0.5,2.1c0.1,0.7,0.4,1.5,1,2.2c0.7,0.8,1.4,1.3,2.2,1.4c0.8,0.1,1.7,0,2.6-0.5
			c0.4-0.3,1.6-1.2,3.6-2.8l3.8-3.1L379.8,400.4z"/>
		<path style="fill:#FFFFFF;" d="M343.6,404.5l12.9,22.3l8-4.6l2.6,4.5l-21.3,12.4l-2.6-4.5l7.9-4.6l-12.9-22.3L343.6,404.5z"/>
		<path style="fill:#FFFFFF;" d="M297,432.7l1.3,5.8l-11.4,2.5l-1.3-5.8L297,432.7z"/>
		<path style="fill:#FFFFFF;" d="M247.3,440.3l-6.1,0c-0.2-2.1-0.8-3.6-1.8-4.7c-1-1.1-2.5-1.7-4.4-1.8c-2-0.2-3.6,0.1-4.7,0.9
			s-1.7,1.7-1.8,2.8c-0.1,0.7,0.1,1.4,0.5,1.9c0.4,0.6,1.1,1.1,2.1,1.5c0.7,0.3,2.3,0.9,4.9,1.8c3.3,1.1,5.5,2.4,6.8,3.7
			c1.7,1.9,2.5,4,2.3,6.5c-0.1,1.6-0.7,3-1.7,4.3c-1,1.3-2.4,2.2-4.1,2.8s-3.8,0.7-6.2,0.5c-3.9-0.4-6.7-1.5-8.5-3.4
			c-1.8-1.9-2.6-4.2-2.5-7.1l6.3,0.3c0.1,1.6,0.6,2.8,1.4,3.6s2.1,1.2,3.9,1.4c1.8,0.2,3.3-0.1,4.4-0.7c0.7-0.4,1.1-1,1.2-1.8
			c0.1-0.7-0.2-1.4-0.8-2c-0.7-0.7-2.6-1.6-5.5-2.6c-3-1-5.1-1.9-6.5-2.8s-2.4-2.1-3.1-3.5s-1-3.1-0.8-5c0.2-1.8,0.8-3.4,1.9-4.8
			c1.1-1.5,2.6-2.5,4.5-3.1c1.9-0.6,4.1-0.8,6.8-0.5c3.9,0.4,6.8,1.5,8.7,3.5C246.2,434.1,247.2,436.8,247.3,440.3z"/>
		<path style="fill:#FFFFFF;" d="M212.2,425.4l-6.2,25l8.9,2.2l-1.3,5.1l-23.9-5.9l1.3-5.1l8.9,2.2l6.2-25L212.2,425.4z"/>
		<path style="fill:#FFFFFF;" d="M171.4,411.4l6.3,2.5l-0.1,7.5l11.5,4.6l5-5.6l6.2,2.5l-22.8,24.3l-6.1-2.5L171.4,411.4z
			 M177.5,427.1l-0.3,12.3l8.2-9.1L177.5,427.1z"/>
		<path style="fill:#FFFFFF;" d="M169.6,410.2l-16.3,26.4l-11.2-6.9c-2.8-1.7-4.7-3.2-5.7-4.5c-1-1.3-1.5-2.7-1.5-4.4
			c0-1.7,0.4-3.3,1.4-4.9c1.2-2,2.8-3.3,4.8-3.8s4.2-0.3,6.7,0.8c-0.7-1.4-1.2-2.7-1.5-4c-0.3-1.3-0.4-3.3-0.4-6.2l-0.1-7.1l6.4,3.9
			l0.3,8.1c0.1,2.9,0.2,4.8,0.4,5.6c0.2,0.8,0.5,1.5,0.9,2.1s1.3,1.2,2.5,2l1.1,0.7l6.8-11L169.6,410.2z M154.9,422.1l-3.9-2.4
			c-2.6-1.6-4.2-2.5-5-2.6c-0.8-0.2-1.5-0.1-2.2,0.2c-0.7,0.3-1.3,0.9-1.8,1.6c-0.5,0.9-0.8,1.8-0.6,2.6c0.1,0.8,0.6,1.6,1.4,2.3
			c0.4,0.3,1.7,1.2,3.8,2.5l4.2,2.6L154.9,422.1z"/>
		<path style="fill:#FFFFFF;" d="M138.9,389.3l-16.8,19.6l7,6l-3.4,4l-18.7-16l3.4-4l7,6l16.8-19.6L138.9,389.3z"/>
		<path style="fill:#FFFFFF;" d="M96.7,354.8l-5,3.2l-6.2-9.9l5-3.2L96.7,354.8z"/>
		<path style="fill:#FFFFFF;" d="M69.5,298.8l-1.7-5.9c1.9-0.7,3.3-1.7,4-3c0.7-1.3,0.9-2.8,0.6-4.7c-0.4-2-1.1-3.4-2.1-4.3
			c-1-0.9-2.1-1.2-3.2-1c-0.7,0.1-1.3,0.5-1.7,1c-0.4,0.5-0.7,1.3-0.9,2.5c-0.1,0.8-0.3,2.5-0.4,5.2c-0.2,3.5-0.8,6-1.8,7.5
			c-1.3,2.2-3.2,3.5-5.6,3.9c-1.6,0.3-3.1,0.1-4.6-0.5c-1.5-0.6-2.8-1.7-3.8-3.2c-1-1.5-1.7-3.5-2.2-5.8c-0.7-3.8-0.4-6.9,0.9-9.1
			c1.3-2.2,3.4-3.7,6.2-4.3l1.4,6.1c-1.5,0.5-2.5,1.3-3.1,2.3c-0.5,1-0.6,2.4-0.3,4.1c0.3,1.8,1,3.1,1.9,4c0.6,0.6,1.3,0.8,2.1,0.6
			c0.7-0.1,1.3-0.5,1.7-1.3c0.5-0.9,0.8-2.9,1-6c0.2-3.1,0.5-5.5,1-7.1c0.5-1.6,1.3-2.9,2.5-3.9c1.2-1.1,2.7-1.8,4.6-2.1
			c1.7-0.3,3.5-0.1,5.2,0.6c1.7,0.7,3.1,1.9,4.2,3.5c1.1,1.6,1.8,3.8,2.3,6.4c0.7,3.9,0.4,7-1.1,9.4C75.2,296,72.8,297.8,69.5,298.8
			z"/>
		<path style="fill:#FFFFFF;" d="M74.4,261l-25.8,0.8l0.3,9.2l-5.2,0.2l-0.8-24.6l5.2-0.2l0.3,9.2l25.8-0.8L74.4,261z"/>
		<path style="fill:#FFFFFF;" d="M76.7,217.8l-0.7,6.8l-7.3,2l-1.3,12.3l6.7,3.3l-0.7,6.6l-29.6-15.2l0.7-6.6L76.7,217.8z M63.3,228
			l-11.9,3.1l11,5.4L63.3,228z"/>
		<path style="fill:#FFFFFF;" d="M77.4,215.8l-29.9-8.4l3.6-12.7c0.9-3.2,1.8-5.4,2.8-6.7c0.9-1.3,2.2-2.2,3.8-2.7
			c1.6-0.5,3.3-0.5,5.1,0c2.2,0.6,3.9,1.8,5,3.5c1.1,1.7,1.5,4,1.1,6.7c1.1-1.1,2.3-1.9,3.4-2.5c1.1-0.6,3.1-1.3,5.8-2.1l6.8-2
			l-2,7.2l-7.7,2.5c-2.8,0.9-4.5,1.5-5.3,1.9c-0.8,0.4-1.3,0.9-1.8,1.5c-0.4,0.6-0.8,1.6-1.2,2.9l-0.3,1.2l12.5,3.5L77.4,215.8z
			 M61.8,204.9l1.3-4.5c0.8-2.9,1.2-4.7,1.2-5.5c0-0.8-0.3-1.5-0.8-2s-1.2-1-2.1-1.2c-1-0.3-1.9-0.2-2.7,0.1c-0.8,0.4-1.4,1-1.8,1.9
			c-0.2,0.5-0.6,1.9-1.3,4.4l-1.3,4.7L61.8,204.9z"/>
		<path style="fill:#FFFFFF;" d="M89,180.6l-23.4-10.8l-3.8,8.4L57,176l10.3-22.4l4.8,2.2l-3.8,8.3l23.4,10.8L89,180.6z"/>
		<path style="fill:#FFFFFF;" d="M110.8,130.6l-4.4-4l7.8-8.7l4.4,4L110.8,130.6z"/>
	</g>
</g>
<g id="LOZYSKA">
	<g>
		<radialGradient id="SVGID_4_" cx="282.1404" cy="291.6663" r="15.6411" gradientUnits="userSpaceOnUse">
			<stop  offset="0.1733" style="stop-color:#ABABAB"/>
			<stop  offset="0.2664" style="stop-color:#A3A3A3"/>
			<stop  offset="0.4117" style="stop-color:#8D8D8D"/>
			<stop  offset="0.4896" style="stop-color:#7E7E7E"/>
			<stop  offset="0.9307" style="stop-color:#404040"/>
			<a:midPointStop  offset="0.1733" style="stop-color:#ABABAB"/>
			<a:midPointStop  offset="0.6095" style="stop-color:#ABABAB"/>
			<a:midPointStop  offset="0.4896" style="stop-color:#7E7E7E"/>
			<a:midPointStop  offset="0.5123" style="stop-color:#7E7E7E"/>
			<a:midPointStop  offset="0.9307" style="stop-color:#404040"/>
		</radialGradient>
		<circle style="fill:url(#SVGID_4_);" cx="282.1" cy="291.7" r="15.6"/>
		<radialGradient id="SVGID_5_" cx="207.9998" cy="232.9587" r="15.6409" gradientUnits="userSpaceOnUse">
			<stop  offset="0.1733" style="stop-color:#ABABAB"/>
			<stop  offset="0.2664" style="stop-color:#A3A3A3"/>
			<stop  offset="0.4117" style="stop-color:#8D8D8D"/>
			<stop  offset="0.4896" style="stop-color:#7E7E7E"/>
			<stop  offset="0.9307" style="stop-color:#404040"/>
			<a:midPointStop  offset="0.1733" style="stop-color:#ABABAB"/>
			<a:midPointStop  offset="0.6095" style="stop-color:#ABABAB"/>
			<a:midPointStop  offset="0.4896" style="stop-color:#7E7E7E"/>
			<a:midPointStop  offset="0.5123" style="stop-color:#7E7E7E"/>
			<a:midPointStop  offset="0.9307" style="stop-color:#404040"/>
		</radialGradient>
		<circle style="fill:url(#SVGID_5_);" cx="208" cy="233" r="15.6"/>
		<radialGradient id="SVGID_6_" cx="207.9998" cy="274.3342" r="15.6406" gradientUnits="userSpaceOnUse">
			<stop  offset="0.1733" style="stop-color:#ABABAB"/>
			<stop  offset="0.2664" style="stop-color:#A3A3A3"/>
			<stop  offset="0.4117" style="stop-color:#8D8D8D"/>
			<stop  offset="0.4896" style="stop-color:#7E7E7E"/>
			<stop  offset="0.9307" style="stop-color:#404040"/>
			<a:midPointStop  offset="0.1733" style="stop-color:#ABABAB"/>
			<a:midPointStop  offset="0.6095" style="stop-color:#ABABAB"/>
			<a:midPointStop  offset="0.4896" style="stop-color:#7E7E7E"/>
			<a:midPointStop  offset="0.5123" style="stop-color:#7E7E7E"/>
			<a:midPointStop  offset="0.9307" style="stop-color:#404040"/>
		</radialGradient>
		<circle style="fill:url(#SVGID_6_);" cx="208" cy="274.3" r="15.6"/>
		<radialGradient id="SVGID_7_" cx="240.8328" cy="299.1663" r="15.6411" gradientUnits="userSpaceOnUse">
			<stop  offset="0.1733" style="stop-color:#ABABAB"/>
			<stop  offset="0.2664" style="stop-color:#A3A3A3"/>
			<stop  offset="0.4117" style="stop-color:#8D8D8D"/>
			<stop  offset="0.4896" style="stop-color:#7E7E7E"/>
			<stop  offset="0.9307" style="stop-color:#404040"/>
			<a:midPointStop  offset="0.1733" style="stop-color:#ABABAB"/>
			<a:midPointStop  offset="0.6095" style="stop-color:#ABABAB"/>
			<a:midPointStop  offset="0.4896" style="stop-color:#7E7E7E"/>
			<a:midPointStop  offset="0.5123" style="stop-color:#7E7E7E"/>
			<a:midPointStop  offset="0.9307" style="stop-color:#404040"/>
		</radialGradient>
		<circle style="fill:url(#SVGID_7_);" cx="240.8" cy="299.2" r="15.6"/>
		<radialGradient id="SVGID_8_" cx="239.9998" cy="204.3352" r="15.6409" gradientUnits="userSpaceOnUse">
			<stop  offset="0.1733" style="stop-color:#ABABAB"/>
			<stop  offset="0.2664" style="stop-color:#A3A3A3"/>
			<stop  offset="0.4117" style="stop-color:#8D8D8D"/>
			<stop  offset="0.4896" style="stop-color:#7E7E7E"/>
			<stop  offset="0.9307" style="stop-color:#404040"/>
			<a:midPointStop  offset="0.1733" style="stop-color:#ABABAB"/>
			<a:midPointStop  offset="0.6095" style="stop-color:#ABABAB"/>
			<a:midPointStop  offset="0.4896" style="stop-color:#7E7E7E"/>
			<a:midPointStop  offset="0.5123" style="stop-color:#7E7E7E"/>
			<a:midPointStop  offset="0.9307" style="stop-color:#404040"/>
		</radialGradient>
		<circle style="fill:url(#SVGID_8_);" cx="240" cy="204.3" r="15.6"/>
		<radialGradient id="SVGID_9_" cx="283.1404" cy="214.7195" r="15.6409" gradientUnits="userSpaceOnUse">
			<stop  offset="0.1733" style="stop-color:#ABABAB"/>
			<stop  offset="0.2664" style="stop-color:#A3A3A3"/>
			<stop  offset="0.4117" style="stop-color:#8D8D8D"/>
			<stop  offset="0.4896" style="stop-color:#7E7E7E"/>
			<stop  offset="0.9307" style="stop-color:#404040"/>
			<a:midPointStop  offset="0.1733" style="stop-color:#ABABAB"/>
			<a:midPointStop  offset="0.6095" style="stop-color:#ABABAB"/>
			<a:midPointStop  offset="0.4896" style="stop-color:#7E7E7E"/>
			<a:midPointStop  offset="0.5123" style="stop-color:#7E7E7E"/>
			<a:midPointStop  offset="0.9307" style="stop-color:#404040"/>
		</radialGradient>
		<circle style="fill:url(#SVGID_9_);" cx="283.1" cy="214.7" r="15.6"/>
		<radialGradient id="SVGID_10_" cx="300.3376" cy="253.5002" r="15.6406" gradientUnits="userSpaceOnUse">
			<stop  offset="0.1733" style="stop-color:#ABABAB"/>
			<stop  offset="0.2664" style="stop-color:#A3A3A3"/>
			<stop  offset="0.4117" style="stop-color:#8D8D8D"/>
			<stop  offset="0.4896" style="stop-color:#7E7E7E"/>
			<stop  offset="0.9307" style="stop-color:#404040"/>
			<a:midPointStop  offset="0.1733" style="stop-color:#ABABAB"/>
			<a:midPointStop  offset="0.6095" style="stop-color:#ABABAB"/>
			<a:midPointStop  offset="0.4896" style="stop-color:#7E7E7E"/>
			<a:midPointStop  offset="0.5123" style="stop-color:#7E7E7E"/>
			<a:midPointStop  offset="0.9307" style="stop-color:#404040"/>
		</radialGradient>
		<circle style="fill:url(#SVGID_10_);" cx="300.3" cy="253.5" r="15.6"/>
	</g>
	<circle id="svg_4_1_" style="fill:none;stroke:#4C4C4C;stroke-width:12;" cx="252" cy="252" r="33"/>
	<circle id="svg_7_1_" style="fill:none;stroke:#999999;stroke-width:8;" cx="252" cy="252" r="64"/>
</g>
</svg>
