<?xml version="1.0" encoding="utf-8"?>
<!-- Generator: Adobe Illustrator 16.0.0, SVG Export Plug-In . SVG Version: 6.00 Build 0)  -->
<!DOCTYPE svg PUBLIC "-//W3C//DTD SVG 1.1//EN" "http://www.w3.org/Graphics/SVG/1.1/DTD/svg11.dtd" [
	<!ENTITY ns_flows "http://ns.adobe.com/Flows/1.0/">
	<!ENTITY ns_extend "http://ns.adobe.com/Extensibility/1.0/">
	<!ENTITY ns_ai "http://ns.adobe.com/AdobeIllustrator/10.0/">
	<!ENTITY ns_graphs "http://ns.adobe.com/Graphs/1.0/">
]>
<svg version="1.1"
	 id="Warstwa_1" xmlns:x="&ns_extend;" xmlns:i="&ns_ai;" xmlns:graph="&ns_graphs;" xmlns:svg="http://www.w3.org/2000/svg"
	 xmlns="http://www.w3.org/2000/svg" xmlns:xlink="http://www.w3.org/1999/xlink" xmlns:a="http://ns.adobe.com/AdobeSVGViewerExtensions/3.0/"
	 x="0px" y="0px" width="504px" height="504px" viewBox="0 0 504 504" enable-background="new 0 0 504 504" xml:space="preserve">
<g>
	<title>Szprychy</title>
	<polygon id="svg_19" fill="none" stroke="#000000" stroke-width="30" points="252,97 289,201 399,203 311,270 343,376 252,312 
		162,376 194,270 106,203 216,201 252,97 289,201 	"/>
	
		<radialGradient id="svg_3_1_" cx="-143.6418" cy="534.9036" r="0.5" gradientTransform="matrix(470 0 0 -470 67763.6172 251656.6094)" gradientUnits="userSpaceOnUse">
		<stop  offset="0.9401" style="stop-color:#0000FF"/>
		<stop  offset="1" style="stop-color:#6E00FF;stop-opacity:0.9609"/>
		<a:midPointStop  offset="0.9401" style="stop-color:#0000FF"/>
		<a:midPointStop  offset="0.5" style="stop-color:#0000FF"/>
		<a:midPointStop  offset="1" style="stop-color:#6E00FF;stop-opacity:0.9609"/>
	</radialGradient>
	<circle id="svg_3" fill="none" stroke="url(#svg_3_1_)" stroke-width="33" cx="252" cy="252" r="235"/>
	<circle id="svg_4" fill="none" stroke="#4C4C4C" stroke-width="12" cx="252" cy="252" r="33"/>
	<circle id="svg_5" fill="none" stroke="#7F7F00" stroke-width="21" cx="252" cy="252" r="50"/>
	<circle id="svg_7" fill="none" stroke="#999999" stroke-width="8" cx="252" cy="252" r="64"/>
	<circle id="svg_8" fill="none" stroke="#0000FF" stroke-width="99" cx="252" cy="252" r="170"/>
	<circle id="svg_1" fill="none" stroke="#000000" stroke-width="15" cx="252" cy="252" r="75"/>
	<circle id="svg_2" fill="none" stroke="#000000" stroke-width="15" cx="252" cy="252" r="125"/>
</g>
<g>
	<path fill="#FFFFFF" d="M168.634,102.365c2.294,0.209,5.607,0.007,8.622-1.207c3.247-1.307,4.421-3.342,3.6-5.383
		c-0.784-1.948-2.716-2.464-7.014-2.297c-5.922,0.282-10.465-1.23-12.295-5.775c-2.146-5.333,0.664-11.206,8.037-14.174
		c3.524-1.419,6.421-1.723,8.612-1.635l0.719,6.339c-1.495-0.099-4.076-0.083-7.137,1.148c-3.061,1.232-3.984,3.221-3.332,4.844
		c0.803,1.995,2.92,2.166,7.57,2.072c6.341-0.181,10.095,1.649,11.868,6.056c2.11,5.24-0.133,11.316-8.713,14.77
		c-3.571,1.438-7.469,1.93-9.623,1.664L168.634,102.365z"/>
	<path fill="#FFFFFF" d="M194.555,72.21l-8.718,2.424l-1.715-6.165l24.952-6.939l1.715,6.165l-8.863,2.465l7.314,26.301l-7.37,2.051
		L194.555,72.21z"/>
	<path fill="#FFFFFF" d="M224.052,84.383l-1.135,8.903l-7.818,1.132l5.364-34.824l9.896-1.433l15.169,31.851l-8.115,1.175
		L233.602,83L224.052,84.383z M231.697,77.517l-3.103-6.774c-0.88-1.894-1.833-4.28-2.613-6.188l-0.1,0.014
		c-0.208,2.052-0.337,4.646-0.603,6.655l-0.955,7.361L231.697,77.517z"/>
	<path fill="#FFFFFF" d="M249.681,56.857c2.461-0.324,6.119-0.511,10.167-0.385c4.998,0.156,8.474,1.015,10.813,2.988
		c1.949,1.662,2.976,4.045,2.879,7.145c-0.133,4.298-3.273,7.151-6.205,8.111l-0.005,0.149c2.319,1.022,3.549,3.313,4.302,6.438
		c0.932,3.831,1.844,8.263,2.453,9.581l-7.797-0.242c-0.52-0.967-1.234-3.74-2.104-7.92c-0.769-4.227-2.183-5.421-5.279-5.568
		l-2.3-0.071l-0.412,13.245l-7.547-0.234L249.681,56.857z M256.777,71.585l2.998,0.094c3.799,0.117,6.107-1.711,6.199-4.66
		c0.096-3.099-1.955-4.713-5.452-4.873c-1.849-0.057-2.903,0.061-3.456,0.143L256.777,71.585z"/>
	<path fill="#FFFFFF" d="M288.839,66.171l-8.847-1.899l1.343-6.257l25.32,5.435l-1.343,6.257l-8.994-1.931l-5.729,26.688
		l-7.479-1.604L288.839,66.171z"/>
	<path fill="#FFFFFF" d="M406.226,195.925c-0.366,2.273-0.393,5.595,0.611,8.687c1.081,3.329,3.031,4.641,5.124,3.962
		c1.997-0.648,2.646-2.541,2.773-6.841c0.126-5.93,1.947-10.358,6.608-11.872c5.47-1.775,11.137,1.432,13.592,8.994
		c1.174,3.613,1.277,6.524,1.039,8.705l-6.375,0.282c0.201-1.485,0.363-4.062-0.655-7.201c-1.02-3.138-2.94-4.196-4.604-3.656
		c-2.046,0.664-2.362,2.764-2.589,7.411c-0.255,6.34-2.339,9.96-6.856,11.428c-5.375,1.745-11.284-0.911-14.141-9.709
		c-1.188-3.662-1.411-7.586-0.999-9.718L406.226,195.925z"/>
	<path fill="#FFFFFF" d="M434.408,224.277l-1.645-8.899l6.293-1.163l4.71,25.466l-6.292,1.164l-1.674-9.046l-26.843,4.965
		l-1.392-7.522L434.408,224.277z"/>
	<path fill="#FFFFFF" d="M419.548,252.599l-8.733-2.067l-0.303-7.893l34.066,9.001l0.382,9.99l-33.271,11.732l-0.313-8.192
		l8.543-2.93L419.548,252.599z M425.57,260.923l7.064-2.372c1.976-0.676,4.449-1.37,6.43-1.947l-0.005-0.101
		c-2.017-0.422-4.584-0.824-6.554-1.299l-7.221-1.725L425.57,260.923z"/>
	<path fill="#FFFFFF" d="M444.072,281.438c0.016,2.482-0.254,6.136-0.881,10.136c-0.775,4.941-2.059,8.283-4.309,10.359
		c-1.891,1.729-4.383,2.45-7.445,1.97c-4.248-0.666-6.689-4.137-7.278-7.165l-0.147-0.022c-1.303,2.174-3.728,3.11-6.922,3.47
		c-3.916,0.448-8.427,0.805-9.813,1.244l1.209-7.706c1.023-0.396,3.865-0.76,8.12-1.104c4.289-0.239,5.649-1.493,6.18-4.549
		l0.356-2.271l-13.09-2.054l1.17-7.459L444.072,281.438z M428.576,286.65l-0.465,2.965c-0.588,3.754,0.94,6.271,3.854,6.729
		c3.063,0.48,4.919-1.354,5.512-4.805c0.286-1.827,0.301-2.889,0.287-3.447L428.576,286.65z"/>
	<path fill="#FFFFFF" d="M429.738,319.36l3.097-8.503l6.013,2.189l-8.861,24.334l-6.014-2.189l3.148-8.644l-25.65-9.342l2.617-7.188
		L429.738,319.36z"/>
	<path fill="#FFFFFF" d="M286.3,420.053c-2.185-0.729-5.456-1.292-8.669-0.803c-3.459,0.527-5.07,2.239-4.738,4.415
		c0.316,2.075,2.08,3.02,6.302,3.843c5.828,1.083,9.903,3.597,10.642,8.44c0.868,5.685-3.214,10.758-11.072,11.955
		c-3.756,0.573-6.645,0.205-8.757-0.384l0.753-6.335c1.434,0.438,3.947,1.017,7.211,0.52c3.261-0.498,4.617-2.222,4.353-3.951
		c-0.323-2.127-2.345-2.779-6.894-3.754c-6.213-1.277-9.447-3.92-10.164-8.615c-0.851-5.584,2.725-10.984,11.868-12.379
		c3.806-0.58,7.712-0.166,9.749,0.587L286.3,420.053z"/>
	<path fill="#FFFFFF" d="M253.286,443.008l9.052,0.041l-0.028,6.4l-25.903-0.115l0.028-6.4l9.201,0.04l0.121-27.303l7.651,0.033
		L253.286,443.008z"/>
	<path fill="#FFFFFF" d="M228.214,423.038l3.693-8.184l7.809,1.207l-15.324,31.736l-9.884-1.526l-5.185-34.903l8.105,1.252
		l1.249,8.945L228.214,423.038z M218.894,427.367l0.984,7.388c0.289,2.068,0.5,4.631,0.689,6.684l0.099,0.016
		c0.799-1.9,1.683-4.345,2.523-6.188l3.068-6.762L218.894,427.367z"/>
	<path fill="#FFFFFF" d="M195.885,441.864c-2.451-0.393-6.01-1.257-9.854-2.531c-4.747-1.575-7.832-3.388-9.511-5.947
		c-1.396-2.147-1.7-4.726-0.724-7.667c1.354-4.082,5.178-5.922,8.26-6.006l0.048-0.142c-1.933-1.642-2.458-4.187-2.289-7.397
		c0.2-3.938,0.588-8.443,0.38-9.883l7.404,2.455c0.223,1.075,0.117,3.938-0.24,8.191c-0.469,4.27,0.546,5.818,3.473,6.842
		l2.183,0.725l4.171-12.577l7.167,2.376L195.885,441.864z M193.283,425.724l-2.847-0.945c-3.607-1.197-6.341-0.102-7.27,2.699
		c-0.976,2.941,0.529,5.074,3.836,6.225c1.756,0.582,2.8,0.77,3.353,0.849L193.283,425.724z"/>
	<path fill="#FFFFFF" d="M161.483,422.407l8.101,4.034l-2.853,5.729l-23.185-11.546l2.853-5.729l8.236,4.102l12.168-24.439
		l6.848,3.411L161.483,422.407z"/>
</g>
</svg>
