<?xml version="1.0" encoding="utf-8"?>
<!-- Generator: Adobe Illustrator 16.0.0, SVG Export Plug-In . SVG Version: 6.00 Build 0)  -->
<!DOCTYPE svg PUBLIC "-//W3C//DTD SVG 1.1//EN" "http://www.w3.org/Graphics/SVG/1.1/DTD/svg11.dtd" [
	<!ENTITY ns_flows "http://ns.adobe.com/Flows/1.0/">
	<!ENTITY ns_extend "http://ns.adobe.com/Extensibility/1.0/">
	<!ENTITY ns_ai "http://ns.adobe.com/AdobeIllustrator/10.0/">
	<!ENTITY ns_graphs "http://ns.adobe.com/Graphs/1.0/">
]>
<svg version="1.1"
	 id="Warstwa_1" xmlns:x="&ns_extend;" xmlns:i="&ns_ai;" xmlns:graph="&ns_graphs;" xmlns:svg="http://www.w3.org/2000/svg"
	 xmlns="http://www.w3.org/2000/svg" xmlns:xlink="http://www.w3.org/1999/xlink" xmlns:a="http://ns.adobe.com/AdobeSVGViewerExtensions/3.0/"
	 x="0px" y="0px" width="504px" height="504px" viewBox="0 0 504 504" enable-background="new 0 0 504 504" xml:space="preserve">
<g>
	<title>Szprychy</title>
	<polygon id="svg_19" fill="none" stroke="#000000" stroke-width="30" points="252,97 289,201 399,203 311,270 343,376 252,312 
		162,376 194,270 106,203 216,201 252,97 289,201 	"/>
	
		<radialGradient id="svg_3_1_" cx="-143.6418" cy="534.9036" r="0.5" gradientTransform="matrix(470 0 0 -470 67763.6172 251656.6094)" gradientUnits="userSpaceOnUse">
		<stop  offset="0.9401" style="stop-color:#0000FF"/>
		<stop  offset="1" style="stop-color:#6E00FF;stop-opacity:0.9609"/>
		<a:midPointStop  offset="0.9401" style="stop-color:#0000FF"/>
		<a:midPointStop  offset="0.5" style="stop-color:#0000FF"/>
		<a:midPointStop  offset="1" style="stop-color:#6E00FF;stop-opacity:0.9609"/>
	</radialGradient>
	<circle id="svg_3" fill="none" stroke="url(#svg_3_1_)" stroke-width="33" cx="252" cy="252" r="235"/>
	<circle id="svg_4" fill="none" stroke="#4C4C4C" stroke-width="12" cx="252" cy="252" r="33"/>
	<circle id="svg_5" fill="none" stroke="#7F7F00" stroke-width="21" cx="252" cy="252" r="50"/>
	<circle id="svg_7" fill="none" stroke="#999999" stroke-width="8" cx="252" cy="252" r="64"/>
	<circle id="svg_8" fill="none" stroke="#0000FF" stroke-width="99" cx="252" cy="252" r="170"/>
	<circle id="svg_1" fill="none" stroke="#000000" stroke-width="15" cx="252" cy="252" r="75"/>
	<circle id="svg_2" fill="none" stroke="#000000" stroke-width="15" cx="252" cy="252" r="125"/>
</g>
<g>
	<path fill="#FFFFFF" d="M166.2,100.1l-12.9-33.5l8.8-3.4l11.7,9.6c3.3,2.8,6.9,6.2,9.9,9.4l0.1-0.1c-2.2-4.2-4.1-8.7-6-13.7
		l-3.8-9.8l7-2.7L194,89.4l-8,3.1l-12.1-10.2c-3.4-2.8-7.2-6.3-10.4-9.6l-0.1,0.1c1.9,4.3,3.8,9,5.9,14.5l3.9,10.1L166.2,100.1z"/>
	<path fill="#FFFFFF" d="M205.6,76.8l-0.4,9.6l-8.2,1.9l2.7-37.5l10.4-2.4L228.9,81l-8.5,1.9l-4.8-8.4L205.6,76.8z M213.1,68.9
		l-3.9-6.9c-1.1-1.9-2.3-4.4-3.3-6.4l-0.1,0c0,2.2,0,5-0.1,7.1l-0.4,7.9L213.1,68.9z"/>
	<path fill="#FFFFFF" d="M236.3,44.5l1.3,20.6c0.4,6.2,2.9,9.2,7.1,8.9c4.3-0.3,6.4-3.4,6-9.7l-1.3-20.6l8.1-0.5l1.2,20.1
		c0.7,11.1-4.6,16.7-14,17.2c-9,0.6-14.7-4.1-15.4-15.6l-1.2-20L236.3,44.5z"/>
	<path fill="#FFFFFF" d="M269.8,43.7l8,1.1l-2.1,15.7l0.2,0c1-1.3,2-2.4,3-3.6l9.7-10.7l9.9,1.3l-13.8,13.6l9.7,22.1l-9.4-1.3
		l-6.6-16.5l-3.6,3.3L273,80.4l-8-1.1L269.8,43.7z"/>
	<path fill="#FFFFFF" d="M307.2,78.2l-5.5,7.8l-7.9-2.9l22.6-30l10,3.6l-1.8,37.6l-8.2-3l0.5-9.6L307.2,78.2z M317.8,75.6l0.5-7.9
		c0.1-2.2,0.4-4.9,0.7-7.1l-0.1,0c-1.2,1.8-2.7,4.2-3.9,5.9l-4.6,6.4L317.8,75.6z"/>
	<path fill="#FFFFFF" d="M381.8,91l6,5.4l-15.1,16.9c-6.8,7.6-12.8,7-18.7,1.8c-1.4-1.2-3-3.1-3.8-4.6l5-4.3c0.6,1,1.5,2.2,2.7,3.2
		c2.5,2.3,5.2,2.5,8.9-1.6L381.8,91z"/>
	<path fill="#FFFFFF" d="M380.3,127.4l-8.8,3.8l-5.3-6.5l34.8-14l6.7,8.3l-20.9,31.2l-5.5-6.8l5.4-7.9L380.3,127.4z M390.8,130.7
		l4.5-6.5c1.3-1.8,2.9-4,4.2-5.8l-0.1-0.1c-2,0.9-4.4,2.2-6.4,3.1l-7.3,3.1L390.8,130.7z"/>
	<path fill="#FFFFFF" d="M391.3,149.3l29.8,3l0.2-0.1l-7.5-13.5l5.9-3.3l12.7,22.8l-4.1,2.3l-29.4-2.8l-0.2,0.1l8.3,14.9l-5.9,3.3
		l-13.6-24.4L391.3,149.3z"/>
	<path fill="#FFFFFF" d="M435.8,166.7c1.5,2.6,3.2,6.2,4.6,10c2.4,6.4,2.9,10.9,1.7,15.1c-1.3,4.5-4.5,8.2-10.5,10.5
		c-6.4,2.5-11.7,1.8-15.7-0.4c-4.3-2.4-7.7-7.2-10.3-13.8c-1.5-3.9-2.3-6.8-2.8-8.8L435.8,166.7z M411.3,184.8
		c0.1,0.7,0.5,1.7,0.9,2.7c2.6,6.9,8.1,9.9,16.1,6.8c7-2.6,9.1-8.1,6.6-14.6c-0.6-1.7-1.2-2.7-1.6-3.3L411.3,184.8z"/>
	<path fill="#FFFFFF" d="M416.3,219.2l14.3-3.3l18.1-15.8l2.1,9l-7.6,5.5c-2.3,1.7-4,2.8-6.1,4.2l0,0.1c2.4,0.3,4.6,0.6,7.3,1.1
		l9.2,1.6l2,8.9l-23-6.9l-14.6,3.3L416.3,219.2z"/>
	<path fill="#FFFFFF" d="M329.1,408.5l13.2,33.4l-8.8,3.5l-11.8-9.5c-3.4-2.7-7-6.1-10-9.3l-0.1,0.1c2.2,4.2,4.2,8.7,6.1,13.7
		l3.9,9.8l-6.9,2.7l-13.2-33.4l7.9-3.1l12.2,10.1c3.4,2.8,7.3,6.2,10.5,9.5l0.1-0.1c-1.9-4.3-3.9-9-6-14.5l-4-10.1L329.1,408.5z"/>
	<path fill="#FFFFFF" d="M289.7,431.3l0.8-9.5l8.3-1.5l-4.3,37.3l-10.5,1.9l-17.5-33.3l8.6-1.6l4.4,8.6L289.7,431.3z M281.9,439
		l3.6,7.1c1,2,2.1,4.5,3,6.5l0.1,0c0.1-2.2,0.2-5,0.4-7.1l0.7-7.9L281.9,439z"/>
	<path fill="#FFFFFF" d="M257.2,462.1l0-20.7c0-6.2-2.3-9.3-6.5-9.3c-4.3,0-6.6,3-6.6,9.3l0,20.7l-8.1,0l0-20.1
		c0-11.1,5.6-16.4,15-16.4c9.1,0,14.4,5,14.4,16.5l0,20L257.2,462.1z"/>
	<path fill="#FFFFFF" d="M224,460.9l-7.9-1.4l2.9-15.6l-0.2,0c-1,1.2-2.1,2.3-3.1,3.4l-10.2,10.3l-9.8-1.8l14.4-12.9l-8.6-22.5
		l9.3,1.7l5.9,16.8l3.7-3.2l2.1-11.5l7.9,1.4L224,460.9z"/>
	<path fill="#FFFFFF" d="M188.2,425.1l5.6-7.8l7.9,2.9L179,450.2l-10-3.7l1.9-37.5l8.2,3l-0.6,9.6L188.2,425.1z M177.5,427.7
		l-0.5,7.9c-0.1,2.2-0.5,4.9-0.7,7.1l0.1,0c1.2-1.8,2.7-4.2,3.9-5.9l4.6-6.4L177.5,427.7z"/>
	<path fill="#FFFFFF" d="M113.6,415.6l-6.4-5l14-17.9c6.3-8.1,12.4-7.9,18.6-3c1.5,1.1,3.2,2.9,4.1,4.3l-4.7,4.6
		c-0.7-1-1.6-2.1-2.9-3.1c-2.7-2.1-5.3-2.2-8.8,2.2L113.6,415.6z"/>
	<path fill="#FFFFFF" d="M112.6,379.1l8.5-4.3l5.7,6.2L93,397.2l-7.2-7.8l18.9-32.5l5.9,6.4l-4.9,8.3L112.6,379.1z M102,376.5
		l-4.1,6.8c-1.1,1.9-2.7,4.2-3.9,6l0.1,0.1c1.9-1,4.3-2.5,6.2-3.5l7.1-3.6L102,376.5z"/>
	<path fill="#FFFFFF" d="M100.4,358l-29.9-1.3l-0.2,0.1l8.3,13.1l-5.7,3.6l-13.9-22l4-2.5l29.5,1.2l0.2-0.1l-9.1-14.4l5.7-3.6
		l14.9,23.6L100.4,358z"/>
	<path fill="#FFFFFF" d="M54.6,342.2c-1.6-2.6-3.3-6.1-4.8-9.9c-2.6-6.3-3.1-10.9-2-15.1c1.2-4.5,4.4-8.3,10.3-10.7
		c6.4-2.6,11.7-2,15.7,0.1c4.3,2.3,7.9,7.1,10.5,13.6c1.6,3.9,2.4,6.8,3,8.7L54.6,342.2z M78.7,323.7c-0.1-0.7-0.5-1.7-0.9-2.7
		c-2.7-6.8-8.3-9.8-16.2-6.6c-6.9,2.7-9,8.3-6.3,14.7c0.7,1.7,1.3,2.7,1.7,3.3L78.7,323.7z"/>
	<path fill="#FFFFFF" d="M73.6,289.5l-14.4,3.1l-18.4,15.5l-1.9-9.1l7.7-5.4c2.3-1.6,4-2.8,6.1-4.1l0-0.1c-2.4-0.3-4.6-0.7-7.3-1.2
		l-9.2-1.7l-1.9-8.9l23,7.2l14.6-3.1L73.6,289.5z"/>
</g>
</svg>
