<?xml version="1.0" encoding="UTF-8" standalone="no"?>
<!-- Generator: Adobe Illustrator 16.0.0, SVG Export Plug-In . SVG Version: 6.00 Build 0)  -->

<svg
   version="1.1"
   x="0px"
   y="0px"
   width="504px"
   height="504px"
   viewBox="0 0 504 504"
   style="enable-background:new 0 0 504 504;"
   xml:space="preserve"
   id="svg1583"
   sodipodi:docname="kolo1-GRA_MIEJSKA.svg"
   xmlns:inkscape="http://www.inkscape.org/namespaces/inkscape"
   xmlns:sodipodi="http://sodipodi.sourceforge.net/DTD/sodipodi-0.dtd"
   xmlns:xlink="http://www.w3.org/1999/xlink"
   xmlns="http://www.w3.org/2000/svg"
   xmlns:svg="http://www.w3.org/2000/svg"
   xmlns:a="http://ns.adobe.com/AdobeSVGViewerExtensions/3.0/"><defs
   id="defs1587" /><sodipodi:namedview
   id="namedview1585"
   pagecolor="#505050"
   bordercolor="#eeeeee"
   borderopacity="1"
   inkscape:pageshadow="0"
   inkscape:pageopacity="0"
   inkscape:pagecheckerboard="0"
   showgrid="false" />
<g
   id="Warstwa_1">
	<g
   id="g1401">
		<title
   id="title1338">Szprychy</title>
		<polygon
   id="svg_19"
   style="fill:none;stroke:#000000;stroke-width:36.8504;"
   points="252,99 289,203 399,205 311,272 343,378     252,314 162,378 194,272 106,205 216,203 252,99 289,203   " />
		<g
   id="g1378">
			<defs
   id="defs1342">
				<path
   id="SVGID_1_"
   d="M135,415.6l41.7-138L62.6,190.8l142.7-2.6l46.6-134.5l47.8,134.5l142.8,2.6l-114.1,86.8l41.6,137.6      L252,332.4L135,415.6z M252,295.6l64.1,45.1l-22.4-74.4l61.9-47.2l-77.2-1.4l-26.2-73.5l-25.4,73.5l-77.3,1.4l61.9,47.2      l-22.3,74L252,295.6z" />
			</defs>
			<clipPath
   id="SVGID_2_">
				<use
   xlink:href="#SVGID_1_"
   style="overflow:visible;"
   id="use1344" />
			</clipPath>
			<radialGradient
   id="SVGID_3_"
   cx="251.9998"
   cy="251.9998"
   r="108.2693"
   gradientUnits="userSpaceOnUse">
				<stop
   offset="0.8416"
   style="stop-color:#000000;stop-opacity:0.2"
   id="stop1347" />
				<stop
   offset="0.8441"
   style="stop-color:#101111;stop-opacity:0.2469"
   id="stop1349" />
				<stop
   offset="0.8477"
   style="stop-color:#202222;stop-opacity:0.3151"
   id="stop1351" />
				<stop
   offset="0.8522"
   style="stop-color:#2B2D2D;stop-opacity:0.4"
   id="stop1353" />
				<stop
   offset="0.8586"
   style="stop-color:#313434;stop-opacity:0.5192"
   id="stop1355" />
				<stop
   offset="0.8762"
   style="stop-color:#333636;stop-opacity:0.85"
   id="stop1357" />
				<stop
   offset="0.8849"
   style="stop-color:#444646;stop-opacity:0.8829"
   id="stop1359" />
				<stop
   offset="0.9158"
   style="stop-color:#7C7C7C"
   id="stop1361" />
				<stop
   offset="0.9505"
   style="stop-color:#333636;stop-opacity:0.9"
   id="stop1363" />
				<stop
   offset="0.966"
   style="stop-color:#303333;stop-opacity:0.6801"
   id="stop1365" />
				<stop
   offset="0.9782"
   style="stop-color:#272929;stop-opacity:0.508"
   id="stop1367" />
				<stop
   offset="0.9892"
   style="stop-color:#171919;stop-opacity:0.3525"
   id="stop1369" />
				<stop
   offset="0.9995"
   style="stop-color:#010101;stop-opacity:0.2068"
   id="stop1371" />
				<stop
   offset="1"
   style="stop-color:#000000;stop-opacity:0.2"
   id="stop1373" />
				<a:midPointStop
   offset="0.8416"
   style="stop-color:#000000;stop-opacity:0.2" />
				<a:midPointStop
   offset="0.13"
   style="stop-color:#000000;stop-opacity:0.2" />
				<a:midPointStop
   offset="0.8762"
   style="stop-color:#333636;stop-opacity:0.85" />
				<a:midPointStop
   offset="0.4834"
   style="stop-color:#333636;stop-opacity:0.85" />
				<a:midPointStop
   offset="0.9158"
   style="stop-color:#7C7C7C" />
				<a:midPointStop
   offset="0.5"
   style="stop-color:#7C7C7C" />
				<a:midPointStop
   offset="0.9505"
   style="stop-color:#333636;stop-opacity:0.9" />
				<a:midPointStop
   offset="0.7546"
   style="stop-color:#333636;stop-opacity:0.9" />
				<a:midPointStop
   offset="1"
   style="stop-color:#000000;stop-opacity:0.2" />
			</radialGradient>
			<path
   style="clip-path:url(#SVGID_2_);fill:url(#SVGID_3_);"
   d="M252,360.3c-59.7,0-108.3-48.6-108.3-108.3     c0-59.7,48.6-108.3,108.3-108.3c59.7,0,108.3,48.6,108.3,108.3C360.3,311.7,311.7,360.3,252,360.3z M252,163.7     c-48.7,0-88.3,39.6-88.3,88.3c0,48.7,39.6,88.3,88.3,88.3c48.7,0,88.3-39.6,88.3-88.3C340.3,203.3,300.7,163.7,252,163.7z"
   clip-path="url(#SVGID_2_)"
   id="path1376" />
		</g>
		
			<radialGradient
   id="svg_3_1_"
   cx="-143.6418"
   cy="534.9036"
   r="0.5"
   gradientTransform="matrix(470 0 0 -470 67763.6172 251656.6094)"
   gradientUnits="userSpaceOnUse">
			<stop
   offset="0.9401"
   style="stop-color:#0000BD"
   id="stop1380" />
			<stop
   offset="1"
   style="stop-color:#000084;stop-opacity:0.9609"
   id="stop1382" />
			<a:midPointStop
   offset="0.9401"
   style="stop-color:#0000BD" />
			<a:midPointStop
   offset="0.5"
   style="stop-color:#0000BD" />
			<a:midPointStop
   offset="1"
   style="stop-color:#000084;stop-opacity:0.9609" />
		</radialGradient>
		<circle
   id="svg_3"
   style="fill:none;stroke:url(#svg_3_1_);stroke-width:33;"
   cx="252"
   cy="252"
   r="235" />
		<circle
   id="svg_5"
   style="fill:none;stroke:#7F7F00;stroke-width:22.6772;"
   cx="252"
   cy="252"
   r="49.6" />
		<circle
   id="svg_4"
   style="fill:none;stroke:#4C4C4C;stroke-width:12;"
   cx="252"
   cy="252"
   r="33" />
		<circle
   id="svg_7"
   style="fill:none;stroke:#999999;stroke-width:8;"
   cx="252"
   cy="252"
   r="64" />
		<radialGradient
   id="svg_8_1_"
   cx="251.9998"
   cy="252.0002"
   r="219.5"
   gradientUnits="userSpaceOnUse">
			<stop
   offset="0.1139"
   style="stop-color:#0000FF"
   id="stop1389" />
			<stop
   offset="0.8911"
   style="stop-color:#0000FF"
   id="stop1391" />
			<stop
   offset="0.9401"
   style="stop-color:#0000FF"
   id="stop1393" />
			<stop
   offset="1"
   style="stop-color:#0000BE;stop-opacity:0.9609"
   id="stop1395" />
			<a:midPointStop
   offset="0.1139"
   style="stop-color:#0000FF" />
			<a:midPointStop
   offset="0.5"
   style="stop-color:#0000FF" />
			<a:midPointStop
   offset="0.8911"
   style="stop-color:#0000FF" />
			<a:midPointStop
   offset="0.5"
   style="stop-color:#0000FF" />
			<a:midPointStop
   offset="0.9401"
   style="stop-color:#0000FF" />
			<a:midPointStop
   offset="0.5"
   style="stop-color:#0000FF" />
			<a:midPointStop
   offset="1"
   style="stop-color:#0000BE;stop-opacity:0.9609" />
		</radialGradient>
		<circle
   id="svg_8"
   style="fill:none;stroke:url(#svg_8_1_);stroke-width:99;"
   cx="252"
   cy="252"
   r="170" />
		<circle
   id="svg_1"
   style="fill:none;stroke:#000000;stroke-width:15;"
   cx="252"
   cy="252"
   r="75" />
		<circle
   id="svg_2"
   style="fill:none;stroke:#000000;stroke-width:15;"
   cx="252"
   cy="252"
   r="125" />
	</g>
</g>
<g
   id="NAZWA"
   transform="translate(542.68,-215.34)">
	<g
   id="g1484">
		<path
   style="fill:none"
   d="M 126.3,126.3 C 159.9,92.7 204.5,74.2 252,74.2 299.5,74.2 344.2,92.7 377.7,126.3 411.3,159.9 429.8,204.5 429.8,252 429.8,299.5 411.3,344.2 377.7,377.7 344.1,411.3 299.5,429.8 252,429.8 204.5,429.8 159.8,411.3 126.3,377.7 92.7,344.2 74.2,299.5 74.2,252 74.2,204.5 92.7,159.8 126.3,126.3 Z"
   id="path1404" />
		<path
   style="fill:#ffffff"
   d="M 161.4,98.4 158.9,93.4 164.5,68.3 151.7,74.7 149.4,70 169.4,60 171.6,64.3 165.8,90.4 181.5,82.6 183.8,87.2 179.021,89.5893 Z"
   id="path1406"
   sodipodi:nodetypes="cccccccccccc" />
		<path
   style="fill:#ffffff"
   d="M 176,57.2 187.7,53.4 C 190,52.7 191.8,52.2 193,52 194.2,51.8 195.4,51.9 196.4,52.2 197.5,52.5 198.5,53.1 199.4,53.9 200.3,54.7 201,55.8 201.4,57 201.8,58.4 201.9,59.8 201.5,61.1 201.1,62.5 200.4,63.7 199.3,64.6 201.3,64.5 202.9,65 204.3,65.9 205.7,66.8 206.6,68.2 207.2,69.9 207.6,71.2 207.7,72.6 207.5,74.1 207.3,75.6 206.8,76.8 205.9,77.9 205.1,79 203.9,79.9 202.4,80.6 201.4,81 199.1,81.9 195.3,83.1 L 185.3,86.3 Z M 183.5,60.2 185.7,67 189.6,65.8 C 191.9,65.1 193.3,64.6 193.9,64.3 194.9,63.9 195.6,63.2 196,62.5 196.4,61.7 196.4,60.9 196.1,59.9 195.8,59 195.3,58.3 194.6,57.9 193.9,57.5 193.1,57.4 192,57.6 191.4,57.7 189.7,58.2 186.9,59.1 Z M 187.3,71.8 189.8,79.6 195.3,77.8 C 197.4,77.1 198.8,76.6 199.3,76.3 200.1,75.9 200.7,75.2 201.1,74.4 201.5,73.6 201.5,72.7 201.1,71.6 200.8,70.7 200.4,70 199.7,69.6 199.1,69.1 198.3,68.9 197.4,68.9 196.5,68.9 194.7,69.3 192,70.2 Z"
   id="path1408" />
		<path
   style="fill:#ffffff"
   d="M 213.3,78.3 207.2,48.1 213.3,46.9 219.4,77.1 Z"
   id="path1410" />
		<path
   style="fill:#ffffff"
   d="M 220.8,60.9 C 220.5,57.8 220.8,55.1 221.5,52.9 222.1,51.3 222.9,49.8 224,48.5 225.1,47.2 226.3,46.1 227.7,45.4 229.5,44.4 231.7,43.8 234.2,43.6 238.7,43.2 242.5,44.3 245.4,46.9 248.3,49.5 250,53.3 250.5,58.3 250.9,63.3 249.9,67.2 247.4,70.3 244.9,73.3 241.5,75 237,75.4 232.4,75.8 228.7,74.7 225.8,72.1 222.8,69.5 221.2,65.8 220.8,60.9 Z M 227.1,60.2 C 227.4,63.7 228.4,66.2 230.2,67.9 232,69.6 234.1,70.3 236.5,70.1 238.9,69.9 240.9,68.8 242.4,66.9 243.8,65 244.4,62.3 244.1,58.7 243.8,55.2 242.8,52.6 241.1,51 239.4,49.4 237.3,48.7 234.7,48.9 232.1,49.1 230.2,50.2 228.7,52 227.4,53.9 226.8,56.6 227.1,60.2 Z M 230.4,42.7 232.8,36.2 239.4,35.6 234.2,42.3 Z"
   id="path1412" />
		<path
   style="fill:#ffffff"
   d="M 254.5,73.8 257,43.1 270,44.2 C 273.3,44.5 275.6,44.9 277.1,45.6 278.5,46.3 279.6,47.4 280.4,48.8 281.2,50.2 281.5,51.9 281.3,53.7 281.1,56 280.3,57.8 278.8,59.2 277.3,60.6 275.2,61.4 272.5,61.5 273.8,62.4 274.8,63.3 275.6,64.3 276.4,65.3 277.4,67.1 278.7,69.6 L 282,76 274.6,75.4 270.7,68.4 C 269.3,65.9 268.3,64.3 267.8,63.6 267.3,62.9 266.7,62.5 266,62.2 265.4,61.9 264.3,61.7 262.9,61.6 L 261.6,61.5 260.6,74.3 Z M 262.1,56.6 266.7,57 C 269.7,57.2 271.5,57.3 272.3,57.1 273.1,56.9 273.7,56.5 274.1,55.9 274.6,55.3 274.8,54.6 274.9,53.6 275,52.6 274.8,51.7 274.3,51 273.8,50.3 273.1,49.9 272.1,49.6 271.6,49.5 270.1,49.3 267.6,49.1 L 262.8,48.7 Z"
   id="path1414" />
		<path
   style="fill:#ffffff"
   d="M 283.3,76.5 290.7,46.6 296.7,48.1 293.4,61.4 308.9,51.2 317,53.2 302.9,62 310.2,83.2 302.4,81.3 297.7,65.2 291.6,69 289.4,78 Z"
   id="path1416" />
		<path
   style="fill:#ffffff"
   d="M 336.6,94.7 330.4,92 330.7,84.5 319.4,79.6 314.3,85 308.2,82.4 331.4,59 337.4,61.6 Z M 330.9,79 331.5,66.8 323.2,75.6 Z"
   id="path1418" />
		<path
   style="fill:#ffffff"
   d="M 345.2,100 363.1,75 373.7,82.6 C 376.4,84.5 378.2,86.1 379,87.5 379.9,88.8 380.3,90.3 380.2,92 380.1,93.7 379.5,95.2 378.5,96.7 377.2,98.6 375.5,99.7 373.5,100.2 371.5,100.6 369.3,100.2 366.9,99 367.5,100.4 367.9,101.8 368.1,103 368.3,104.2 368.3,106.3 368.1,109.1 L 367.7,116.2 361.7,111.9 361.9,103.8 C 362,100.9 362,99.1 361.9,98.2 361.8,97.4 361.5,96.6 361.1,96.1 360.7,95.6 359.9,94.8 358.8,94 L 357.8,93.3 350.3,103.7 Z M 360.6,89.2 364.3,91.9 C 366.7,93.6 368.3,94.6 369.1,94.8 369.9,95 370.6,95 371.3,94.8 372,94.6 372.6,94 373.2,93.3 373.8,92.5 374.1,91.6 374,90.8 373.9,90 373.5,89.2 372.8,88.5 372.4,88.1 371.2,87.2 369.2,85.8 L 365.3,83 Z"
   id="path1420" />
		<path
   style="fill:#ffffff"
   d="M 378.5,105.3 C 380.7,103.1 382.9,101.6 385.1,100.8 386.7,100.2 388.4,99.9 390.1,99.9 391.8,99.9 393.4,100.2 394.9,100.8 396.8,101.6 398.7,102.9 400.4,104.7 403.6,107.9 405.1,111.5 405,115.4 404.9,119.3 403.1,123 399.5,126.5 396,130 392.2,131.8 388.3,131.8 384.4,131.8 380.9,130.3 377.7,127 374.5,123.7 372.9,120.2 373,116.3 373.2,112.4 375,108.8 378.5,105.3 Z M 383.1,109.8 C 380.6,112.2 379.3,114.7 379.1,117.1 378.9,119.5 379.7,121.6 381.5,123.4 383.2,125.2 385.3,126 387.7,125.9 390.1,125.8 392.6,124.5 395.1,122 397.6,119.5 398.9,117.1 399.1,114.8 399.3,112.5 398.4,110.4 396.6,108.6 394.8,106.8 392.7,105.9 390.4,106 388.1,106.1 385.7,107.3 383.1,109.8 Z"
   id="path1422" />
		<path
   style="fill:#ffffff"
   d="M 390.2,139.7 414.9,121.7 418.6,126.7 398.1,141.6 407.2,154.1 403,157.2 Z"
   id="path1424" />
		<path
   style="fill:#ffffff"
   d="M 404.2,159.2 431.4,144.8 442.1,165 437.5,167.4 429.7,152.7 423.7,155.9 430.9,169.6 426.3,172 419.1,158.3 411.7,162.2 419.7,177.4 415.1,179.8 Z"
   id="path1426" />
		<path
   style="fill:#ffffff"
   d="M 416.4,182.9 445.5,173 447.5,178.9 434.6,183.3 451.6,190.8 454.3,198.7 439.2,191.6 425.3,209.2 422.7,201.6 433.6,188.9 427.1,185.8 418.3,188.8 Z"
   id="path1428" />
		<path
   style="fill:#ffffff"
   d="M 436.8,229.8 442.7,229.3 443.8,240.8 437.9,241.3 Z"
   id="path1430" />
		<path
   style="fill:#ffffff"
   d="M 430,262.1 435.6,262.8 453.4,281.3 455.2,267.1 460.4,267.8 457.6,290.2 452.8,289.6 434.3,270.3 432.1,287.7 427,287 Z"
   id="path1432" />
		<path
   style="fill:#ffffff"
   d="M 456.1,297.1 452.8,308.9 C 452.1,311.2 451.5,313 451,314.1 450.5,315.2 449.8,316.1 448.9,316.8 448,317.5 447,318.1 445.8,318.4 444.6,318.7 443.4,318.7 442.1,318.3 440.7,317.9 439.5,317.2 438.6,316.1 437.7,315 437.1,313.8 436.9,312.3 435.9,314 434.6,315.1 433,315.7 431.4,316.3 429.8,316.4 428.1,315.9 426.8,315.5 425.5,314.8 424.4,313.9 423.3,312.9 422.5,311.8 422.1,310.5 421.6,309.2 421.6,307.7 421.8,306.1 422,305.1 422.6,302.6 423.6,298.8 L 426.4,288.7 Z M 437.7,298.3 429.8,296.1 428.2,301.6 C 427.6,303.8 427.3,305.1 427.2,305.8 427.1,306.7 427.3,307.6 427.8,308.3 428.3,309 429,309.6 430.1,309.8 431,310.1 431.8,310 432.5,309.8 433.2,309.6 433.9,309 434.4,308.3 434.9,307.6 435.6,305.8 436.3,303.1 Z M 449.5,301.7 442.7,299.8 441.6,303.7 C 440.9,306 440.6,307.5 440.5,308.1 440.3,309.2 440.5,310.1 440.9,310.8 441.3,311.6 442,312.1 443,312.3 443.9,312.6 444.7,312.5 445.4,312.2 446.1,311.9 446.7,311.2 447.1,310.2 447.3,309.6 447.9,307.9 448.6,305.1 Z"
   id="path1434" />
		<path
   style="fill:#ffffff"
   d="M 417.9,316.4 446.4,328 444.1,333.8 415.6,322.2 Z"
   id="path1436" />
		<path
   style="fill:#ffffff"
   d="M 428.3,332.3 C 431,333.8 433.1,335.5 434.5,337.4 435.5,338.8 436.3,340.3 436.8,342 437.3,343.7 437.5,345.3 437.3,346.8 437.1,348.9 436.4,351 435.2,353.2 433,357.2 430,359.7 426.2,360.7 422.4,361.7 418.3,361 414,358.6 409.7,356.2 406.9,353.1 405.8,349.4 404.7,345.7 405.2,341.8 407.4,337.9 409.6,333.9 412.6,331.4 416.4,330.4 420,329.2 424,329.9 428.3,332.3 Z M 425.4,338 C 422.4,336.3 419.6,335.7 417.3,336.3 414.9,336.8 413.2,338.2 412,340.4 410.8,342.6 410.6,344.8 411.4,347 412.2,349.3 414.2,351.2 417.3,353 420.4,354.7 423.1,355.3 425.3,354.8 427.6,354.3 429.3,352.9 430.6,350.7 431.8,348.5 432.1,346.2 431.3,344 430.4,341.7 428.5,339.7 425.4,338 Z M 438.1,350.4 442.2,356 439,361.8 436.3,353.7 Z"
   id="path1438" />
		<path
   style="fill:#ffffff"
   d="M 398.8,353.1 422.8,372.3 414.6,382.5 C 412.5,385.1 410.8,386.8 409.5,387.6 408.1,388.4 406.6,388.7 405,388.6 403.3,388.4 401.8,387.8 400.4,386.6 398.6,385.2 397.5,383.4 397.2,381.4 396.9,379.4 397.4,377.2 398.8,374.9 397.3,375.5 396,375.8 394.7,375.9 393.4,376 391.4,375.9 388.6,375.5 L 381.6,374.7 386.2,368.9 394.2,369.6 C 397.1,369.8 398.9,369.9 399.8,369.9 400.7,369.9 401.4,369.6 402,369.2 402.6,368.8 403.3,368.1 404.2,367 L 405,366 395,358 Z M 408.8,369.1 405.9,372.7 C 404,375 403,376.6 402.7,377.3 402.4,378 402.4,378.8 402.6,379.5 402.8,380.2 403.3,380.9 404,381.4 404.8,382 405.6,382.4 406.5,382.3 407.4,382.2 408.1,381.9 408.9,381.2 409.3,380.9 410.2,379.7 411.8,377.7 L 414.8,373.9 Z"
   id="path1440" />
		<path
   style="fill:#ffffff"
   d="M 380.5,375.5 401.2,398.3 396.6,402.5 387.4,392.4 387.3,411 381.1,416.6 381.6,399.9 359.9,394.2 365.9,388.8 381.9,393.8 382.2,386.6 375.9,379.7 Z"
   id="path1442" />
		<path
   style="fill:#ffffff"
   d="M 335.7,409.7 341.4,406 347.5,410.4 357.8,403.7 356.1,396.5 361.6,392.9 368.3,425.2 362.8,428.8 Z M 351.9,413.7 361.7,421 359,409.2 Z"
   id="path1444" />
		<path
   style="fill:#ffffff"
   d="M 326.5,414 337.4,442.8 325.2,447.4 C 322.1,448.6 319.8,449.1 318.2,449.2 316.6,449.3 315.1,448.7 313.8,447.7 312.5,446.7 311.5,445.3 310.8,443.6 310,441.4 309.9,439.4 310.7,437.5 311.5,435.6 313,434 315.4,432.7 313.9,432.4 312.5,432 311.4,431.5 310.2,430.9 308.6,429.8 306.3,428.1 L 300.7,423.8 307.7,421.2 314.3,425.9 C 316.6,427.6 318.2,428.6 319,429 319.8,429.4 320.5,429.6 321.2,429.5 321.9,429.4 322.9,429.2 324.2,428.7 L 325.4,428.3 320.9,416.3 Z M 327,432.8 322.7,434.4 C 319.9,435.5 318.2,436.2 317.6,436.7 317,437.2 316.6,437.8 316.4,438.5 316.2,439.2 316.3,440 316.6,440.9 317,441.9 317.5,442.6 318.3,443 319,443.4 319.9,443.5 320.9,443.3 321.4,443.2 322.8,442.7 325.2,441.8 L 329.7,440.1 Z"
   id="path1446" />
		<path
   style="fill:#ffffff"
   d="M 303.7,438.7 C 304.3,441.8 304.3,444.5 303.8,446.7 303.4,448.4 302.7,449.9 301.8,451.4 300.8,452.9 299.7,454 298.4,454.9 296.7,456.1 294.6,456.9 292.1,457.4 287.6,458.3 283.8,457.6 280.6,455.3 277.4,453 275.3,449.5 274.4,444.6 273.5,439.7 274,435.6 276.2,432.4 278.3,429.1 281.6,427.1 286,426.2 290.5,425.3 294.3,426 297.5,428.2 300.7,430.3 302.7,433.9 303.7,438.7 Z M 297.4,440.1 C 296.7,436.7 295.4,434.2 293.5,432.8 291.6,431.3 289.4,430.8 287,431.3 284.6,431.8 282.7,433 281.5,435.1 280.3,437.2 280,439.9 280.7,443.4 281.4,446.9 282.6,449.3 284.5,450.7 286.3,452.1 288.5,452.6 291,452.1 293.5,451.6 295.4,450.4 296.6,448.3 297.8,446.2 298.1,443.6 297.4,440.1 Z"
   id="path1448" />
		<path
   style="fill:#ffffff"
   d="M 268.5,429.3 269.6,459.8 263.4,460 262.5,434.7 247.1,435.3 246.9,430.1 Z"
   id="path1450" />
		<path
   style="fill:#ffffff"
   d="M 244.5,430 241.3,460.6 218.6,458.2 219.1,453 235.6,454.7 236.3,447.9 220.9,446.3 221.4,441.1 236.8,442.7 237.7,434.4 220.6,432.6 221.1,427.4 Z"
   id="path1452" />
		<path
   style="fill:#ffffff"
   d="M 218,427 210.1,456.8 204.1,455.2 207.6,442 192,452 183.9,449.9 198.2,441.3 191.2,420 199,422.1 203.5,438.2 209.7,434.5 212.1,425.5 Z"
   id="path1454" />
		<path
   style="fill:#ffffff"
   d="M 177.6,422.7 175.1,428 164.6,423.1 167.1,417.8 Z"
   id="path1456" />
		<path
   style="fill:#ffffff"
   d="M 162.1,406.1 158.9,410.7 134.3,418 146.1,426.1 143.2,430.4 124.6,417.7 127.3,413.7 152.9,406.1 138.5,396.2 141.4,391.9 Z"
   id="path1458" />
		<path
   style="fill:#ffffff"
   d="M 119.1,413.3 110.1,404.9 C 108.3,403.2 107.1,401.9 106.3,401 105.6,400 105.1,399 104.8,397.9 104.5,396.8 104.6,395.6 104.8,394.4 105.1,393.2 105.7,392.1 106.6,391.1 107.6,390 108.8,389.3 110.2,389 111.6,388.6 113,388.7 114.4,389.2 113.4,387.5 113,385.9 113.1,384.2 113.2,382.5 113.9,381.1 115.2,379.8 116.2,378.8 117.3,378 118.7,377.5 120.1,377 121.4,376.8 122.8,377 124.2,377.2 125.5,377.8 126.8,378.8 127.6,379.4 129.5,381.1 132.4,383.8 L 140.1,390.9 Z M 118,405.3 122.8,400.1 119.8,397.3 C 118,395.7 116.9,394.7 116.4,394.3 115.5,393.7 114.7,393.4 113.8,393.4 112.9,393.4 112.2,393.8 111.5,394.5 110.9,395.2 110.5,395.9 110.5,396.7 110.5,397.5 110.8,398.3 111.5,399.1 111.9,399.6 113.2,400.8 115.3,402.8 Z M 126.4,396.3 132,390.3 127.8,386.4 C 126.2,384.9 125.1,384 124.6,383.6 123.8,383.1 123,382.9 122.1,383 121.2,383.1 120.4,383.5 119.7,384.3 119.1,385 118.7,385.7 118.6,386.5 118.5,387.3 118.6,388.1 119.1,388.9 119.6,389.7 120.8,391.1 122.8,393 Z"
   id="path1460" />
		<path
   style="fill:#ffffff"
   d="M 119.3,370.5 96,390.6 91.9,385.9 115.2,365.8 Z"
   id="path1462" />
		<path
   style="fill:#ffffff"
   d="M 79.9,373.1 73.1,374.2 69.4,368.7 77.8,369.9 Z M 100.4,372.5 C 97.8,374.3 95.4,375.4 93.1,375.8 91.4,376.1 89.7,376.1 88,375.8 86.3,375.5 84.8,374.9 83.5,374.1 81.8,373 80.2,371.4 78.8,369.3 76.3,365.5 75.4,361.8 76.2,357.9 77,354.1 79.5,350.7 83.6,347.9 87.7,345.1 91.7,344 95.5,344.7 99.3,345.4 102.5,347.6 105.1,351.3 107.7,355.1 108.6,358.9 107.8,362.7 106.9,366.5 104.5,369.8 100.4,372.5 Z M 96.7,367.3 C 99.6,365.3 101.3,363.2 101.9,360.8 102.5,358.5 102.1,356.3 100.7,354.2 99.3,352.1 97.4,351 95.1,350.7 92.8,350.4 90.1,351.2 87.1,353.2 84.2,355.2 82.4,357.3 81.9,359.6 81.4,361.9 81.8,364 83.2,366.2 84.6,368.3 86.5,369.5 88.9,369.8 91.1,370.2 93.7,369.3 96.7,367.3 Z"
   id="path1464" />
		<path
   style="fill:#ffffff"
   d="M 95.1,336.9 67.1,349.6 61.7,337.7 C 60.3,334.7 59.6,332.4 59.5,330.8 59.4,329.2 59.8,327.7 60.7,326.3 61.6,324.9 62.9,323.8 64.6,323.1 66.7,322.1 68.7,322 70.7,322.6 72.6,323.2 74.3,324.7 75.8,327 76,325.5 76.3,324.1 76.8,322.9 77.3,321.7 78.3,320 79.9,317.6 L 83.8,311.7 86.9,318.5 82.7,325.4 C 81.2,327.8 80.3,329.5 79.9,330.3 79.6,331.1 79.4,331.8 79.5,332.5 79.6,333.2 79.9,334.2 80.5,335.5 L 81,336.6 92.7,331.3 Z M 76.4,338.6 74.5,334.4 C 73.3,331.7 72.4,330 71.8,329.5 71.3,328.9 70.6,328.6 69.9,328.5 69.2,328.4 68.4,328.5 67.5,328.9 66.6,329.3 65.9,329.9 65.6,330.7 65.2,331.5 65.2,332.3 65.5,333.3 65.6,333.8 66.2,335.2 67.3,337.5 L 69.3,341.9 Z"
   id="path1466" />
		<path
   style="fill:#ffffff"
   d="M 83.5,310.4 53.8,318.4 52.2,312.4 65.4,308.8 48.9,300.2 46.7,292.1 61.3,300.2 76.3,283.5 78.4,291.3 66.7,303.2 73,306.7 82,304.3 Z"
   id="path1468" />
		<path
   style="fill:#ffffff"
   d="M 73.5,254.9 74.2,261.6 67.5,265 68.7,277.2 75.9,279 76.6,285.6 44.8,276.8 44.1,270.3 Z M 62.6,267.5 51.7,272.9 63.5,275.9 Z"
   id="path1470" />
		<path
   style="fill:#ffffff"
   d="M 73.9,244.8 43.3,241.5 44.7,228.5 C 45.1,225.2 45.6,222.9 46.3,221.5 47,220.1 48.1,219 49.6,218.3 51.1,217.6 52.8,217.3 54.6,217.5 56.9,217.7 58.7,218.6 60.1,220.1 61.4,221.6 62.2,223.7 62.3,226.5 63.2,225.2 64.2,224.2 65.2,223.5 66.2,222.7 68,221.7 70.5,220.5 L 76.9,217.4 76.1,224.8 69,228.5 C 66.4,229.8 64.8,230.8 64.1,231.3 63.4,231.8 62.9,232.4 62.6,233 62.3,233.6 62.1,234.7 61.9,236.1 L 61.8,237.4 74.6,238.8 Z M 56.9,236.7 57.4,232.1 C 57.7,229.1 57.8,227.3 57.6,226.5 57.4,225.7 57.1,225.1 56.5,224.6 55.9,224.1 55.2,223.8 54.3,223.7 53.3,223.6 52.4,223.8 51.7,224.3 51,224.8 50.5,225.5 50.2,226.5 50.1,227 49.9,228.5 49.6,231 L 49.1,235.8 Z"
   id="path1472" />
		<path
   style="fill:#ffffff"
   d="M 62.3,213.2 C 59.3,212.3 56.9,211.2 55.1,209.7 53.8,208.6 52.7,207.3 51.8,205.8 50.9,204.3 50.4,202.8 50.2,201.2 49.9,199.1 50.2,196.9 50.8,194.5 52,190.1 54.4,187 57.8,185.2 61.3,183.4 65.4,183.1 70.2,184.5 75,185.9 78.4,188.2 80.3,191.6 82.3,195 82.6,198.8 81.4,203.2 80.1,207.6 77.8,210.7 74.4,212.6 71,214.3 67,214.6 62.3,213.2 Z M 63.8,207 C 67.2,208 69.9,207.9 72.1,206.8 74.3,205.7 75.7,204 76.4,201.6 77.1,199.2 76.8,197 75.5,195 74.2,193 71.9,191.5 68.4,190.5 65,189.5 62.3,189.6 60.2,190.6 58.1,191.6 56.7,193.4 56,195.8 55.3,198.3 55.6,200.5 56.8,202.5 58,204.5 60.4,206 63.8,207 Z"
   id="path1474" />
		<path
   style="fill:#ffffff"
   d="M 86.4,186.1 58.7,173.2 61.3,167.6 84.3,178.3 90.8,164.3 95.5,166.5 Z"
   id="path1476" />
		<path
   style="fill:#ffffff"
   d="M 96.7,164.4 71,147.6 83.5,128.5 87.9,131.3 78.8,145.2 84.5,148.9 92.9,136 97.2,138.8 88.8,151.7 95.8,156.3 105.2,141.9 109.5,144.7 Z"
   id="path1478" />
		<path
   style="fill:#ffffff"
   d="M 111.5,142.3 88.6,121.7 92.8,117.1 103,126.2 101.2,107.7 106.8,101.5 107.9,118.1 130,121.6 124.6,127.6 108.2,124.2 108.6,131.4 115.5,137.6 Z"
   id="path1480" />
		<path
   style="fill:#ffffff"
   d="M 133.8,108.2 130.2,103.6 139.3,96.5 142.9,101.1 Z"
   id="path1482" />
	</g>
</g>
<g
   id="LOZYSKA">
	<g
   id="g1578">
		<radialGradient
   id="SVGID_4_"
   cx="282.1404"
   cy="291.6663"
   r="15.6411"
   gradientUnits="userSpaceOnUse">
			<stop
   offset="0.1733"
   style="stop-color:#ABABAB"
   id="stop1487" />
			<stop
   offset="0.2664"
   style="stop-color:#A3A3A3"
   id="stop1489" />
			<stop
   offset="0.4117"
   style="stop-color:#8D8D8D"
   id="stop1491" />
			<stop
   offset="0.4896"
   style="stop-color:#7E7E7E"
   id="stop1493" />
			<stop
   offset="0.9307"
   style="stop-color:#404040"
   id="stop1495" />
			<a:midPointStop
   offset="0.1733"
   style="stop-color:#ABABAB" />
			<a:midPointStop
   offset="0.6095"
   style="stop-color:#ABABAB" />
			<a:midPointStop
   offset="0.4896"
   style="stop-color:#7E7E7E" />
			<a:midPointStop
   offset="0.5123"
   style="stop-color:#7E7E7E" />
			<a:midPointStop
   offset="0.9307"
   style="stop-color:#404040" />
		</radialGradient>
		<circle
   style="fill:url(#SVGID_4_);"
   cx="282.1"
   cy="291.7"
   r="15.6"
   id="circle1498" />
		<radialGradient
   id="SVGID_5_"
   cx="207.9998"
   cy="232.9587"
   r="15.6409"
   gradientUnits="userSpaceOnUse">
			<stop
   offset="0.1733"
   style="stop-color:#ABABAB"
   id="stop1500" />
			<stop
   offset="0.2664"
   style="stop-color:#A3A3A3"
   id="stop1502" />
			<stop
   offset="0.4117"
   style="stop-color:#8D8D8D"
   id="stop1504" />
			<stop
   offset="0.4896"
   style="stop-color:#7E7E7E"
   id="stop1506" />
			<stop
   offset="0.9307"
   style="stop-color:#404040"
   id="stop1508" />
			<a:midPointStop
   offset="0.1733"
   style="stop-color:#ABABAB" />
			<a:midPointStop
   offset="0.6095"
   style="stop-color:#ABABAB" />
			<a:midPointStop
   offset="0.4896"
   style="stop-color:#7E7E7E" />
			<a:midPointStop
   offset="0.5123"
   style="stop-color:#7E7E7E" />
			<a:midPointStop
   offset="0.9307"
   style="stop-color:#404040" />
		</radialGradient>
		<circle
   style="fill:url(#SVGID_5_);"
   cx="208"
   cy="233"
   r="15.6"
   id="circle1511" />
		<radialGradient
   id="SVGID_6_"
   cx="207.9998"
   cy="274.3342"
   r="15.6406"
   gradientUnits="userSpaceOnUse">
			<stop
   offset="0.1733"
   style="stop-color:#ABABAB"
   id="stop1513" />
			<stop
   offset="0.2664"
   style="stop-color:#A3A3A3"
   id="stop1515" />
			<stop
   offset="0.4117"
   style="stop-color:#8D8D8D"
   id="stop1517" />
			<stop
   offset="0.4896"
   style="stop-color:#7E7E7E"
   id="stop1519" />
			<stop
   offset="0.9307"
   style="stop-color:#404040"
   id="stop1521" />
			<a:midPointStop
   offset="0.1733"
   style="stop-color:#ABABAB" />
			<a:midPointStop
   offset="0.6095"
   style="stop-color:#ABABAB" />
			<a:midPointStop
   offset="0.4896"
   style="stop-color:#7E7E7E" />
			<a:midPointStop
   offset="0.5123"
   style="stop-color:#7E7E7E" />
			<a:midPointStop
   offset="0.9307"
   style="stop-color:#404040" />
		</radialGradient>
		<circle
   style="fill:url(#SVGID_6_);"
   cx="208"
   cy="274.3"
   r="15.6"
   id="circle1524" />
		<radialGradient
   id="SVGID_7_"
   cx="240.8328"
   cy="299.1663"
   r="15.6411"
   gradientUnits="userSpaceOnUse">
			<stop
   offset="0.1733"
   style="stop-color:#ABABAB"
   id="stop1526" />
			<stop
   offset="0.2664"
   style="stop-color:#A3A3A3"
   id="stop1528" />
			<stop
   offset="0.4117"
   style="stop-color:#8D8D8D"
   id="stop1530" />
			<stop
   offset="0.4896"
   style="stop-color:#7E7E7E"
   id="stop1532" />
			<stop
   offset="0.9307"
   style="stop-color:#404040"
   id="stop1534" />
			<a:midPointStop
   offset="0.1733"
   style="stop-color:#ABABAB" />
			<a:midPointStop
   offset="0.6095"
   style="stop-color:#ABABAB" />
			<a:midPointStop
   offset="0.4896"
   style="stop-color:#7E7E7E" />
			<a:midPointStop
   offset="0.5123"
   style="stop-color:#7E7E7E" />
			<a:midPointStop
   offset="0.9307"
   style="stop-color:#404040" />
		</radialGradient>
		<circle
   style="fill:url(#SVGID_7_);"
   cx="240.8"
   cy="299.2"
   r="15.6"
   id="circle1537" />
		<radialGradient
   id="SVGID_8_"
   cx="239.9998"
   cy="204.3352"
   r="15.6409"
   gradientUnits="userSpaceOnUse">
			<stop
   offset="0.1733"
   style="stop-color:#ABABAB"
   id="stop1539" />
			<stop
   offset="0.2664"
   style="stop-color:#A3A3A3"
   id="stop1541" />
			<stop
   offset="0.4117"
   style="stop-color:#8D8D8D"
   id="stop1543" />
			<stop
   offset="0.4896"
   style="stop-color:#7E7E7E"
   id="stop1545" />
			<stop
   offset="0.9307"
   style="stop-color:#404040"
   id="stop1547" />
			<a:midPointStop
   offset="0.1733"
   style="stop-color:#ABABAB" />
			<a:midPointStop
   offset="0.6095"
   style="stop-color:#ABABAB" />
			<a:midPointStop
   offset="0.4896"
   style="stop-color:#7E7E7E" />
			<a:midPointStop
   offset="0.5123"
   style="stop-color:#7E7E7E" />
			<a:midPointStop
   offset="0.9307"
   style="stop-color:#404040" />
		</radialGradient>
		<circle
   style="fill:url(#SVGID_8_);"
   cx="240"
   cy="204.3"
   r="15.6"
   id="circle1550" />
		<radialGradient
   id="SVGID_9_"
   cx="283.1404"
   cy="214.7195"
   r="15.6409"
   gradientUnits="userSpaceOnUse">
			<stop
   offset="0.1733"
   style="stop-color:#ABABAB"
   id="stop1552" />
			<stop
   offset="0.2664"
   style="stop-color:#A3A3A3"
   id="stop1554" />
			<stop
   offset="0.4117"
   style="stop-color:#8D8D8D"
   id="stop1556" />
			<stop
   offset="0.4896"
   style="stop-color:#7E7E7E"
   id="stop1558" />
			<stop
   offset="0.9307"
   style="stop-color:#404040"
   id="stop1560" />
			<a:midPointStop
   offset="0.1733"
   style="stop-color:#ABABAB" />
			<a:midPointStop
   offset="0.6095"
   style="stop-color:#ABABAB" />
			<a:midPointStop
   offset="0.4896"
   style="stop-color:#7E7E7E" />
			<a:midPointStop
   offset="0.5123"
   style="stop-color:#7E7E7E" />
			<a:midPointStop
   offset="0.9307"
   style="stop-color:#404040" />
		</radialGradient>
		<circle
   style="fill:url(#SVGID_9_);"
   cx="283.1"
   cy="214.7"
   r="15.6"
   id="circle1563" />
		<radialGradient
   id="SVGID_10_"
   cx="300.3376"
   cy="253.5002"
   r="15.6406"
   gradientUnits="userSpaceOnUse">
			<stop
   offset="0.1733"
   style="stop-color:#ABABAB"
   id="stop1565" />
			<stop
   offset="0.2664"
   style="stop-color:#A3A3A3"
   id="stop1567" />
			<stop
   offset="0.4117"
   style="stop-color:#8D8D8D"
   id="stop1569" />
			<stop
   offset="0.4896"
   style="stop-color:#7E7E7E"
   id="stop1571" />
			<stop
   offset="0.9307"
   style="stop-color:#404040"
   id="stop1573" />
			<a:midPointStop
   offset="0.1733"
   style="stop-color:#ABABAB" />
			<a:midPointStop
   offset="0.6095"
   style="stop-color:#ABABAB" />
			<a:midPointStop
   offset="0.4896"
   style="stop-color:#7E7E7E" />
			<a:midPointStop
   offset="0.5123"
   style="stop-color:#7E7E7E" />
			<a:midPointStop
   offset="0.9307"
   style="stop-color:#404040" />
		</radialGradient>
		<circle
   style="fill:url(#SVGID_10_);"
   cx="300.3"
   cy="253.5"
   r="15.6"
   id="circle1576" />
	</g>
	<circle
   id="svg_4_1_"
   style="fill:none;stroke:#4C4C4C;stroke-width:12;"
   cx="252"
   cy="252"
   r="33" />
	<circle
   id="svg_7_1_"
   style="fill:none;stroke:#999999;stroke-width:8;"
   cx="252"
   cy="252"
   r="64" />
</g>
<text
   xml:space="preserve"
   style="font-style:normal;font-weight:normal;font-size:40px;line-height:1.25;font-family:sans-serif;fill:#000000;fill-opacity:1;stroke:none"
   x="116.041"
   y="-52.5359"
   id="text5823"
   inkscape:transform-center-x="11.5464"
   inkscape:transform-center-y="11.5464"><tspan
     sodipodi:role="line"
     id="tspan5821"
     x="116.041"
     y="-52.5359"
     style="fill:#ffffff;fill-opacity:1">Gra miejska</tspan></text></svg>
