<?xml version="1.0" encoding="UTF-8" standalone="no"?>
<!-- Generator: Adobe Illustrator 16.0.0, SVG Export Plug-In . SVG Version: 6.00 Build 0)  -->

<svg
   version="1.1"
   x="0px"
   y="0px"
   width="504px"
   height="504px"
   viewBox="0 0 504 504"
   style="enable-background:new 0 0 504 504;"
   xml:space="preserve"
   id="svg247"
   sodipodi:docname="kolo1-GRA_MIEJSKA.svg"
   inkscape:version="1.1.1 (3bf5ae0d25, 2021-09-20)"
   xmlns:inkscape="http://www.inkscape.org/namespaces/inkscape"
   xmlns:sodipodi="http://sodipodi.sourceforge.net/DTD/sodipodi-0.dtd"
   xmlns:xlink="http://www.w3.org/1999/xlink"
   xmlns="http://www.w3.org/2000/svg"
   xmlns:svg="http://www.w3.org/2000/svg"
   xmlns:a="http://ns.adobe.com/AdobeSVGViewerExtensions/3.0/"><defs
   id="defs251" /><sodipodi:namedview
   id="namedview249"
   pagecolor="#505050"
   bordercolor="#eeeeee"
   borderopacity="1"
   inkscape:pageshadow="0"
   inkscape:pageopacity="0"
   inkscape:pagecheckerboard="0"
   showgrid="false"
   inkscape:zoom="3.46429"
   inkscape:cx="332.825"
   inkscape:cy="259.938"
   inkscape:window-width="3840"
   inkscape:window-height="2097"
   inkscape:window-x="-8"
   inkscape:window-y="-8"
   inkscape:window-maximized="1"
   inkscape:current-layer="layer1" />
<g
   id="Warstwa_1">
	<g
   id="g65">
		<title
   id="title2">Szprychy</title>
		<polygon
   id="svg_19"
   style="fill:none;stroke:#000000;stroke-width:36.8504;"
   points="252,99 289,203 399,205 311,272 343,378     252,314 162,378 194,272 106,205 216,203 252,99 289,203   " />
		<g
   id="g42">
			<defs
   id="defs6">
				<path
   id="SVGID_1_"
   d="M135,415.6l41.7-138L62.6,190.8l142.7-2.6l46.6-134.5l47.8,134.5l142.8,2.6l-114.1,86.8l41.6,137.6      L252,332.4L135,415.6z M252,295.6l64.1,45.1l-22.4-74.4l61.9-47.2l-77.2-1.4l-26.2-73.5l-25.4,73.5l-77.3,1.4l61.9,47.2      l-22.3,74L252,295.6z" />
			</defs>
			<clipPath
   id="SVGID_2_">
				<use
   xlink:href="#SVGID_1_"
   style="overflow:visible;"
   id="use8" />
			</clipPath>
			<radialGradient
   id="SVGID_3_"
   cx="251.9998"
   cy="251.9998"
   r="108.2693"
   gradientUnits="userSpaceOnUse">
				<stop
   offset="0.8416"
   style="stop-color:#000000;stop-opacity:0.2"
   id="stop11" />
				<stop
   offset="0.8441"
   style="stop-color:#101111;stop-opacity:0.2469"
   id="stop13" />
				<stop
   offset="0.8477"
   style="stop-color:#202222;stop-opacity:0.3151"
   id="stop15" />
				<stop
   offset="0.8522"
   style="stop-color:#2B2D2D;stop-opacity:0.4"
   id="stop17" />
				<stop
   offset="0.8586"
   style="stop-color:#313434;stop-opacity:0.5192"
   id="stop19" />
				<stop
   offset="0.8762"
   style="stop-color:#333636;stop-opacity:0.85"
   id="stop21" />
				<stop
   offset="0.8849"
   style="stop-color:#444646;stop-opacity:0.8829"
   id="stop23" />
				<stop
   offset="0.9158"
   style="stop-color:#7C7C7C"
   id="stop25" />
				<stop
   offset="0.9505"
   style="stop-color:#333636;stop-opacity:0.9"
   id="stop27" />
				<stop
   offset="0.966"
   style="stop-color:#303333;stop-opacity:0.6801"
   id="stop29" />
				<stop
   offset="0.9782"
   style="stop-color:#272929;stop-opacity:0.508"
   id="stop31" />
				<stop
   offset="0.9892"
   style="stop-color:#171919;stop-opacity:0.3525"
   id="stop33" />
				<stop
   offset="0.9995"
   style="stop-color:#010101;stop-opacity:0.2068"
   id="stop35" />
				<stop
   offset="1"
   style="stop-color:#000000;stop-opacity:0.2"
   id="stop37" />
				<a:midPointStop
   offset="0.8416"
   style="stop-color:#000000;stop-opacity:0.2" />
				<a:midPointStop
   offset="0.13"
   style="stop-color:#000000;stop-opacity:0.2" />
				<a:midPointStop
   offset="0.8762"
   style="stop-color:#333636;stop-opacity:0.85" />
				<a:midPointStop
   offset="0.4834"
   style="stop-color:#333636;stop-opacity:0.85" />
				<a:midPointStop
   offset="0.9158"
   style="stop-color:#7C7C7C" />
				<a:midPointStop
   offset="0.5"
   style="stop-color:#7C7C7C" />
				<a:midPointStop
   offset="0.9505"
   style="stop-color:#333636;stop-opacity:0.9" />
				<a:midPointStop
   offset="0.7546"
   style="stop-color:#333636;stop-opacity:0.9" />
				<a:midPointStop
   offset="1"
   style="stop-color:#000000;stop-opacity:0.2" />
			</radialGradient>
			<path
   style="clip-path:url(#SVGID_2_);fill:url(#SVGID_3_);"
   d="M252,360.3c-59.7,0-108.3-48.6-108.3-108.3     c0-59.7,48.6-108.3,108.3-108.3c59.7,0,108.3,48.6,108.3,108.3C360.3,311.7,311.7,360.3,252,360.3z M252,163.7     c-48.7,0-88.3,39.6-88.3,88.3c0,48.7,39.6,88.3,88.3,88.3c48.7,0,88.3-39.6,88.3-88.3C340.3,203.3,300.7,163.7,252,163.7z"
   clip-path="url(#SVGID_2_)"
   id="path40" />
		</g>
		
			<radialGradient
   id="svg_3_1_"
   cx="-143.6418"
   cy="534.9036"
   r="0.5"
   gradientTransform="matrix(470 0 0 -470 67763.6172 251656.6094)"
   gradientUnits="userSpaceOnUse">
			<stop
   offset="0.9401"
   style="stop-color:#0000BD"
   id="stop44" />
			<stop
   offset="1"
   style="stop-color:#000084;stop-opacity:0.9609"
   id="stop46" />
			<a:midPointStop
   offset="0.9401"
   style="stop-color:#0000BD" />
			<a:midPointStop
   offset="0.5"
   style="stop-color:#0000BD" />
			<a:midPointStop
   offset="1"
   style="stop-color:#000084;stop-opacity:0.9609" />
		</radialGradient>
		<circle
   id="svg_3"
   style="fill:none;stroke:url(#svg_3_1_);stroke-width:33;"
   cx="252"
   cy="252"
   r="235" />
		<circle
   id="svg_5"
   style="fill:none;stroke:#7F7F00;stroke-width:22.6772;"
   cx="252"
   cy="252"
   r="49.6" />
		<circle
   id="svg_4"
   style="fill:none;stroke:#4C4C4C;stroke-width:12;"
   cx="252"
   cy="252"
   r="33" />
		<circle
   id="svg_7"
   style="fill:none;stroke:#999999;stroke-width:8;"
   cx="252"
   cy="252"
   r="64" />
		<radialGradient
   id="svg_8_1_"
   cx="251.9998"
   cy="252.0002"
   r="219.5"
   gradientUnits="userSpaceOnUse">
			<stop
   offset="0.1139"
   style="stop-color:#0000FF"
   id="stop53" />
			<stop
   offset="0.8911"
   style="stop-color:#0000FF"
   id="stop55" />
			<stop
   offset="0.9401"
   style="stop-color:#0000FF"
   id="stop57" />
			<stop
   offset="1"
   style="stop-color:#0000BE;stop-opacity:0.9609"
   id="stop59" />
			<a:midPointStop
   offset="0.1139"
   style="stop-color:#0000FF" />
			<a:midPointStop
   offset="0.5"
   style="stop-color:#0000FF" />
			<a:midPointStop
   offset="0.8911"
   style="stop-color:#0000FF" />
			<a:midPointStop
   offset="0.5"
   style="stop-color:#0000FF" />
			<a:midPointStop
   offset="0.9401"
   style="stop-color:#0000FF" />
			<a:midPointStop
   offset="0.5"
   style="stop-color:#0000FF" />
			<a:midPointStop
   offset="1"
   style="stop-color:#0000BE;stop-opacity:0.9609" />
		</radialGradient>
		<circle
   id="svg_8"
   style="fill:none;stroke:url(#svg_8_1_);stroke-width:99;"
   cx="252"
   cy="252"
   r="170" />
		<circle
   id="svg_1"
   style="fill:none;stroke:#000000;stroke-width:15;"
   cx="252"
   cy="252"
   r="75" />
		<circle
   id="svg_2"
   style="fill:none;stroke:#000000;stroke-width:15"
   cx="252"
   cy="252"
   r="125" />
	<circle
   style="fill:none;stroke:#008000;stroke-width:0.499998"
   id="path35831"
   cx="250"
   cy="250"
   r="174.75" /></g>
</g>

<g
   id="LOZYSKA">
	<g
   id="g242">
		<radialGradient
   id="SVGID_4_"
   cx="282.1404"
   cy="291.6663"
   r="15.6411"
   gradientUnits="userSpaceOnUse">
			<stop
   offset="0.1733"
   style="stop-color:#ABABAB"
   id="stop151" />
			<stop
   offset="0.2664"
   style="stop-color:#A3A3A3"
   id="stop153" />
			<stop
   offset="0.4117"
   style="stop-color:#8D8D8D"
   id="stop155" />
			<stop
   offset="0.4896"
   style="stop-color:#7E7E7E"
   id="stop157" />
			<stop
   offset="0.9307"
   style="stop-color:#404040"
   id="stop159" />
			<a:midPointStop
   offset="0.1733"
   style="stop-color:#ABABAB" />
			<a:midPointStop
   offset="0.6095"
   style="stop-color:#ABABAB" />
			<a:midPointStop
   offset="0.4896"
   style="stop-color:#7E7E7E" />
			<a:midPointStop
   offset="0.5123"
   style="stop-color:#7E7E7E" />
			<a:midPointStop
   offset="0.9307"
   style="stop-color:#404040" />
		</radialGradient>
		<circle
   style="fill:url(#SVGID_4_);"
   cx="282.1"
   cy="291.7"
   r="15.6"
   id="circle162" />
		<radialGradient
   id="SVGID_5_"
   cx="207.9998"
   cy="232.9587"
   r="15.6409"
   gradientUnits="userSpaceOnUse">
			<stop
   offset="0.1733"
   style="stop-color:#ABABAB"
   id="stop164" />
			<stop
   offset="0.2664"
   style="stop-color:#A3A3A3"
   id="stop166" />
			<stop
   offset="0.4117"
   style="stop-color:#8D8D8D"
   id="stop168" />
			<stop
   offset="0.4896"
   style="stop-color:#7E7E7E"
   id="stop170" />
			<stop
   offset="0.9307"
   style="stop-color:#404040"
   id="stop172" />
			<a:midPointStop
   offset="0.1733"
   style="stop-color:#ABABAB" />
			<a:midPointStop
   offset="0.6095"
   style="stop-color:#ABABAB" />
			<a:midPointStop
   offset="0.4896"
   style="stop-color:#7E7E7E" />
			<a:midPointStop
   offset="0.5123"
   style="stop-color:#7E7E7E" />
			<a:midPointStop
   offset="0.9307"
   style="stop-color:#404040" />
		</radialGradient>
		<circle
   style="fill:url(#SVGID_5_);"
   cx="208"
   cy="233"
   r="15.6"
   id="circle175" />
		<radialGradient
   id="SVGID_6_"
   cx="207.9998"
   cy="274.3342"
   r="15.6406"
   gradientUnits="userSpaceOnUse">
			<stop
   offset="0.1733"
   style="stop-color:#ABABAB"
   id="stop177" />
			<stop
   offset="0.2664"
   style="stop-color:#A3A3A3"
   id="stop179" />
			<stop
   offset="0.4117"
   style="stop-color:#8D8D8D"
   id="stop181" />
			<stop
   offset="0.4896"
   style="stop-color:#7E7E7E"
   id="stop183" />
			<stop
   offset="0.9307"
   style="stop-color:#404040"
   id="stop185" />
			<a:midPointStop
   offset="0.1733"
   style="stop-color:#ABABAB" />
			<a:midPointStop
   offset="0.6095"
   style="stop-color:#ABABAB" />
			<a:midPointStop
   offset="0.4896"
   style="stop-color:#7E7E7E" />
			<a:midPointStop
   offset="0.5123"
   style="stop-color:#7E7E7E" />
			<a:midPointStop
   offset="0.9307"
   style="stop-color:#404040" />
		</radialGradient>
		<circle
   style="fill:url(#SVGID_6_);"
   cx="208"
   cy="274.3"
   r="15.6"
   id="circle188" />
		<radialGradient
   id="SVGID_7_"
   cx="240.8328"
   cy="299.1663"
   r="15.6411"
   gradientUnits="userSpaceOnUse">
			<stop
   offset="0.1733"
   style="stop-color:#ABABAB"
   id="stop190" />
			<stop
   offset="0.2664"
   style="stop-color:#A3A3A3"
   id="stop192" />
			<stop
   offset="0.4117"
   style="stop-color:#8D8D8D"
   id="stop194" />
			<stop
   offset="0.4896"
   style="stop-color:#7E7E7E"
   id="stop196" />
			<stop
   offset="0.9307"
   style="stop-color:#404040"
   id="stop198" />
			<a:midPointStop
   offset="0.1733"
   style="stop-color:#ABABAB" />
			<a:midPointStop
   offset="0.6095"
   style="stop-color:#ABABAB" />
			<a:midPointStop
   offset="0.4896"
   style="stop-color:#7E7E7E" />
			<a:midPointStop
   offset="0.5123"
   style="stop-color:#7E7E7E" />
			<a:midPointStop
   offset="0.9307"
   style="stop-color:#404040" />
		</radialGradient>
		<circle
   style="fill:url(#SVGID_7_);"
   cx="240.8"
   cy="299.2"
   r="15.6"
   id="circle201" />
		<radialGradient
   id="SVGID_8_"
   cx="239.9998"
   cy="204.3352"
   r="15.6409"
   gradientUnits="userSpaceOnUse">
			<stop
   offset="0.1733"
   style="stop-color:#ABABAB"
   id="stop203" />
			<stop
   offset="0.2664"
   style="stop-color:#A3A3A3"
   id="stop205" />
			<stop
   offset="0.4117"
   style="stop-color:#8D8D8D"
   id="stop207" />
			<stop
   offset="0.4896"
   style="stop-color:#7E7E7E"
   id="stop209" />
			<stop
   offset="0.9307"
   style="stop-color:#404040"
   id="stop211" />
			<a:midPointStop
   offset="0.1733"
   style="stop-color:#ABABAB" />
			<a:midPointStop
   offset="0.6095"
   style="stop-color:#ABABAB" />
			<a:midPointStop
   offset="0.4896"
   style="stop-color:#7E7E7E" />
			<a:midPointStop
   offset="0.5123"
   style="stop-color:#7E7E7E" />
			<a:midPointStop
   offset="0.9307"
   style="stop-color:#404040" />
		</radialGradient>
		<circle
   style="fill:url(#SVGID_8_);"
   cx="240"
   cy="204.3"
   r="15.6"
   id="circle214" />
		<radialGradient
   id="SVGID_9_"
   cx="283.1404"
   cy="214.7195"
   r="15.6409"
   gradientUnits="userSpaceOnUse">
			<stop
   offset="0.1733"
   style="stop-color:#ABABAB"
   id="stop216" />
			<stop
   offset="0.2664"
   style="stop-color:#A3A3A3"
   id="stop218" />
			<stop
   offset="0.4117"
   style="stop-color:#8D8D8D"
   id="stop220" />
			<stop
   offset="0.4896"
   style="stop-color:#7E7E7E"
   id="stop222" />
			<stop
   offset="0.9307"
   style="stop-color:#404040"
   id="stop224" />
			<a:midPointStop
   offset="0.1733"
   style="stop-color:#ABABAB" />
			<a:midPointStop
   offset="0.6095"
   style="stop-color:#ABABAB" />
			<a:midPointStop
   offset="0.4896"
   style="stop-color:#7E7E7E" />
			<a:midPointStop
   offset="0.5123"
   style="stop-color:#7E7E7E" />
			<a:midPointStop
   offset="0.9307"
   style="stop-color:#404040" />
		</radialGradient>
		<circle
   style="fill:url(#SVGID_9_);"
   cx="283.1"
   cy="214.7"
   r="15.6"
   id="circle227" />
		<radialGradient
   id="SVGID_10_"
   cx="300.3376"
   cy="253.5002"
   r="15.6406"
   gradientUnits="userSpaceOnUse">
			<stop
   offset="0.1733"
   style="stop-color:#ABABAB"
   id="stop229" />
			<stop
   offset="0.2664"
   style="stop-color:#A3A3A3"
   id="stop231" />
			<stop
   offset="0.4117"
   style="stop-color:#8D8D8D"
   id="stop233" />
			<stop
   offset="0.4896"
   style="stop-color:#7E7E7E"
   id="stop235" />
			<stop
   offset="0.9307"
   style="stop-color:#404040"
   id="stop237" />
			<a:midPointStop
   offset="0.1733"
   style="stop-color:#ABABAB" />
			<a:midPointStop
   offset="0.6095"
   style="stop-color:#ABABAB" />
			<a:midPointStop
   offset="0.4896"
   style="stop-color:#7E7E7E" />
			<a:midPointStop
   offset="0.5123"
   style="stop-color:#7E7E7E" />
			<a:midPointStop
   offset="0.9307"
   style="stop-color:#404040" />
		</radialGradient>
		<circle
   style="fill:url(#SVGID_10_);"
   cx="300.3"
   cy="253.5"
   r="15.6"
   id="circle240" />
	</g>
	<circle
   id="svg_4_1_"
   style="fill:none;stroke:#4C4C4C;stroke-width:12;"
   cx="252"
   cy="252"
   r="33" />
	<circle
   id="svg_7_1_"
   style="fill:none;stroke:#999999;stroke-width:8;"
   cx="252"
   cy="252"
   r="64" />
</g>
<g
   inkscape:groupmode="layer"
   id="layer1"
   inkscape:label="Napis"
   style="display:inline"><g
     aria-label="GRA MIEJSKA      -        GRA MIEJSKA       -"
     transform="translate(-3.74308e-5)"
     id="text3270"
     style="font-weight:bold;font-size:49.3333px;line-height:0;font-family:Arial;-inkscape-font-specification:'Arial Bold';fill:#ffffff"><path
       d="M 436.53,271.385 442.444,272.031 440.775,287.309 426.791,285.781 Q 424.879,283.319 423.69,278.9 422.522,274.508 422.995,270.173 423.597,264.666 426.343,260.822 429.113,256.981 433.624,255.39 438.16,253.801 443.212,254.353 448.696,254.952 452.707,257.717 456.718,260.481 458.509,265.16 459.889,268.727 459.339,273.756 458.625,280.293 455.471,283.656 452.338,287.046 447.386,287.571 L 446.838,280.387 Q 449.505,279.927 451.215,278.03 452.946,276.159 453.281,273.094 453.788,268.449 451.144,265.373 448.497,262.321 442.702,261.688 436.452,261.006 433.011,263.441 429.595,265.878 429.103,270.38 428.86,272.607 429.479,274.928 430.119,277.276 431.189,279.016 L 435.643,279.503 Z"
       style="letter-spacing:-0.21px"
       id="path91460" /><path
       d="M 420.377,291.553 453.897,302.665 449.174,316.91 Q 447.393,322.283 445.675,324.404 443.972,326.554 441.178,327.252 438.383,327.95 435.411,326.965 431.638,325.714 429.904,322.677 428.193,319.648 429.016,315.023 427.007,316.794 425.006,317.704 422.996,318.636 418.283,319.764 L 410.386,321.689 413.07,313.594 421.986,311.119 Q 426.76,309.809 428.084,309.182 429.432,308.563 430.154,307.61 430.899,306.664 431.672,304.332 L 432.127,302.96 418.133,298.321 Z M 437.477,304.733 435.817,309.741 Q 434.202,314.611 434.212,315.959 434.222,317.308 435.001,318.327 435.779,319.347 437.288,319.847 438.98,320.408 440.312,319.834 441.66,319.291 442.48,317.736 442.867,316.951 444.232,312.835 L 445.983,307.553 Z"
       style="letter-spacing:-0.21px"
       id="path91462" /><path
       d="M 392.693,352.59 396.537,345.853 405.033,347.15 412.028,334.89 406.506,328.383 410.254,321.813 434.11,351.261 430.373,357.81 Z M 411.335,348.112 425.128,350.38 416.11,339.743 Z"
       style="letter-spacing:-0.21px"
       id="path91464" /><path
       d="M 383.075,364.537 407.479,390.062 399.766,397.436 378.488,384.453 390.556,406.243 382.825,413.634 358.421,388.109 363.209,383.531 382.419,403.624 368.276,378.687 373.238,373.943 397.497,389.208 378.287,369.115 Z"
       style="letter-spacing:-0.21px"
       id="path91466" /><path
       d="M 352.579,391.533 372.755,420.516 366.903,424.589 346.727,395.607 Z"
       style="letter-spacing:-0.21px"
       id="path91468" /><path
       d="M 341.386,399.536 357.564,430.926 334.288,442.921 331.552,437.611 348.489,428.882 344.903,421.923 329.143,430.045 326.417,424.756 342.177,416.635 337.774,408.091 320.237,417.129 317.512,411.84 Z"
       style="letter-spacing:-0.21px"
       id="path91470" /><path
       d="M 310.329,451.279 303.547,453.403 296.869,432.069 Q 295.559,427.886 295.589,425.402 295.656,422.15 297.693,419.544 299.736,416.961 303.989,415.629 308.977,414.068 312.538,416.007 316.106,417.97 317.82,423.365 L 311.636,426.108 Q 310.615,423.248 309.505,422.283 307.833,420.812 305.58,421.517 303.304,422.23 302.765,423.812 302.232,425.418 303.513,429.51 Z"
       style="letter-spacing:-0.21px"
       id="path91472" /><path
       d="M 289.098,432.716 282.308,434.292 Q 281.23,430.911 279.129,429.536 277.005,428.164 273.781,428.59 270.366,429.04 268.835,430.7 267.284,432.387 267.539,434.321 267.703,435.563 268.557,436.325 269.39,437.114 271.29,437.519 272.588,437.785 277.152,438.301 283.021,438.96 285.585,440.712 289.19,443.176 289.738,447.331 290.091,450.006 288.892,452.521 287.673,455.063 284.991,456.656 282.286,458.252 278.25,458.784 271.659,459.654 267.958,457.202 264.234,454.754 263.43,449.952 L 270.458,448.709 Q 271.268,451.347 272.927,452.319 274.565,453.318 277.55,452.924 280.631,452.518 282.207,451.022 283.222,450.062 283.043,448.701 282.879,447.459 281.712,446.714 280.226,445.768 274.907,445.23 269.588,444.693 266.955,443.704 264.301,442.742 262.617,440.656 260.911,438.597 260.473,435.278 260.076,432.268 261.402,429.421 262.727,426.573 265.613,424.881 268.503,423.211 273.065,422.61 279.704,421.734 283.665,424.321 287.63,426.932 289.098,432.716 Z"
       style="letter-spacing:-0.21px"
       id="path91474" /><path
       d="M 253.168,425.288 250.983,460.534 243.867,460.093 244.837,444.441 229.489,459.201 219.921,458.608 234.043,445.703 221.384,423.317 230.592,423.888 239.256,441.03 245.391,435.497 246.052,424.847 Z"
       style="letter-spacing:-0.21px"
       id="path91476" /><path
       d="M 187.147,414.164 194.644,416.153 195.567,424.697 209.211,428.318 214.085,421.312 221.396,423.252 199.044,453.857 191.756,451.923 Z M 196.253,431.035 197.595,444.949 205.566,433.506 Z"
       style="letter-spacing:-0.21px"
       id="path91478" /><path
       d="M 113.262,373.494 108.109,377.883 99.4874,367.76 104.641,363.371 Z"
       style="letter-spacing:-0.21px"
       id="path91480" /><path
       d="M 62.7537,236.353 56.8174,235.951 57.8565,220.618 71.892,221.569 Q 73.9036,223.951 75.2736,228.317 76.6212,232.658 76.3264,237.008 75.9518,242.535 73.3661,246.489 70.7563,250.44 66.3143,252.216 61.8482,253.989 56.7772,253.646 51.2735,253.273 47.1519,250.676 43.0303,248.079 41.0485,243.478 39.5237,239.97 39.8657,234.923 40.3104,228.362 43.3234,224.872 46.314,221.357 51.2404,220.628 L 52.0834,227.784 Q 49.4373,228.353 47.8072,230.319 46.1546,232.259 45.9462,235.335 45.6302,239.998 48.399,242.962 51.1694,245.902 56.9855,246.296 63.2582,246.721 66.5955,244.147 69.9088,241.571 70.215,237.052 70.3665,234.817 69.6528,232.523 68.9166,230.204 67.776,228.509 L 63.3058,228.206 Z"
       style="letter-spacing:-0.21px"
       id="path91482" /><path
       d="M 78.0554,215.538 44.1013,205.833 48.2254,191.404 Q 49.7811,185.961 51.4092,183.771 53.0208,181.551 55.7838,180.737 58.5467,179.923 61.5577,180.784 65.3792,181.876 67.2385,184.838 69.0746,187.793 68.4455,192.448 70.378,190.595 72.3402,189.603 74.3091,188.587 78.9713,187.264 L 86.7803,185.012 84.4369,193.211 75.6319,196.055 Q 70.9167,197.564 69.6196,198.245 68.2993,198.92 67.6176,199.903 66.9127,200.879 66.2375,203.241 L 65.8403,204.631 80.0149,208.682 Z M 60.4206,203.082 61.8704,198.009 Q 63.2804,193.076 63.2143,191.729 63.1483,190.383 62.3278,189.397 61.5073,188.411 59.9787,187.974 58.2647,187.484 56.9577,188.112 55.6341,188.711 54.8796,190.299 54.5254,191.1 53.3339,195.269 L 51.8047,200.619 Z"
       style="letter-spacing:-0.21px"
       id="path91484" /><path
       d="M 103.174,153.402 99.6132,160.292 91.0715,159.349 84.5905,171.889 90.3783,178.161 86.9056,184.881 61.8489,156.448 65.3106,149.75 Z M 84.7351,158.65 70.8597,156.956 80.3112,167.21 Z"
       style="letter-spacing:-0.21px"
       id="path91486" /><path
       d="M 112.294,141.069 86.8591,116.571 94.262,108.885 116.057,120.98 103.102,99.7068 110.522,92.0036 135.956,116.502 131.361,121.273 111.339,101.988 126.498,126.321 121.735,131.266 96.8676,117.013 116.889,136.297 Z"
       style="letter-spacing:-0.21px"
       id="path91488" /><path
       d="M 141.652,112.84 120.297,84.7146 125.976,80.4029 147.331,108.528 Z"
       style="letter-spacing:-0.21px"
       id="path91490" /><path
       d="M 152.505,104.382 135.039,73.6905 157.796,60.7399 160.751,65.9319 144.191,75.356 148.063,82.1602 163.472,73.3914 166.414,78.5625 151.005,87.3313 155.759,95.6847 172.906,85.9271 175.848,91.0983 Z"
       style="letter-spacing:-0.21px"
       id="path91492" /><path
       d="M 181.379,51.3927 188.066,48.9886 195.629,70.0245 Q 197.113,74.1501 197.186,76.6323 197.254,79.8843 195.328,82.5733 193.394,85.2397 189.201,86.7473 184.282,88.5158 180.644,86.7265 176.997,84.9145 175.059,79.5956 L 181.123,76.5965 Q 182.263,79.4119 183.412,80.3299 185.144,81.7295 187.366,80.9308 189.61,80.124 190.083,78.5205 190.548,76.8943 189.097,72.8593 Z"
       style="letter-spacing:-0.21px"
       id="path91494" /><path
       d="M 203.369,69.0513 210.087,67.1952 Q 211.304,70.5286 213.461,71.8154 215.64,73.098 218.844,72.5394 222.237,71.9478 223.698,70.226 225.178,68.4764 224.843,66.5542 224.627,65.3202 223.743,64.5942 222.878,63.8403 220.963,63.5141 219.654,63.3021 215.074,62.9759 209.182,62.5606 206.548,60.917 202.843,58.6042 202.123,54.4751 201.66,51.8173 202.754,49.2547 203.867,46.6643 206.48,44.9617 209.116,43.2549 213.127,42.5557 219.677,41.4137 223.476,43.7099 227.299,46.002 228.301,50.7666 L 221.33,52.2999 Q 220.412,49.6969 218.714,48.7948 217.036,47.8648 214.069,48.382 211.008,48.9158 209.495,50.4756 208.521,51.4769 208.756,52.8295 208.972,54.0635 210.169,54.7595 211.692,55.6431 217.029,55.9596 222.366,56.2761 225.038,57.1551 227.729,58.0062 229.498,60.0207 231.287,62.0072 231.863,65.3057 232.384,68.2958 231.178,71.1958 229.972,74.0958 227.158,75.9068 224.34,77.6942 219.807,78.4845 213.21,79.6348 209.145,77.2138 205.075,74.769 203.369,69.0513 Z"
       style="letter-spacing:-0.21px"
       id="path91496" /><path
       d="M 239.576,74.9927 240.315,39.6867 247.444,39.8359 247.116,55.5141 261.846,40.1374 271.431,40.3381 257.849,53.8113 271.414,75.6592 262.19,75.4661 252.832,58.6937 246.928,64.4731 246.705,75.142 Z"
       style="letter-spacing:-0.21px"
       id="path91498" /><path
       d="M 306.003,83.3759 298.429,81.7005 297.151,73.2024 283.369,70.1533 278.79,77.3558 271.405,75.722 292.463,44.2129 299.824,45.8415 Z M 296.202,66.8986 294.282,53.0528 286.794,64.8174 Z"
       style="letter-spacing:-0.21px"
       id="path91500" /><path
       d="M 391.073,131.478 396.379,127.275 404.634,137.699 399.328,141.902 Z"
       style="letter-spacing:-0.21px"
       id="path91502" /></g></g></svg>
