<?xml version="1.0" encoding="utf-8"?>
<!-- Generator: Adobe Illustrator 16.0.0, SVG Export Plug-In . SVG Version: 6.00 Build 0)  -->
<!DOCTYPE svg PUBLIC "-//W3C//DTD SVG 1.1//EN" "http://www.w3.org/Graphics/SVG/1.1/DTD/svg11.dtd" [
	<!ENTITY ns_flows "http://ns.adobe.com/Flows/1.0/">
	<!ENTITY ns_extend "http://ns.adobe.com/Extensibility/1.0/">
	<!ENTITY ns_ai "http://ns.adobe.com/AdobeIllustrator/10.0/">
	<!ENTITY ns_graphs "http://ns.adobe.com/Graphs/1.0/">
]>
<svg version="1.1"
	 id="Warstwa_1" xmlns:x="&ns_extend;" xmlns:i="&ns_ai;" xmlns:graph="&ns_graphs;" xmlns:svg="http://www.w3.org/2000/svg"
	 xmlns="http://www.w3.org/2000/svg" xmlns:xlink="http://www.w3.org/1999/xlink" xmlns:a="http://ns.adobe.com/AdobeSVGViewerExtensions/3.0/"
	 x="0px" y="0px" width="504px" height="504px" viewBox="0 0 504 504" enable-background="new 0 0 504 504" xml:space="preserve">
<g>
	<title>Szprychy</title>
	<polygon id="svg_19" fill="none" stroke="#000000" stroke-width="30" points="252,97 289,201 399,203 311,270 343,376 252,312 
		162,376 194,270 106,203 216,201 252,97 289,201 	"/>
	
		<radialGradient id="svg_3_1_" cx="-143.6418" cy="534.9036" r="0.5" gradientTransform="matrix(470 0 0 -470 67763.6172 251656.6094)" gradientUnits="userSpaceOnUse">
		<stop  offset="0.9401" style="stop-color:#0000FF"/>
		<stop  offset="1" style="stop-color:#6E00FF;stop-opacity:0.9609"/>
		<a:midPointStop  offset="0.9401" style="stop-color:#0000FF"/>
		<a:midPointStop  offset="0.5" style="stop-color:#0000FF"/>
		<a:midPointStop  offset="1" style="stop-color:#6E00FF;stop-opacity:0.9609"/>
	</radialGradient>
	<circle id="svg_3" fill="none" stroke="url(#svg_3_1_)" stroke-width="33" cx="252" cy="252" r="235"/>
	<circle id="svg_4" fill="none" stroke="#4C4C4C" stroke-width="12" cx="252" cy="252" r="33"/>
	<circle id="svg_5" fill="none" stroke="#7F7F00" stroke-width="21" cx="252" cy="252" r="50"/>
	<circle id="svg_7" fill="none" stroke="#999999" stroke-width="8" cx="252" cy="252" r="64"/>
	<circle id="svg_8" fill="none" stroke="#0000FF" stroke-width="99" cx="252" cy="252" r="170"/>
	<circle id="svg_1" fill="none" stroke="#000000" stroke-width="15" cx="252" cy="252" r="75"/>
	<circle id="svg_2" fill="none" stroke="#000000" stroke-width="15" cx="252" cy="252" r="125"/>
</g>
<g>
	<path fill="#FFFFFF" d="M170.8,98.2L152,69.9l7.5-2.8l7.1,11.9c2.1,3.4,4.2,7.2,5.9,10.1l0.1,0c-0.7-3.5-1.4-7.5-2-11.6l-2.1-13.7
		l7.4-2.8l7.3,12.1c2,3.4,3.8,6.5,5.5,9.8l0.1,0c-0.8-3.6-1.5-7.5-2.2-11.4l-2.2-13.6l7.1-2.6l3.5,33.9l-7.6,2.8l-7.6-12.4
		c-1.8-2.9-3.3-5.6-5-9l-0.1,0c0.7,3.7,1.3,6.8,1.8,10.2l2,14.4L170.8,98.2z"/>
	<path fill="#FFFFFF" d="M209,76.8l-0.5,8.8l-7.6,1.6l2.9-34.4l9.6-2.1l17,30.2l-7.9,1.7l-4.3-7.8L209,76.8z M216,69.5l-3.5-6.4
		c-1-1.8-2.1-4.1-3-5.9l-0.1,0c-0.1,2,0,4.6-0.1,6.6l-0.4,7.3L216,69.5z"/>
	<path fill="#FFFFFF" d="M231.6,48.1c2.4-0.5,5.9-1.1,9.9-1.3c4.9-0.3,8.4,0.2,10.8,1.9c2.1,1.4,3.3,3.7,3.5,6.7
		c0.3,4.2-2.5,7.3-5.3,8.5l0,0.1c2.4,0.8,3.8,2.9,4.8,5.9c1.3,3.7,2.5,7.9,3.3,9.1l-7.6,0.5c-0.6-0.9-1.5-3.5-2.8-7.5
		c-1.1-4.1-2.6-5.1-5.7-5l-2.3,0.1l0.8,13l-7.4,0.5L231.6,48.1z M239.8,61.8l2.9-0.2c3.7-0.2,5.8-2.2,5.6-5.1
		c-0.2-3-2.3-4.4-5.8-4.3c-1.8,0.1-2.8,0.3-3.4,0.5L239.8,61.8z"/>
	<path fill="#FFFFFF" d="M262.3,71.7c1.9,1.2,4.9,2.5,8.1,2.8c3.4,0.3,5.4-0.9,5.6-3.1c0.2-2-1.3-3.4-5.1-5.2
		c-5.3-2.4-8.6-5.8-8.1-10.6c0.5-5.6,5.6-9.5,13.4-8.7c3.7,0.3,6.4,1.4,8.2,2.4l-2.2,5.8c-1.3-0.8-3.5-1.9-6.7-2.2
		c-3.2-0.3-4.9,1-5.1,2.7c-0.2,2.1,1.6,3.2,5.7,5.2c5.6,2.7,8.1,6,7.6,10.6c-0.5,5.5-5.2,9.8-14.2,9c-3.8-0.4-7.4-1.7-9.1-2.9
		L262.3,71.7z"/>
	<path fill="#FFFFFF" d="M285.4,77.6l21-17.8l0.1-0.2l-13.8-3.7l1.6-6l23.2,6.2l-1.1,4.2l-20.6,17.6l0,0.2l15.1,4l-1.6,6l-24.8-6.6
		L285.4,77.6z"/>
	<path fill="#FFFFFF" d="M329.3,67.9l-8-3.8l2.7-5.7l23,10.7l-2.7,5.7l-8.2-3.8l-11.3,24.2l-6.8-3.2L329.3,67.9z"/>
	<path fill="#FFFFFF" d="M343.3,96.1l-6.7,5.7l-6.4-4.4l27-21.5l8.1,5.6l-10.3,33l-6.6-4.6l2.7-8.4L343.3,96.1z M353.4,96.2l2.3-6.9
		c0.6-1.9,1.5-4.3,2.2-6.2l-0.1-0.1c-1.5,1.3-3.3,3.1-4.9,4.4l-5.6,4.7L353.4,96.2z"/>
	<path fill="#FFFFFF" d="M377.2,99.1l-6.4-6.1l4.3-4.6l18.5,17.4l-4.3,4.6l-6.6-6.2l-18.4,19.4l-5.5-5.2L377.2,99.1z"/>
	<path fill="#FFFFFF" d="M377.3,138.3l10.8-8.2l9.2-20.1l5.2,6.8l-4.3,7.5c-1.3,2.3-2.3,3.9-3.5,5.9l0.1,0.1
		c2.1-0.7,4.1-1.2,6.5-1.8l8.3-2.2l5.1,6.7l-21.9,3l-10.9,8.4L377.3,138.3z"/>
	<path fill="#FFFFFF" d="M428.6,158.6c1.3,2,3,5.2,4.7,8.8c2,4.5,2.7,7.9,1.9,10.8c-0.6,2.4-2.3,4.3-5.1,5.6c-3.9,1.7-7.7,0.1-9.8-2
		l-0.1,0.1c0.1,2.5-1.4,4.5-3.9,6.5c-3,2.4-6.5,5.1-7.4,6.2l-3.1-7c0.6-0.9,2.8-2.7,6.1-5.2c3.4-2.5,3.9-4.2,2.7-7l-0.9-2.1
		l-11.9,5.3l-3-6.8L428.6,158.6z M418.6,171.1l1.2,2.7c1.5,3.4,4.1,4.7,6.7,3.5c2.8-1.2,3.3-3.7,2-6.9c-0.7-1.7-1.3-2.5-1.6-3
		L418.6,171.1z"/>
	<path fill="#FFFFFF" d="M434.6,221.6c-10.4,3-18.5-1.4-21.3-10.7c-2.8-9.4,2.7-17,11.8-19.6c9.5-2.8,18.4,1.2,21.1,10.6
		C449.1,211.5,443.4,219,434.6,221.6z M427.5,198.8c-6.2,1.8-9.7,6-8.3,10.8c1.4,4.8,6.8,6.3,13,4.5c5.7-1.7,9.8-5.8,8.3-10.8
		C439.1,198.4,433.7,197,427.5,198.8z"/>
	<path fill="#FFFFFF" d="M451.5,225.4l1.1,7.4l-26.5,3.8l1.9,13l-6.2,0.9l-2.9-20.4L451.5,225.4z"/>
	<path fill="#FFFFFF" d="M455.1,253.8l0,7.4l-14.6-0.1l0,0.1c1.3,0.7,2.4,1.5,3.6,2.3l11,7.5l0,9.2l-14-11l-19,11.5l0-8.7l14.3-8
		l-3.5-2.9l-10.8,0l0-7.4L455.1,253.8z"/>
	<path fill="#FFFFFF" d="M432.8,313.7c-10.6-2-15.9-9.7-14-19.2c1.8-9.6,10.2-13.9,19.4-12.1c9.7,1.9,15.8,9.5,14,19
		C450.3,311.4,441.8,315.4,432.8,313.7z M436.9,290.1c-6.4-1.2-11.4,0.9-12.3,5.8c-1,5,3.2,8.7,9.5,9.9c5.8,1.1,11.4-0.7,12.3-5.8
		C447.4,295.1,443.2,291.3,436.9,290.1z"/>
	<path fill="#FFFFFF" d="M413.5,318l33.2,7l-3.4,7.2l-13.4-3.6c-3.9-1-8-2.2-11.3-3.2l0,0.1c3,2,6.3,4.4,9.6,6.9l11,8.3l-3.4,7.2
		l-13.7-3.6c-3.8-1-7.2-2-10.8-3.1l0,0.1c3.1,2,6.3,4.3,9.6,6.6l11.1,8.2l-3.2,6.9l-26.2-21.8l3.5-7.3l14,3.6
		c3.3,0.8,6.3,1.7,9.9,2.9l0-0.1c-3.1-2.1-5.7-4-8.4-6.1l-11.5-8.9L413.5,318z"/>
	<path fill="#FFFFFF" d="M395.5,374.3l7.5-9.6l-6.2-4.8l-8.3,10.7l-4.8-3.8l12.9-16.6l26.1,20.3l-12.5,16.1l-4.8-3.8l7.9-10.2
		l-5.4-4.2l-7.5,9.6L395.5,374.3z"/>
	<path fill="#FFFFFF" d="M333.4,406.1l20.4,27.1l-7.3,3.2l-7.8-11.5c-2.2-3.3-4.6-6.9-6.4-9.8l-0.1,0c0.9,3.5,1.8,7.4,2.7,11.5
		l2.9,13.5l-7.3,3.2l-8-11.7c-2.2-3.3-4.1-6.3-6.1-9.4l-0.1,0c1,3.6,1.9,7.4,2.8,11.3l3,13.5l-7,3l-5.4-33.7l7.4-3.2l8.3,11.9
		c1.9,2.8,3.7,5.4,5.5,8.7l0.1,0c-1-3.6-1.7-6.7-2.3-10.1l-2.8-14.3L333.4,406.1z"/>
	<path fill="#FFFFFF" d="M296.3,429l0.4-8.8l7.6-1.7l-2.6,34.5l-9.6,2.2l-17.3-30l7.8-1.8l4.4,7.7L296.3,429z M289.4,436.3l3.6,6.4
		c1,1.8,2.1,4,3,5.8l0.1,0c0-2,0-4.6,0.1-6.6l0.4-7.3L289.4,436.3z"/>
	<path fill="#FFFFFF" d="M273.6,457.9c-2.4,0.5-5.9,1-9.9,1.2c-4.9,0.3-8.4-0.3-10.8-2c-2-1.5-3.3-3.7-3.4-6.7
		c-0.2-4.2,2.6-7.3,5.4-8.5l0-0.1c-2.4-0.8-3.7-2.9-4.7-5.9c-1.2-3.7-2.5-7.9-3.2-9.1l7.6-0.4c0.6,0.9,1.5,3.5,2.7,7.6
		c1.1,4.1,2.6,5.1,5.6,5l2.3-0.1l-0.7-13l7.4-0.4L273.6,457.9z M265.4,444.1l-2.9,0.2c-3.7,0.2-5.8,2.2-5.7,5.1
		c0.2,3,2.3,4.4,5.7,4.3c1.8-0.1,2.8-0.3,3.4-0.4L265.4,444.1z"/>
	<path fill="#FFFFFF" d="M243,434c-1.9-1.2-4.9-2.5-8.1-2.8c-3.4-0.3-5.4,0.9-5.6,3.1c-0.2,2,1.3,3.4,5.1,5.1
		c5.3,2.4,8.6,5.8,8.1,10.5c-0.5,5.6-5.6,9.5-13.4,8.8c-3.7-0.3-6.4-1.4-8.2-2.4l2.2-5.9c1.3,0.8,3.5,1.9,6.7,2.2
		c3.2,0.3,4.9-1,5.1-2.7c0.2-2.1-1.6-3.2-5.7-5.2c-5.6-2.7-8.1-6-7.6-10.6c0.5-5.5,5.2-9.8,14.2-9c3.8,0.3,7.4,1.7,9.1,2.9L243,434z
		"/>
	<path fill="#FFFFFF" d="M219.9,428.1l-20.6,18.4l0,0.2l13.9,3.3l-1.4,6l-23.3-5.6l1-4.2l20.2-18.2l0-0.2l-15.2-3.6l1.4-6l25,6
		L219.9,428.1z"/>
	<path fill="#FFFFFF" d="M176.8,439.6l8.3,3.2l-2.3,5.9l-23.7-9.2l2.3-5.9l8.4,3.3l9.7-25l7,2.7L176.8,439.6z"/>
	<path fill="#FFFFFF" d="M160.7,412.8l6.1-6.4l6.8,3.6l-24.4,24.4l-8.7-4.6l6.4-34l7.1,3.8l-1.7,8.7L160.7,412.8z M150.7,413.8
		l-1.5,7.2c-0.4,2-1,4.4-1.5,6.4l0.1,0c1.4-1.5,3-3.5,4.3-4.9l5-5.3L150.7,413.8z"/>
	<path fill="#FFFFFF" d="M126.8,414l7.2,5.2l-3.7,5.1l-20.5-15l3.7-5.1l7.3,5.3l15.8-21.6l6.1,4.4L126.8,414z"/>
	<path fill="#FFFFFF" d="M121.8,375.1l-9.7,9.4l-6.8,21.1l-5.9-6.1l3.4-7.9c1-2.4,1.8-4.1,2.8-6.2l-0.1-0.1c-2,0.9-3.9,1.7-6.3,2.6
		l-8,3.1l-5.8-6l21.4-5.5l9.9-9.6L121.8,375.1z"/>
	<path fill="#FFFFFF" d="M68.2,359.6c-1.5-2-3.4-5-5.2-8.5c-2.3-4.4-3.2-7.7-2.6-10.7c0.5-2.5,2-4.5,4.7-5.9
		c3.7-1.9,7.7-0.6,9.9,1.4l0.1-0.1c-0.2-2.5,1.1-4.6,3.5-6.8c2.8-2.6,6.2-5.5,7-6.7l3.5,6.8c-0.6,0.9-2.6,2.8-5.8,5.6
		c-3.2,2.7-3.6,4.5-2.2,7.2l1,2l11.5-6l3.4,6.6L68.2,359.6z M77.4,346.4l-1.4-2.6c-1.7-3.3-4.4-4.4-6.9-3.1c-2.7,1.4-3.1,3.9-1.6,7
		c0.8,1.6,1.4,2.5,1.8,2.9L77.4,346.4z"/>
	<path fill="#FFFFFF" d="M60,295.9c10.4-3.1,18.5,1.4,21.3,10.7c2.8,9.4-2.7,17-11.8,19.6C60,329,51.1,325,48.3,315.7
		C45.5,305.9,51.2,298.5,60,295.9z M67.1,318.7c6.2-1.8,9.7-6,8.3-10.8c-1.4-4.8-6.8-6.3-13-4.5c-5.7,1.7-9.8,5.8-8.3,10.8
		C55.5,319,61,320.5,67.1,318.7z"/>
	<path fill="#FFFFFF" d="M43.2,291l-0.8-7.5l26.6-2.7l-1.3-13.1l6.2-0.6l2.1,20.5L43.2,291z"/>
	<path fill="#FFFFFF" d="M41,261.8l0.5-7.4l14.6,1l0-0.1c-1.2-0.8-2.3-1.7-3.5-2.5l-10.4-8.2l0.6-9.1l13.3,11.9L75.8,237l-0.6,8.7
		l-14.8,7.1l3.3,3.1l10.8,0.7l-0.5,7.4L41,261.8z"/>
	<path fill="#FFFFFF" d="M67,203.6c10.5,2.7,15.2,10.7,12.8,20c-2.4,9.5-11,13.2-20.1,10.9c-9.6-2.5-15.2-10.4-12.8-19.9
		C49.5,204.8,58.2,201.3,67,203.6z M61.5,226.8c6.3,1.6,11.4-0.2,12.7-5c1.3-4.9-2.7-8.9-8.9-10.5c-5.7-1.5-11.4,0-12.7,5
		C51.4,221.2,55.3,225.2,61.5,226.8z"/>
	<path fill="#FFFFFF" d="M86.6,200.1l-33.1-7.6l3.5-7.2l13.3,3.8c3.8,1.1,8,2.3,11.2,3.3l0-0.1c-3-2.1-6.2-4.5-9.5-7.1l-10.9-8.5
		l3.5-7.1l13.7,3.8c3.8,1.1,7.2,2.1,10.7,3.3l0-0.1c-3.1-2.1-6.2-4.4-9.4-6.8l-10.9-8.4l3.4-6.8L98,177l-3.6,7.3l-14-3.8
		c-3.3-0.9-6.3-1.8-9.8-3.1l0,0.1c3.1,2.2,5.7,4,8.3,6.2l11.4,9.1L86.6,200.1z"/>
	<path fill="#FFFFFF" d="M104,143.5l-7,9.9l6.4,4.5l7.9-11.1l5,3.5L104,167.6L77,148.5l11.8-16.6l5,3.5l-7.5,10.5l5.6,4l7-9.9
		L104,143.5z"/>
</g>
</svg>
